# 3ds Max Wavefront OBJ Exporter v0.97b - (c)2007 guruware
# File Created: 19.11.2013 20:04:21

#
# object SweetPack_Raspberry
#

v  0.0153 -0.0250 0.0000
v  0.0272 -0.0114 0.0000
v  0.0248 -0.0114 0.0103
v  0.0108 -0.0250 -0.0108
v  0.0192 -0.0114 -0.0192
v  0.0248 -0.0114 -0.0103
v  -0.0000 -0.0250 -0.0153
v  -0.0000 -0.0114 -0.0272
v  0.0103 -0.0114 -0.0248
v  -0.0108 -0.0250 -0.0108
v  -0.0192 -0.0114 -0.0192
v  -0.0103 -0.0114 -0.0248
v  -0.0153 -0.0250 0.0000
v  -0.0272 -0.0114 0.0000
v  -0.0248 -0.0114 -0.0103
v  -0.0108 -0.0250 0.0108
v  -0.0192 -0.0114 0.0192
v  -0.0248 -0.0114 0.0103
v  -0.0000 -0.0250 0.0153
v  0.0000 -0.0114 0.0272
v  -0.0103 -0.0114 0.0248
v  0.0108 -0.0250 0.0108
v  0.0192 -0.0114 0.0192
v  0.0103 -0.0114 0.0248
v  -0.0000 -0.0297 0.0000
v  0.0249 0.0179 0.0103
v  0.0272 0.0179 0.0000
v  0.0203 0.0238 -0.0000
v  0.0249 0.0179 -0.0103
v  0.0193 0.0179 -0.0193
v  0.0143 0.0238 -0.0143
v  0.0103 0.0179 -0.0249
v  -0.0000 0.0179 -0.0272
v  -0.0000 0.0238 -0.0203
v  -0.0103 0.0179 -0.0249
v  -0.0193 0.0179 -0.0193
v  -0.0143 0.0238 -0.0143
v  -0.0249 0.0179 -0.0103
v  -0.0272 0.0179 0.0000
v  -0.0203 0.0238 -0.0000
v  -0.0249 0.0179 0.0103
v  -0.0193 0.0179 0.0193
v  -0.0143 0.0238 0.0143
v  -0.0103 0.0179 0.0249
v  0.0000 0.0179 0.0272
v  0.0000 0.0238 0.0203
v  0.0103 0.0179 0.0249
v  0.0193 0.0179 0.0192
v  0.0143 0.0238 0.0143
v  0.0272 0.0040 -0.0113
v  0.0297 0.0046 -0.0000
v  0.0113 0.0040 -0.0272
v  0.0210 0.0046 -0.0210
v  -0.0113 0.0040 -0.0272
v  -0.0000 0.0046 -0.0297
v  -0.0272 0.0040 -0.0113
v  -0.0210 0.0046 -0.0210
v  -0.0272 0.0040 0.0113
v  -0.0297 0.0046 0.0000
v  -0.0113 0.0040 0.0272
v  -0.0210 0.0046 0.0210
v  0.0113 0.0040 0.0272
v  -0.0000 0.0046 0.0297
v  0.0272 0.0040 0.0113
v  0.0210 0.0046 0.0210
v  0.0080 0.0195 -0.0080
v  0.0113 0.0195 -0.0000
v  -0.0000 0.0195 -0.0113
v  -0.0080 0.0195 -0.0080
v  -0.0113 0.0195 0.0000
v  -0.0080 0.0195 0.0080
v  0.0000 0.0195 0.0113
v  0.0080 0.0195 0.0080
v  0.0122 0.0014 -0.0122
v  0.0172 0.0014 -0.0000
v  -0.0000 0.0014 -0.0172
v  -0.0122 0.0014 -0.0122
v  -0.0172 0.0014 0.0000
v  -0.0122 0.0014 0.0122
v  0.0000 0.0014 0.0172
v  0.0122 0.0014 0.0122
v  0.0000 -0.0200 -0.0000
# 82 vertices

vn 0.5653 -0.8249 0.0001
vn 0.9112 -0.4120 0.0000
vn 0.8390 -0.4181 0.3481
vn 0.3997 -0.8249 -0.3997
vn 0.6443 -0.4120 -0.6443
vn 0.8391 -0.4182 -0.3478
vn 0.0000 -0.8249 -0.5653
vn 0.0000 -0.4120 -0.9112
vn 0.3476 -0.4181 -0.8392
vn -0.3997 -0.8249 -0.3997
vn -0.6443 -0.4120 -0.6443
vn -0.3476 -0.4181 -0.8392
vn -0.5653 -0.8249 0.0000
vn -0.9112 -0.4120 0.0000
vn -0.8393 -0.4181 -0.3476
vn -0.3997 -0.8249 0.3997
vn -0.6443 -0.4120 0.6443
vn -0.8393 -0.4181 0.3476
vn 0.0002 -0.8249 0.5653
vn 0.0000 -0.4120 0.9112
vn -0.3476 -0.4181 0.8392
vn 0.3998 -0.8249 0.3996
vn 0.6444 -0.4120 0.6442
vn 0.3480 -0.4181 0.8391
vn 0.0000 -1.0000 0.0000
vn 0.8006 0.4988 0.3321
vn 0.8765 0.4814 0.0000
vn 0.2277 0.9737 0.0000
vn 0.8007 0.4988 -0.3319
vn 0.6198 0.4814 -0.6198
vn 0.1611 0.9737 -0.1611
vn 0.3317 0.4987 -0.8008
vn 0.0000 0.4814 -0.8765
vn 0.0000 0.9737 -0.2278
vn -0.3317 0.4987 -0.8008
vn -0.6198 0.4814 -0.6198
vn -0.1610 0.9737 -0.1611
vn -0.8008 0.4987 -0.3317
vn -0.8765 0.4814 0.0000
vn -0.2278 0.9737 -0.0000
vn -0.8008 0.4987 0.3317
vn -0.6198 0.4814 0.6198
vn -0.1610 0.9737 0.1610
vn -0.3317 0.4987 0.8008
vn 0.0000 0.4814 0.8765
vn 0.0000 0.9737 0.2278
vn 0.3321 0.4987 0.8007
vn 0.6199 0.4814 0.6197
vn 0.1609 0.9738 0.1608
vn 0.9238 0.0065 -0.3828
vn 0.9998 0.0186 0.0000
vn 0.3827 0.0065 -0.9239
vn 0.7070 0.0186 -0.7070
vn -0.3827 0.0065 -0.9239
vn -0.0000 0.0186 -0.9998
vn -0.9239 0.0065 -0.3827
vn -0.7070 0.0186 -0.7070
vn -0.9239 0.0065 0.3827
vn -0.9998 0.0186 -0.0000
vn -0.3827 0.0065 0.9239
vn -0.7070 0.0186 0.7070
vn 0.3831 0.0065 0.9237
vn 0.0001 0.0186 0.9998
vn 0.9237 0.0065 0.3830
vn 0.7070 0.0186 0.7069
vn -0.6243 0.4697 0.6243
vn -0.8828 0.4697 -0.0000
vn 0.0000 0.4697 0.8828
vn 0.6243 0.4697 0.6243
vn 0.8828 0.4697 -0.0000
vn 0.6243 0.4697 -0.6243
vn -0.0000 0.4697 -0.8828
vn -0.6243 0.4696 -0.6243
vn -0.6977 0.1624 0.6977
vn -0.9867 0.1624 0.0000
vn 0.0000 0.1624 0.9867
vn 0.6977 0.1624 0.6977
vn 0.9867 0.1624 0.0000
vn 0.6977 0.1624 -0.6977
vn 0.0000 0.1624 -0.9867
vn -0.6977 0.1624 -0.6977
vn 0.0000 1.0000 0.0000
# 82 vertex normals

vt 0.9104 0.6977 0.2579
vt 0.9104 0.6797 0.4581
vt 0.9176 0.6797 0.4527
vt 0.8960 0.6977 0.2579
vt 0.8960 0.6797 0.4580
vt 0.9032 0.6797 0.4527
vt 0.8816 0.6977 0.2579
vt 0.8816 0.6797 0.4580
vt 0.8888 0.6797 0.4527
vt 0.9823 0.6977 0.2579
vt 0.9823 0.6797 0.4580
vt 0.9895 0.6797 0.4527
vt 0.9679 0.6977 0.2579
vt 0.9679 0.6797 0.4580
vt 0.9751 0.6797 0.4527
vt 0.9535 0.6977 0.2579
vt 0.9535 0.6797 0.4580
vt 0.9607 0.6797 0.4527
vt 0.9391 0.6977 0.2579
vt 0.9391 0.6797 0.4580
vt 0.9463 0.6797 0.4527
vt 0.9247 0.6977 0.2577
vt 0.9247 0.6797 0.4579
vt 0.9319 0.6797 0.4527
vt 0.9368 0.7400 0.0000
vt 0.9472 0.7295 0.0000
vt 0.9294 0.7221 0.0000
vt 0.9472 0.7147 0.0000
vt 0.9368 0.7042 0.0000
vt 0.9220 0.7042 0.0000
vt 0.9115 0.7147 0.0000
vt 0.9115 0.7295 0.0000
vt 0.9220 0.7400 0.0000
vt 0.9176 0.6472 0.4532
vt 0.9104 0.6472 0.4587
vt 0.9104 0.6394 0.3415
vt 0.9032 0.6472 0.4532
vt 0.8960 0.6472 0.4586
vt 0.8960 0.6394 0.3415
vt 0.8888 0.6472 0.4532
vt 0.8816 0.6472 0.4586
vt 0.8816 0.6394 0.3415
vt 0.9895 0.6472 0.4532
vt 0.9823 0.6472 0.4586
vt 0.9823 0.6394 0.3415
vt 0.9751 0.6472 0.4532
vt 0.9679 0.6472 0.4586
vt 0.9679 0.6394 0.3415
vt 0.9607 0.6472 0.4532
vt 0.9535 0.6472 0.4586
vt 0.9535 0.6394 0.3415
vt 0.9463 0.6472 0.4532
vt 0.9391 0.6472 0.4586
vt 0.9391 0.6394 0.3415
vt 0.9319 0.6472 0.4532
vt 0.9247 0.6472 0.4584
vt 0.9247 0.6394 0.3414
vt 0.9032 0.6632 0.4959
vt 0.9104 0.6625 0.5000
vt 0.8888 0.6632 0.4959
vt 0.8960 0.6625 0.5000
vt 0.9967 0.6797 0.4580
vt 0.9895 0.6632 0.4959
vt 0.9967 0.6625 0.5000
vt 0.9751 0.6632 0.4959
vt 0.9823 0.6625 0.5000
vt 0.9607 0.6632 0.4959
vt 0.9679 0.6625 0.5000
vt 0.9463 0.6632 0.4959
vt 0.9535 0.6625 0.5000
vt 0.9319 0.6632 0.4958
vt 0.9391 0.6625 0.5000
vt 0.9176 0.6632 0.4958
vt 0.9247 0.6625 0.4999
vt 0.8960 0.6300 0.1901
vt 0.9104 0.6300 0.1901
vt 0.8816 0.6300 0.1901
vt 0.9967 0.6394 0.3415
vt 0.9823 0.6300 0.1901
vt 0.9967 0.6300 0.1901
vt 0.9679 0.6300 0.1901
vt 0.9535 0.6300 0.1901
vt 0.9391 0.6300 0.1901
vt 0.9248 0.6300 0.1901
vt 0.9942 0.7155 0.0000
vt 0.9942 0.7317 0.0000
vt 0.9857 0.7282 0.0000
vt 0.9857 0.7190 0.0000
vt 0.9827 0.7432 0.0000
vt 0.9792 0.7347 0.0000
vt 0.9664 0.7432 0.0000
vt 0.9699 0.7347 0.0000
vt 0.9549 0.7317 0.0000
vt 0.9634 0.7282 0.0000
vt 0.9549 0.7155 0.0000
vt 0.9634 0.7190 0.0000
vt 0.9664 0.7040 0.0000
vt 0.9699 0.7125 0.0000
vt 0.9827 0.7040 0.0000
vt 0.9791 0.7125 0.0000
vt 0.9746 0.7236 0.0000
vt 0.8816 0.6625 0.5000
vt 0.9967 0.6977 0.2579
vt 0.9967 0.6472 0.4586
# 104 texture coords

g SweetPack_Raspberry
s 1
f -82/-104/-82 -81/-103/-81 -80/-102/-80 
f -79/-101/-79 -78/-100/-78 -77/-99/-77 
f -76/-98/-76 -75/-97/-75 -74/-96/-74 
f -73/-95/-73 -72/-94/-72 -71/-93/-71 
f -70/-92/-70 -69/-91/-69 -68/-90/-68 
f -67/-89/-67 -66/-88/-66 -65/-87/-65 
f -64/-86/-64 -63/-85/-63 -62/-84/-62 
f -61/-83/-61 -60/-82/-60 -59/-81/-59 
f -79/-80/-79 -82/-79/-82 -58/-78/-58 
f -82/-79/-82 -61/-77/-61 -58/-78/-58 
f -61/-77/-61 -64/-76/-64 -58/-78/-58 
f -64/-76/-64 -67/-75/-67 -58/-78/-58 
f -67/-75/-67 -70/-74/-70 -58/-78/-58 
f -70/-74/-70 -73/-73/-73 -58/-78/-58 
f -73/-73/-73 -76/-72/-76 -58/-78/-58 
f -76/-72/-76 -79/-80/-79 -58/-78/-58 
f -57/-71/-57 -56/-70/-56 -55/-69/-55 
f -54/-68/-54 -53/-67/-53 -52/-66/-52 
f -51/-65/-51 -50/-64/-50 -49/-63/-49 
f -48/-62/-48 -47/-61/-47 -46/-60/-46 
f -45/-59/-45 -44/-58/-44 -43/-57/-43 
f -42/-56/-42 -41/-55/-41 -40/-54/-40 
f -39/-53/-39 -38/-52/-38 -37/-51/-37 
f -36/-50/-36 -35/-49/-35 -34/-48/-34 
f -81/-103/-81 -77/-99/-77 -33/-47/-33 -32/-46/-32 
f -78/-100/-78 -74/-96/-74 -31/-45/-31 -30/-44/-30 
f -75/-43/-75 -71/-93/-71 -29/-42/-29 -28/-41/-28 
f -72/-94/-72 -68/-90/-68 -27/-40/-27 -26/-39/-26 
f -69/-91/-69 -65/-87/-65 -25/-38/-25 -24/-37/-24 
f -66/-88/-66 -62/-84/-62 -23/-36/-23 -22/-35/-22 
f -63/-85/-63 -59/-81/-59 -21/-34/-21 -20/-33/-20 
f -60/-82/-60 -80/-102/-80 -19/-32/-19 -18/-31/-18 
f -55/-69/-55 -52/-66/-52 -17/-30/-17 -16/-29/-16 
f -52/-66/-52 -49/-63/-49 -15/-28/-15 -17/-30/-17 
f -49/-27/-49 -46/-60/-46 -14/-26/-14 -15/-25/-15 
f -46/-60/-46 -43/-57/-43 -13/-24/-13 -14/-26/-14 
f -43/-57/-43 -40/-54/-40 -12/-23/-12 -13/-24/-13 
f -40/-54/-40 -37/-51/-37 -11/-22/-11 -12/-23/-12 
f -37/-51/-37 -34/-48/-34 -10/-21/-10 -11/-22/-11 
f -34/-48/-34 -55/-69/-55 -16/-29/-16 -10/-21/-10 
f -16/-20/-16 -17/-19/-17 -9/-18/-9 -8/-17/-8 
f -17/-19/-17 -15/-16/-15 -7/-15/-7 -9/-18/-9 
f -15/-16/-15 -14/-14/-14 -6/-13/-6 -7/-15/-7 
f -14/-14/-14 -13/-12/-13 -5/-11/-5 -6/-13/-6 
f -13/-12/-13 -12/-10/-12 -4/-9/-4 -5/-11/-5 
f -12/-10/-12 -11/-8/-11 -3/-7/-3 -4/-9/-4 
f -11/-8/-11 -10/-6/-10 -2/-5/-2 -3/-7/-3 
f -10/-6/-10 -16/-20/-16 -8/-17/-8 -2/-5/-2 
f -8/-17/-8 -9/-18/-9 -1/-4/-1 
f -9/-18/-9 -7/-15/-7 -1/-4/-1 
f -7/-15/-7 -6/-13/-6 -1/-4/-1 
f -6/-13/-6 -5/-11/-5 -1/-4/-1 
f -5/-11/-5 -4/-9/-4 -1/-4/-1 
f -4/-9/-4 -3/-7/-3 -1/-4/-1 
f -3/-7/-3 -2/-5/-2 -1/-4/-1 
f -2/-5/-2 -8/-17/-8 -1/-4/-1 
f -42/-56/-42 -40/-54/-40 -43/-57/-43 
f -39/-53/-39 -37/-51/-37 -40/-54/-40 
f -36/-50/-36 -34/-48/-34 -37/-51/-37 
f -45/-59/-45 -43/-57/-43 -46/-60/-46 
f -48/-62/-48 -46/-60/-46 -49/-27/-49 
f -51/-65/-51 -49/-63/-49 -52/-66/-52 
f -54/-68/-54 -52/-66/-52 -55/-69/-55 
f -57/-71/-57 -55/-69/-55 -34/-48/-34 
f -47/-61/-47 -48/-62/-48 -29/-42/-29 -26/-39/-26 
f -50/-64/-50 -51/-65/-51 -31/-45/-31 -28/-3/-28 
f -53/-67/-53 -54/-68/-54 -33/-47/-33 -30/-44/-30 
f -56/-70/-56 -57/-71/-57 -19/-32/-19 -32/-46/-32 
f -35/-49/-35 -36/-50/-36 -21/-34/-21 -18/-31/-18 
f -38/-52/-38 -39/-53/-39 -23/-36/-23 -20/-33/-20 
f -41/-55/-41 -42/-56/-42 -25/-38/-25 -22/-35/-22 
f -44/-58/-44 -45/-59/-45 -27/-40/-27 -24/-37/-24 
f -82/-104/-82 -79/-101/-79 -77/-99/-77 
f -76/-2/-76 -73/-95/-73 -71/-93/-71 
f -70/-92/-70 -67/-89/-67 -65/-87/-65 
f -64/-86/-64 -61/-83/-61 -59/-81/-59 
f -79/-101/-79 -76/-98/-76 -74/-96/-74 
f -73/-95/-73 -70/-92/-70 -68/-90/-68 
f -61/-83/-61 -82/-104/-82 -80/-102/-80 
f -67/-89/-67 -64/-86/-64 -62/-84/-62 
f -70/-92/-70 -65/-87/-65 -69/-91/-69 
f -44/-58/-44 -42/-56/-42 -43/-57/-43 
f -69/-91/-69 -24/-37/-24 -27/-40/-27 -68/-90/-68 
f -44/-58/-44 -24/-37/-24 -25/-38/-25 -42/-56/-42 
f -67/-89/-67 -62/-84/-62 -66/-88/-66 
f -41/-55/-41 -39/-53/-39 -40/-54/-40 
f -66/-88/-66 -22/-35/-22 -25/-38/-25 -65/-87/-65 
f -41/-55/-41 -22/-35/-22 -23/-36/-23 -39/-53/-39 
f -61/-83/-61 -80/-102/-80 -60/-82/-60 
f -35/-49/-35 -57/-71/-57 -34/-48/-34 
f -60/-82/-60 -18/-31/-18 -21/-34/-21 -59/-81/-59 
f -35/-49/-35 -18/-31/-18 -19/-32/-19 -57/-71/-57 
f -64/-86/-64 -59/-81/-59 -63/-85/-63 
f -38/-52/-38 -36/-50/-36 -37/-51/-37 
f -38/-52/-38 -20/-33/-20 -21/-34/-21 -36/-50/-36 
f -63/-85/-63 -20/-33/-20 -23/-36/-23 -62/-84/-62 
f -82/-104/-82 -77/-99/-77 -81/-103/-81 
f -56/-70/-56 -54/-68/-54 -55/-69/-55 
f -56/-70/-56 -32/-46/-32 -33/-47/-33 -54/-68/-54 
f -81/-103/-81 -32/-46/-32 -19/-32/-19 -80/-102/-80 
f -79/-101/-79 -74/-96/-74 -78/-100/-78 
f -53/-67/-53 -51/-65/-51 -52/-66/-52 
f -78/-100/-78 -30/-44/-30 -33/-47/-33 -77/-99/-77 
f -53/-67/-53 -30/-44/-30 -31/-45/-31 -51/-65/-51 
f -76/-2/-76 -71/-93/-71 -75/-43/-75 
f -50/-1/-50 -48/-62/-48 -49/-27/-49 
f -73/-95/-73 -68/-90/-68 -72/-94/-72 
f -47/-61/-47 -45/-59/-45 -46/-60/-46 
f -47/-61/-47 -26/-39/-26 -27/-40/-27 -45/-59/-45 
f -72/-94/-72 -26/-39/-26 -29/-42/-29 -71/-93/-71 
f -50/-1/-50 -28/-41/-28 -29/-42/-29 -48/-62/-48 
f -75/-97/-75 -28/-3/-28 -31/-45/-31 -74/-96/-74 
# 48 polygons - 64 triangles

