# 3ds Max Wavefront OBJ Exporter v0.97b - (c)2007 guruware
# File Created: 19.11.2013 20:05:04

#
# object SweetPack_CakeRoll_Slice
#

v  -0.0304 0.1231 0.0231
v  0.0000 0.1277 0.0231
v  0.0000 0.1277 0.0046
v  -0.0304 0.1231 0.0046
v  -0.0785 0.0900 0.0231
v  -0.0574 0.1110 0.0231
v  -0.0574 0.1110 0.0046
v  -0.0785 0.0900 0.0046
v  -0.0950 0.0364 0.0231
v  -0.0922 0.0629 0.0231
v  -0.0922 0.0629 0.0046
v  -0.0950 0.0364 0.0046
v  0.0000 0.0000 0.0231
v  -0.0761 0.0000 0.0231
v  -0.0761 0.0000 0.0046
v  0.0000 0.0000 0.0046
v  -0.0904 0.0140 0.0231
v  -0.0904 0.0140 0.0046
v  -0.0293 0.1192 0.0000
v  0.0000 0.1238 0.0000
v  -0.0293 0.1192 0.0461
v  -0.0304 0.1231 0.0415
v  -0.0574 0.1110 0.0415
v  -0.0554 0.1074 0.0461
v  -0.0752 0.0873 0.0000
v  -0.0554 0.1074 0.0000
v  -0.0752 0.0873 0.0461
v  -0.0785 0.0900 0.0415
v  -0.0922 0.0629 0.0415
v  -0.0882 0.0613 0.0461
v  -0.0905 0.0365 0.0000
v  -0.0882 0.0613 0.0000
v  -0.0863 0.0162 0.0461
v  -0.0904 0.0140 0.0415
v  -0.0761 0.0000 0.0415
v  -0.0733 0.0039 0.0461
v  -0.0733 0.0039 0.0000
v  0.0000 0.0039 0.0000
v  -0.0863 0.0162 0.0000
v  -0.0950 0.0364 0.0415
v  -0.0905 0.0365 0.0461
v  0.0000 0.1238 0.0461
v  0.0000 0.1277 0.0415
v  0.0000 0.0000 0.0415
v  0.0000 0.0039 0.0461
v  0.0304 0.1231 0.0231
v  0.0304 0.1231 0.0046
v  0.0574 0.1110 0.0046
v  0.0574 0.1110 0.0231
v  0.0785 0.0900 0.0231
v  0.0785 0.0900 0.0046
v  0.0922 0.0629 0.0046
v  0.0922 0.0629 0.0231
v  0.0950 0.0364 0.0231
v  0.0950 0.0364 0.0046
v  0.0761 0.0000 0.0046
v  0.0761 0.0000 0.0231
v  0.0904 0.0140 0.0231
v  0.0904 0.0140 0.0046
v  0.0293 0.1192 0.0000
v  0.0293 0.1192 0.0461
v  0.0554 0.1074 0.0461
v  0.0574 0.1110 0.0415
v  0.0304 0.1231 0.0415
v  0.0752 0.0873 -0.0000
v  0.0554 0.1074 -0.0000
v  0.0752 0.0873 0.0461
v  0.0882 0.0613 0.0461
v  0.0922 0.0629 0.0415
v  0.0785 0.0900 0.0415
v  0.0905 0.0365 -0.0000
v  0.0882 0.0613 -0.0000
v  0.0863 0.0162 0.0461
v  0.0733 0.0039 0.0461
v  0.0761 0.0000 0.0415
v  0.0904 0.0140 0.0415
v  0.0733 0.0039 -0.0000
v  0.0863 0.0162 -0.0000
v  0.0905 0.0365 0.0461
v  0.0950 0.0364 0.0415
# 80 vertices

vn -0.2820 0.9594 0.0000
vn -0.0000 1.0000 -0.0000
vn -0.0000 0.9418 -0.3362
vn -0.2652 0.9011 -0.3430
vn -0.8089 0.5879 0.0000
vn -0.5671 0.8236 0.0000
vn -0.5320 0.7736 -0.3442
vn -0.7552 0.5502 -0.3562
vn -0.9988 -0.0482 0.0000
vn -0.9589 0.2836 0.0000
vn -0.8960 0.2655 -0.3558
vn -0.9287 -0.0442 -0.3682
vn -0.0000 -1.0000 -0.0000
vn -0.3781 -0.9258 0.0000
vn -0.3634 -0.8593 -0.3601
vn -0.0000 -0.9381 -0.3465
vn -0.8779 -0.4789 0.0000
vn -0.8166 -0.4472 -0.3649
vn -0.1260 0.4238 -0.8969
vn -0.0000 0.4518 -0.8921
vn -0.1259 0.4230 0.8973
vn -0.2654 0.9014 0.3421
vn -0.5314 0.7748 0.3426
vn -0.2570 0.3652 0.8948
vn -0.3505 0.2505 -0.9024
vn -0.2596 0.3654 -0.8939
vn -0.3502 0.2483 0.9032
vn -0.7566 0.5495 0.3545
vn -0.8963 0.2670 0.3541
vn -0.4176 0.1185 0.9009
vn -0.4157 -0.0218 -0.9092
vn -0.4201 0.1168 -0.8999
vn -0.3818 -0.2110 0.8998
vn -0.8183 -0.4456 0.3630
vn -0.3616 -0.8609 0.3579
vn -0.1436 -0.4304 0.8911
vn -0.1477 -0.4302 -0.8906
vn -0.0000 -0.4183 -0.9083
vn -0.3816 -0.2156 -0.8988
vn -0.9292 -0.0461 0.3666
vn -0.4142 -0.0242 0.9099
vn 0.0000 0.4509 0.8926
vn 0.0000 0.9421 0.3352
vn 0.0000 -0.9381 0.3465
vn 0.0000 -0.4183 0.9083
vn 0.2820 0.9594 -0.0000
vn 0.2652 0.9011 -0.3430
vn 0.5320 0.7736 -0.3442
vn 0.5671 0.8236 -0.0000
vn 0.8089 0.5879 -0.0000
vn 0.7552 0.5502 -0.3562
vn 0.8960 0.2655 -0.3558
vn 0.9589 0.2836 -0.0000
vn 0.9988 -0.0482 -0.0000
vn 0.9287 -0.0442 -0.3682
vn 0.3634 -0.8593 -0.3601
vn 0.3781 -0.9258 -0.0000
vn 0.8779 -0.4789 -0.0000
vn 0.8166 -0.4472 -0.3649
vn 0.1260 0.4238 -0.8969
vn 0.1259 0.4230 0.8973
vn 0.2570 0.3652 0.8948
vn 0.5314 0.7748 0.3426
vn 0.2654 0.9014 0.3421
vn 0.3505 0.2505 -0.9024
vn 0.2596 0.3654 -0.8939
vn 0.3502 0.2483 0.9032
vn 0.4176 0.1185 0.9009
vn 0.8963 0.2670 0.3541
vn 0.7566 0.5495 0.3545
vn 0.4157 -0.0218 -0.9092
vn 0.4201 0.1168 -0.8999
vn 0.3818 -0.2110 0.8998
vn 0.1436 -0.4304 0.8911
vn 0.3616 -0.8609 0.3579
vn 0.8183 -0.4456 0.3630
vn 0.1477 -0.4302 -0.8906
vn 0.3816 -0.2156 -0.8988
vn 0.4142 -0.0242 0.9099
vn 0.9292 -0.0461 0.3666
# 80 vertex normals

vt 1.7326 0.5124 0.0000
vt 1.7427 0.5124 0.0000
vt 1.7427 0.5055 0.0000
vt 1.7326 0.5055 0.0000
vt 1.7137 0.5124 0.0000
vt 1.7233 0.5124 0.0000
vt 1.7233 0.5055 0.0000
vt 1.7137 0.5055 0.0000
vt 1.6950 0.5124 0.0000
vt 1.7042 0.5124 0.0000
vt 1.7042 0.5055 0.0000
vt 1.6950 0.5055 0.0000
vt 1.6562 0.5124 1.0000
vt 1.6810 0.5124 0.5351
vt 1.6810 0.5055 0.5703
vt 1.6562 0.5055 1.0000
vt 1.6877 0.5124 0.0000
vt 1.6877 0.5055 0.0000
vt 1.6728 0.6150 0.0000
vt 1.6733 0.6167 0.0000
vt 1.6633 0.6182 0.0000
vt 1.6633 0.6165 0.0000
vt 0.6537 0.6150 0.0000
vt 0.6533 0.6167 0.0000
vt 0.6448 0.6127 0.0000
vt 0.6456 0.6112 0.0000
vt 1.6874 0.6049 0.0000
vt 1.6888 0.6060 0.0000
vt 1.6818 0.6127 0.0000
vt 1.6809 0.6112 0.0000
vt 0.6391 0.6049 0.0000
vt 0.6378 0.6060 0.0000
vt 0.6334 0.5976 0.0000
vt 0.6350 0.5969 0.0000
vt 1.6927 0.5884 0.0000
vt 1.6946 0.5884 0.0000
vt 1.6932 0.5976 0.0000
vt 1.6915 0.5969 0.0000
vt 0.6352 0.5821 0.0000
vt 0.6335 0.5812 0.0000
vt 0.6383 0.5761 0.0000
vt 0.6394 0.5778 0.0000
vt 1.6633 0.5761 0.0000
vt 1.6882 0.5761 0.0000
vt 1.6872 0.5778 0.0000
vt 1.6633 0.5778 0.0000
vt 1.6914 0.5821 0.0000
vt 1.6930 0.5812 0.0000
vt 0.6320 0.5884 0.0000
vt 0.6338 0.5884 0.0000
vt 0.6633 0.6165 0.0000
vt 0.6633 0.6182 0.0000
vt 0.6633 0.5761 0.0000
vt 0.6633 0.5778 0.0000
vt 1.6313 0.5055 0.5000
vt 1.6313 0.5124 0.5000
vt 1.6810 0.5124 0.5000
vt 1.6810 0.5055 0.5000
vt 1.6537 0.6150 0.0000
vt 1.6533 0.6167 0.0000
vt 0.6728 0.6150 0.0000
vt 0.6809 0.6112 0.0000
vt 0.6818 0.6127 0.0000
vt 0.6733 0.6167 0.0000
vt 1.6391 0.6049 0.0000
vt 1.6456 0.6112 0.0000
vt 1.6448 0.6127 0.0000
vt 1.6378 0.6060 0.0000
vt 0.6874 0.6049 0.0000
vt 0.6915 0.5969 0.0000
vt 0.6932 0.5976 0.0000
vt 0.6888 0.6060 0.0000
vt 1.6338 0.5884 0.0000
vt 1.6350 0.5969 0.0000
vt 1.6334 0.5976 0.0000
vt 1.6320 0.5884 0.0000
vt 0.6914 0.5821 0.0000
vt 0.6872 0.5778 0.0000
vt 0.6882 0.5761 0.0000
vt 0.6930 0.5812 0.0000
vt 1.6394 0.5778 0.0000
vt 1.6383 0.5761 0.0000
vt 1.6352 0.5821 0.0000
vt 1.6335 0.5812 0.0000
vt 0.6927 0.5884 0.0000
vt 0.6946 0.5884 0.0000
vt 0.7326 0.5055 0.0000
vt 0.7427 0.5055 0.0000
vt 0.7427 0.5124 0.0000
vt 0.7326 0.5124 0.0000
vt 0.7137 0.5055 0.0000
vt 0.7233 0.5055 0.0000
vt 0.7233 0.5124 0.0000
vt 0.7137 0.5124 0.0000
vt 0.6950 0.5055 0.0000
vt 0.7042 0.5055 0.0000
vt 0.7042 0.5124 0.0000
vt 0.6950 0.5124 0.0000
vt 0.6562 0.5055 1.0000
vt 0.6810 0.5055 0.5000
vt 0.6810 0.5124 0.5351
vt 0.6562 0.5124 1.0000
vt 0.6877 0.5055 0.0000
vt 0.6877 0.5124 0.0000
vt 0.6313 0.5055 0.5000
vt 0.6313 0.5124 0.5000
vt 0.6810 0.5124 0.5000
# 107 texture coords

g SweetPack_CakeRoll_Slice
s 1
f -80/-107/-80 -79/-106/-79 -78/-105/-78 -77/-104/-77 
f -76/-103/-76 -75/-102/-75 -74/-101/-74 -73/-100/-73 
f -72/-99/-72 -71/-98/-71 -70/-97/-70 -69/-96/-69 
f -68/-95/-68 -67/-94/-67 -66/-93/-66 -65/-92/-65 
f -64/-91/-64 -72/-99/-72 -69/-96/-69 -63/-90/-63 
f -71/-98/-71 -76/-103/-76 -73/-100/-73 -70/-97/-70 
f -75/-102/-75 -80/-107/-80 -77/-104/-77 -74/-101/-74 
f -67/-94/-67 -64/-91/-64 -63/-90/-63 -66/-93/-66 
f -62/-89/-62 -77/-88/-77 -78/-87/-78 -61/-86/-61 
f -60/-85/-60 -59/-84/-59 -58/-83/-58 -57/-82/-57 
f -56/-81/-56 -73/-80/-73 -74/-79/-74 -55/-78/-55 
f -54/-77/-54 -53/-76/-53 -52/-75/-52 -51/-74/-51 
f -50/-73/-50 -69/-72/-69 -70/-71/-70 -49/-70/-49 
f -48/-69/-48 -47/-68/-47 -46/-67/-46 -45/-66/-45 
f -65/-65/-65 -66/-64/-66 -44/-63/-44 -43/-62/-43 
f -42/-61/-42 -63/-60/-63 -69/-72/-69 -50/-73/-50 
f -51/-74/-51 -52/-75/-52 -41/-59/-41 -40/-58/-40 
f -49/-70/-49 -70/-71/-70 -73/-80/-73 -56/-81/-56 
f -57/-82/-57 -58/-83/-58 -53/-76/-53 -54/-77/-54 
f -55/-78/-55 -74/-79/-74 -77/-88/-77 -62/-89/-62 
f -39/-57/-39 -38/-56/-38 -59/-84/-59 -60/-85/-60 
f -40/-58/-40 -41/-59/-41 -47/-68/-47 -48/-69/-48 
f -44/-63/-44 -66/-64/-66 -63/-60/-63 -42/-61/-42 
f -37/-55/-37 -36/-54/-36 -45/-66/-45 -46/-67/-46 
f -39/-57/-39 -60/-85/-60 -36/-54/-36 
f -60/-85/-60 -57/-82/-57 -36/-54/-36 
f -57/-82/-57 -54/-77/-54 -36/-54/-36 
f -51/-74/-51 -40/-58/-40 -36/-54/-36 
f -54/-77/-54 -51/-74/-51 -36/-54/-36 
f -40/-58/-40 -48/-69/-48 -36/-54/-36 
f -43/-62/-43 -55/-78/-55 -62/-89/-62 
f -43/-62/-43 -56/-81/-56 -55/-78/-55 
f -43/-62/-43 -49/-70/-49 -56/-81/-56 
f -43/-62/-43 -50/-73/-50 -49/-70/-49 
f -43/-62/-43 -42/-61/-42 -50/-73/-50 
f -43/-62/-43 -62/-89/-62 -61/-86/-61 
f -43/-62/-43 -44/-63/-44 -42/-61/-42 
f -48/-69/-48 -45/-66/-45 -36/-54/-36 
f -78/-105/-78 -79/-106/-79 -35/-107/-35 -34/-104/-34 
f -33/-101/-33 -32/-102/-32 -31/-103/-31 -30/-100/-30 
f -29/-97/-29 -28/-98/-28 -27/-99/-27 -26/-96/-26 
f -25/-53/-25 -24/-52/-24 -68/-95/-68 -65/-92/-65 
f -26/-96/-26 -27/-99/-27 -23/-91/-23 -22/-90/-22 
f -30/-100/-30 -31/-103/-31 -28/-98/-28 -29/-97/-29 
f -34/-104/-34 -35/-107/-35 -32/-102/-32 -33/-101/-33 
f -22/-90/-22 -23/-91/-23 -24/-51/-24 -25/-50/-25 
f -21/-49/-21 -61/-86/-61 -78/-87/-78 -34/-48/-34 
f -20/-47/-20 -19/-46/-19 -18/-45/-18 -17/-44/-17 
f -16/-43/-16 -15/-42/-15 -33/-41/-33 -30/-40/-30 
f -14/-39/-14 -13/-38/-13 -12/-37/-12 -11/-36/-11 
f -10/-35/-10 -9/-34/-9 -29/-33/-29 -26/-32/-26 
f -8/-31/-8 -7/-30/-7 -6/-29/-6 -5/-28/-5 
f -65/-65/-65 -43/-62/-43 -4/-27/-4 -25/-26/-25 
f -3/-25/-3 -10/-35/-10 -26/-32/-26 -22/-24/-22 
f -13/-38/-13 -2/-23/-2 -1/-22/-1 -12/-37/-12 
f -9/-34/-9 -16/-43/-16 -30/-40/-30 -29/-33/-29 
f -19/-46/-19 -14/-39/-14 -11/-36/-11 -18/-45/-18 
f -15/-42/-15 -21/-49/-21 -34/-48/-34 -33/-41/-33 
f -39/-57/-39 -20/-47/-20 -17/-44/-17 -38/-56/-38 
f -2/-23/-2 -8/-31/-8 -5/-28/-5 -1/-22/-1 
f -4/-27/-4 -3/-25/-3 -22/-24/-22 -25/-26/-25 
f -37/-55/-37 -6/-29/-6 -7/-30/-7 -36/-54/-36 
f -39/-57/-39 -36/-54/-36 -20/-47/-20 
f -20/-47/-20 -36/-54/-36 -19/-46/-19 
f -19/-46/-19 -36/-54/-36 -14/-39/-14 
f -13/-38/-13 -36/-54/-36 -2/-23/-2 
f -14/-39/-14 -36/-54/-36 -13/-38/-13 
f -2/-23/-2 -36/-54/-36 -8/-31/-8 
f -43/-62/-43 -21/-49/-21 -15/-42/-15 
f -43/-62/-43 -15/-42/-15 -16/-43/-16 
f -43/-62/-43 -16/-43/-16 -9/-34/-9 
f -43/-62/-43 -9/-34/-9 -10/-35/-10 
f -43/-62/-43 -10/-35/-10 -3/-25/-3 
f -43/-62/-43 -61/-86/-61 -21/-49/-21 
f -43/-62/-43 -3/-25/-3 -4/-27/-4 
f -8/-31/-8 -36/-54/-36 -7/-30/-7 
f -59/-21/-59 -38/-20/-38 -79/-19/-79 -80/-18/-80 
f -53/-17/-53 -58/-16/-58 -75/-15/-75 -76/-14/-76 
f -41/-13/-41 -52/-12/-52 -71/-11/-71 -72/-10/-72 
f -37/-9/-37 -46/-8/-46 -67/-7/-67 -68/-6/-68 
f -47/-5/-47 -41/-13/-41 -72/-10/-72 -64/-4/-64 
f -52/-12/-52 -53/-17/-53 -76/-14/-76 -71/-11/-71 
f -58/-16/-58 -59/-21/-59 -80/-18/-80 -75/-15/-75 
f -46/-8/-46 -47/-5/-47 -64/-4/-64 -67/-7/-67 
f -38/-20/-38 -17/-21/-17 -35/-18/-35 -79/-19/-79 
f -18/-16/-18 -11/-17/-11 -31/-14/-31 -32/-15/-32 
f -12/-12/-12 -1/-13/-1 -27/-10/-27 -28/-11/-28 
f -6/-3/-6 -37/-9/-37 -68/-6/-68 -24/-2/-24 
f -1/-13/-1 -5/-5/-5 -23/-4/-23 -27/-10/-27 
f -11/-17/-11 -12/-12/-12 -28/-11/-28 -31/-14/-31 
f -17/-21/-17 -18/-16/-18 -32/-15/-32 -35/-18/-35 
f -5/-5/-5 -6/-8/-6 -24/-1/-24 -23/-4/-23 
# 64 polygons - 28 triangles

