# 3ds Max Wavefront OBJ Exporter v0.97b - (c)2007 guruware
# File Created: 19.11.2013 20:05:01

#
# object SweetPack_Candy_Wrapped_Long
#

v  0.0115 -0.0115 0.0592
v  0.0018 -0.0000 0.0740
v  0.0000 -0.0018 0.0740
v  0.0115 0.0115 0.0592
v  0.0000 0.0018 0.0740
v  -0.0115 0.0115 0.0592
v  -0.0018 -0.0000 0.0740
v  -0.0115 -0.0115 0.0592
v  0.0163 0.0000 0.0592
v  0.0000 0.0163 0.0592
v  -0.0163 0.0000 0.0592
v  0.0000 -0.0163 0.0592
v  0.0115 -0.0115 -0.0000
v  0.0163 0.0000 -0.0000
v  0.0115 0.0115 -0.0000
v  0.0000 0.0163 -0.0000
v  -0.0115 0.0115 -0.0000
v  -0.0163 -0.0000 -0.0000
v  -0.0115 -0.0115 -0.0000
v  0.0000 -0.0163 -0.0000
v  0.0058 -0.0039 0.0914
v  0.0000 -0.0115 0.0914
v  0.0071 0.0061 0.0914
v  0.0129 -0.0003 0.0914
v  -0.0073 0.0045 0.0914
v  0.0000 0.0077 0.0914
v  -0.0087 -0.0068 0.0914
v  -0.0115 -0.0000 0.0914
v  0.0115 -0.0115 -0.0592
v  0.0000 -0.0018 -0.0740
v  0.0018 -0.0000 -0.0740
v  0.0115 0.0115 -0.0592
v  0.0000 0.0018 -0.0740
v  -0.0115 0.0115 -0.0592
v  -0.0018 -0.0000 -0.0740
v  -0.0115 -0.0115 -0.0592
v  0.0163 0.0000 -0.0592
v  0.0000 0.0163 -0.0592
v  -0.0163 0.0000 -0.0592
v  0.0000 -0.0163 -0.0592
v  0.0000 -0.0115 -0.0914
v  0.0081 -0.0073 -0.0914
v  0.0119 -0.0003 -0.0914
v  0.0061 0.0045 -0.0914
v  0.0021 0.0086 -0.0914
v  -0.0073 0.0059 -0.0914
v  -0.0132 -0.0004 -0.0914
v  -0.0057 -0.0044 -0.0914
v  0.0000 -0.0000 0.0740
v  -0.0000 -0.0000 -0.0740
# 50 vertices

vn 0.6626 -0.6626 0.3493
vn 0.9521 -0.0282 0.3045
vn 0.0462 -0.9572 0.2857
vn 0.6626 0.6626 0.3493
vn -0.0104 0.9525 0.3043
vn -0.6626 0.6626 0.3493
vn -0.9657 0.0298 0.2580
vn -0.6626 -0.6626 0.3493
vn 0.9371 0.0000 0.3490
vn -0.0000 0.9371 0.3490
vn -0.9371 -0.0000 0.3490
vn 0.0000 -0.9371 0.3490
vn 0.7071 -0.7071 -0.0000
vn 1.0000 0.0000 -0.0000
vn 0.7071 0.7071 0.0000
vn -0.0000 1.0000 -0.0000
vn -0.7071 0.7071 -0.0000
vn -1.0000 -0.0000 0.0000
vn -0.7071 -0.7071 -0.0000
vn 0.0000 -1.0000 0.0000
vn 0.6013 -0.7365 -0.3098
vn 0.1568 -0.8619 -0.4823
vn 0.4913 0.7799 -0.3877
vn 0.8355 -0.1261 -0.5348
vn -0.5612 0.7495 -0.3511
vn -0.0804 0.9434 -0.3217
vn -0.6573 -0.5879 -0.4715
vn -0.8650 0.1323 -0.4840
vn 0.6626 -0.6626 -0.3493
vn -0.0424 -0.9591 -0.2798
vn 0.9610 0.0400 -0.2736
vn 0.6626 0.6626 -0.3493
vn 0.0197 0.9504 -0.3103
vn -0.6626 0.6626 -0.3493
vn -0.9548 -0.0249 -0.2963
vn -0.6626 -0.6626 -0.3493
vn 0.9371 0.0000 -0.3490
vn -0.0000 0.9371 -0.3490
vn -0.9371 -0.0000 -0.3490
vn 0.0000 -0.9371 -0.3490
vn -0.1535 -0.8623 0.4825
vn 0.6221 -0.6263 0.4699
vn 0.8573 0.1394 0.4956
vn 0.6382 0.6928 0.3358
vn 0.2440 0.8923 0.3797
vn -0.5053 0.7692 0.3911
vn -0.8300 -0.1145 0.5459
vn -0.5989 -0.7312 0.3267
vn -0.5877 0.7270 0.3551
vn -0.7979 0.1181 0.5911
vn -0.0172 -0.0407 0.9990
vn -0.4696 -0.7579 0.4528
vn 0.0766 -0.9121 0.4029
vn 0.5408 -0.7312 0.4158
vn 0.8280 -0.1246 0.5467
vn 0.6312 0.5637 0.5328
vn -0.1474 0.8254 0.5450
vn -0.5975 0.6021 -0.5296
vn 0.1443 0.8258 -0.5452
vn 0.0096 -0.0376 -0.9992
vn -0.6228 -0.6784 -0.3896
vn -0.8202 -0.1312 -0.5569
vn 0.4837 -0.7479 -0.4546
vn -0.2295 -0.8616 -0.4527
vn 0.5845 0.7207 -0.3729
vn 0.7922 0.1070 -0.6008
# 66 vertex normals

vt 0.3307 0.9163 0.0000
vt 0.3379 0.9220 0.0000
vt 0.3365 0.9234 0.0000
vt 0.3450 0.9163 0.0000
vt 0.3392 0.9234 0.0000
vt 0.3450 0.9305 0.0000
vt 0.3379 0.9248 0.0000
vt 0.3307 0.9305 0.0000
vt 0.3379 0.9137 0.0000
vt 0.3476 0.9234 0.0000
vt 0.3379 0.9331 0.0000
vt 0.3281 0.9234 0.0000
vt 0.3242 0.9054 0.0000
vt 0.3242 0.9120 0.0000
vt 0.2901 0.9120 0.0000
vt 0.2901 0.9054 0.0000
vt 0.3242 0.8988 0.0000
vt 0.2901 0.8988 0.0000
vt 0.3242 0.8921 0.0000
vt 0.2901 0.8921 0.0000
vt 0.3242 0.8852 0.0000
vt 0.2901 0.8852 0.0000
vt 0.3242 0.8781 0.0000
vt 0.2901 0.8781 0.0000
vt 0.3242 0.9256 0.0000
vt 0.3242 0.9327 0.0000
vt 0.2901 0.9327 0.0000
vt 0.2901 0.9256 0.0000
vt 0.3242 0.9187 0.0000
vt 0.2901 0.9187 0.0000
vt 0.3390 0.8914 0.0000
vt 0.3468 0.8956 0.0000
vt 0.3388 0.8996 0.0000
vt 0.3412 0.8890 0.0000
vt 0.3461 0.8810 0.0000
vt 0.3503 0.8885 0.0000
vt 0.3390 0.8868 0.0000
vt 0.3313 0.8821 0.0000
vt 0.3388 0.8795 0.0000
vt 0.3371 0.8890 0.0000
vt 0.3303 0.8960 0.0000
vt 0.3283 0.8884 0.0000
vt 0.2559 0.9054 0.0000
vt 0.2559 0.9120 0.0000
vt 0.2559 0.8988 0.0000
vt 0.2559 0.8921 0.0000
vt 0.2559 0.8852 0.0000
vt 0.2559 0.8781 0.0000
vt 0.2559 0.9256 0.0000
vt 0.2559 0.9327 0.0000
vt 0.2559 0.9187 0.0000
vt 0.3569 0.9081 0.0000
vt 0.3568 0.9165 0.0000
vt 0.3487 0.9134 0.0000
vt 0.3549 0.9059 0.0000
vt 0.3461 0.9057 0.0000
vt 0.3495 0.8989 0.0000
vt 0.3569 0.9038 0.0000
vt 0.3553 0.8961 0.0000
vt 0.3641 0.8980 0.0000
vt 0.3589 0.9059 0.0000
vt 0.3681 0.9054 0.0000
vt 0.3645 0.9127 0.0000
vt 0.3388 0.8888 0.0000
vt 0.3566 0.9058 0.0000
# 65 texture coords

g SweetPack_Candy_Wrapped_Long
s 1
f -50/-65/-66 -49/-64/-65 -48/-63/-64 
f -47/-62/-63 -46/-61/-62 -49/-64/-65 
f -45/-60/-61 -44/-59/-60 -46/-61/-62 
f -43/-58/-59 -48/-63/-64 -44/-59/-60 
f -50/-65/-66 -42/-57/-58 -49/-64/-65 
f -42/-57/-58 -47/-62/-63 -49/-64/-65 
f -47/-62/-63 -41/-56/-57 -46/-61/-62 
f -41/-56/-57 -45/-60/-61 -46/-61/-62 
f -45/-60/-61 -40/-55/-56 -44/-59/-60 
f -40/-55/-56 -43/-58/-59 -44/-59/-60 
f -43/-58/-59 -39/-54/-55 -48/-63/-64 
f -39/-54/-55 -50/-65/-66 -48/-63/-64 
f -42/-53/-58 -50/-52/-66 -38/-51/-54 -37/-50/-53 
f -47/-49/-63 -42/-53/-58 -37/-50/-53 -36/-48/-52 
f -41/-47/-57 -47/-49/-63 -36/-48/-52 -35/-46/-51 
f -45/-45/-61 -41/-47/-57 -35/-46/-51 -34/-44/-50 
f -40/-43/-56 -45/-45/-61 -34/-44/-50 -33/-42/-49 
f -43/-41/-59 -40/-40/-56 -33/-39/-49 -32/-38/-48 
f -39/-37/-55 -43/-41/-59 -32/-38/-48 -31/-36/-47 
f -50/-52/-66 -39/-37/-55 -31/-36/-47 -38/-51/-54 
f -48/-35/-64 -30/-34/-46 -29/-33/-45 
f -49/-32/-65 -28/-31/-44 -27/-30/-43 
f -46/-29/-62 -26/-28/-42 -25/-27/-41 
f -44/-26/-60 -24/-25/-40 -23/-24/-39 
f -30/-34/-46 -49/-32/-65 -27/-30/-43 
f -28/-31/-44 -46/-29/-62 -25/-27/-41 
f -26/-28/-42 -44/-26/-60 -23/-24/-39 
f -24/-25/-40 -48/-35/-64 -29/-33/-45 
f -49/-32/-65 -30/-34/-46 -48/-35/-64 
f -49/-32/-65 -46/-29/-62 -28/-31/-44 
f -46/-29/-62 -44/-26/-60 -26/-28/-42 
f -44/-26/-60 -48/-35/-64 -24/-25/-40 
f -22/-65/-38 -21/-63/-37 -20/-64/-36 
f -19/-62/-35 -20/-64/-36 -18/-61/-34 
f -17/-60/-33 -18/-61/-34 -16/-59/-32 
f -15/-58/-31 -16/-59/-32 -21/-63/-37 
f -22/-65/-38 -20/-64/-36 -14/-57/-30 
f -14/-57/-30 -20/-64/-36 -19/-62/-35 
f -19/-62/-35 -18/-61/-34 -13/-56/-29 
f -13/-56/-29 -18/-61/-34 -17/-60/-33 
f -17/-60/-33 -16/-59/-32 -12/-55/-28 
f -12/-55/-28 -16/-59/-32 -15/-58/-31 
f -15/-58/-31 -21/-63/-37 -11/-54/-27 
f -11/-54/-27 -21/-63/-37 -22/-65/-38 
f -14/-23/-30 -37/-50/-53 -38/-51/-54 -22/-22/-38 
f -19/-21/-35 -36/-48/-52 -37/-50/-53 -14/-23/-30 
f -13/-20/-29 -35/-46/-51 -36/-48/-52 -19/-21/-35 
f -17/-19/-33 -34/-44/-50 -35/-46/-51 -13/-20/-29 
f -12/-18/-28 -33/-42/-49 -34/-44/-50 -17/-19/-33 
f -15/-17/-31 -32/-38/-48 -33/-39/-49 -12/-16/-28 
f -11/-15/-27 -31/-36/-47 -32/-38/-48 -15/-17/-31 
f -22/-22/-38 -38/-51/-54 -31/-36/-47 -11/-15/-27 
f -21/-14/-37 -10/-13/-26 -9/-12/-25 
f -20/-11/-36 -8/-10/-24 -7/-9/-23 
f -18/-8/-34 -6/-7/-22 -5/-6/-21 
f -16/-5/-32 -4/-4/-20 -3/-3/-19 
f -9/-12/-25 -8/-10/-24 -20/-11/-36 
f -7/-9/-23 -6/-7/-22 -18/-8/-34 
f -5/-6/-21 -4/-4/-20 -16/-5/-32 
f -3/-3/-19 -10/-13/-26 -21/-14/-37 
f -20/-11/-36 -21/-14/-37 -9/-12/-25 
f -20/-11/-36 -7/-9/-23 -18/-8/-34 
f -18/-8/-34 -5/-6/-21 -16/-5/-32 
f -16/-5/-32 -3/-3/-19 -21/-14/-37 
s 2
f -30/-34/-18 -27/-30/-17 -2/-2/-16 
f -28/-31/-15 -25/-27/-14 -2/-2/-16 
f -26/-28/-13 -23/-24/-12 -2/-2/-16 
f -24/-25/-11 -29/-33/-10 -2/-2/-16 
f -29/-33/-10 -30/-34/-18 -2/-2/-16 
f -27/-30/-17 -28/-31/-15 -2/-2/-16 
f -25/-27/-14 -26/-28/-13 -2/-2/-16 
f -23/-24/-12 -24/-25/-11 -2/-2/-16 
f -9/-12/-9 -10/-13/-8 -1/-1/-7 
f -7/-9/-6 -8/-10/-5 -1/-1/-7 
f -5/-6/-4 -6/-7/-3 -1/-1/-7 
f -3/-3/-2 -4/-4/-1 -1/-1/-7 
f -8/-10/-5 -9/-12/-9 -1/-1/-7 
f -6/-7/-3 -7/-9/-6 -1/-1/-7 
f -4/-4/-1 -5/-6/-4 -1/-1/-7 
f -10/-13/-8 -3/-3/-2 -1/-1/-7 
# 16 polygons - 64 triangles

