# 3ds Max Wavefront OBJ Exporter v0.97b - (c)2007 guruware
# File Created: 19.11.2013 20:04:30

#
# object SweetPack_Popsicle_Wide
#

v  -0.0278 0.0642 -0.0092
v  0.0278 0.0642 -0.0092
v  0.0278 0.0642 0.0092
v  -0.0278 0.0642 0.0092
v  -0.0185 0.1968 0.0060
v  -0.0185 0.1968 -0.0060
v  -0.0257 0.1922 -0.0060
v  -0.0257 0.1922 0.0060
v  0.0273 0.0745 0.0151
v  0.0234 0.1837 0.0123
v  -0.0234 0.1837 0.0123
v  -0.0273 0.0745 0.0151
v  0.0346 0.0716 0.0091
v  0.0346 0.0716 -0.0091
v  0.0298 0.1829 -0.0062
v  0.0298 0.1829 0.0062
v  -0.0273 0.0745 -0.0151
v  -0.0234 0.1837 -0.0123
v  0.0234 0.1837 -0.0123
v  0.0273 0.0745 -0.0151
v  -0.0346 0.0716 -0.0091
v  -0.0346 0.0716 0.0091
v  -0.0298 0.1829 0.0062
v  -0.0298 0.1829 -0.0062
v  0.0185 0.1968 -0.0060
v  0.0000 0.1981 -0.0060
v  0.0000 0.1981 0.0060
v  0.0185 0.1968 0.0060
v  0.0257 0.1922 0.0060
v  0.0257 0.1922 -0.0060
v  -0.0241 0.0712 -0.0152
v  0.0241 0.0712 -0.0152
v  -0.0190 0.1901 0.0120
v  0.0190 0.1901 -0.0120
v  0.0241 0.0712 0.0152
v  -0.0241 0.0712 0.0152
v  0.0190 0.1901 0.0120
v  -0.0190 0.1901 -0.0120
v  -0.0090 0.0077 -0.0025
v  -0.0080 0.0033 -0.0025
v  -0.0080 0.0033 0.0025
v  -0.0090 0.0077 0.0025
v  -0.0047 -0.0004 -0.0025
v  -0.0047 -0.0004 0.0025
v  0.0000 -0.0017 -0.0025
v  0.0000 -0.0017 0.0025
v  0.0047 -0.0004 -0.0025
v  0.0047 -0.0004 0.0025
v  0.0080 0.0033 -0.0025
v  0.0080 0.0033 0.0025
v  0.0090 0.0077 -0.0025
v  0.0090 0.0077 0.0025
v  0.0000 0.0077 -0.0025
v  0.0000 0.0077 0.0025
v  0.0080 0.0401 -0.0025
v  0.0080 0.0401 0.0025
v  -0.0080 0.0401 0.0025
v  -0.0080 0.0401 -0.0025
v  0.0000 0.0401 -0.0025
v  0.0000 0.0401 0.0025
v  0.0074 0.0821 -0.0025
v  0.0074 0.0821 0.0025
v  -0.0074 0.0821 0.0025
v  -0.0074 0.0821 -0.0025
v  0.0000 0.0821 -0.0025
v  0.0000 0.0821 0.0025
# 66 vertices

vn -0.3713 -0.8356 -0.4048
vn 0.3713 -0.8356 -0.4048
vn 0.3716 -0.8351 0.4055
vn -0.3716 -0.8351 0.4055
vn -0.2782 0.8862 0.3706
vn -0.2782 0.8862 -0.3706
vn -0.7087 0.6101 -0.3543
vn -0.7087 0.6101 0.3543
vn 0.3697 -0.1194 0.9214
vn 0.4037 0.1569 0.9013
vn -0.4046 0.1556 0.9012
vn -0.3710 -0.1179 0.9211
vn 0.8601 -0.3109 0.4045
vn 0.8606 -0.3095 -0.4045
vn 0.9071 0.2092 -0.3652
vn 0.9072 0.2106 0.3641
vn -0.3692 -0.1168 -0.9220
vn -0.4037 0.1569 -0.9013
vn 0.4046 0.1556 -0.9012
vn 0.3705 -0.1152 -0.9217
vn -0.8605 -0.3105 -0.4039
vn -0.8601 -0.3099 0.4052
vn -0.9071 0.2092 0.3652
vn -0.9072 0.2106 -0.3641
vn 0.2782 0.8862 -0.3706
vn -0.0000 0.9049 -0.4257
vn 0.0000 0.9049 0.4257
vn 0.2782 0.8862 0.3706
vn 0.7087 0.6101 0.3543
vn 0.7087 0.6101 -0.3543
vn -0.1485 -0.3510 -0.9245
vn 0.1485 -0.3510 -0.9245
vn -0.2107 0.4010 0.8915
vn 0.2107 0.4010 -0.8915
vn 0.1510 -0.3513 0.9240
vn -0.1510 -0.3513 0.9240
vn 0.2107 0.4010 0.8915
vn -0.2107 0.4010 -0.8915
vn -0.9945 -0.1046 -0.0000
vn -0.8878 -0.4602 -0.0000
vn -0.5352 -0.8447 -0.0000
vn -0.0000 -1.0000 -0.0000
vn 0.0000 -1.0000 -0.0000
vn 0.5352 -0.8447 -0.0000
vn 0.8878 -0.4602 -0.0000
vn 0.9945 -0.1046 -0.0000
vn 0.0000 -0.0000 -1.0000
vn -0.0000 -0.0000 -1.0000
vn 0.0000 0.0000 1.0000
vn -0.0000 -0.0000 1.0000
vn 0.0000 0.0000 -1.0000
vn -0.0000 0.0000 -1.0000
vn 0.0000 -0.0000 1.0000
vn 0.9997 0.0230 -0.0000
vn -0.9997 0.0230 -0.0000
vn 0.9999 0.0149 -0.0000
vn -0.9999 0.0149 -0.0000
vn -0.0000 0.0000 1.0000
# 58 vertex normals

vt 0.3859 0.7545 0.0000
vt 0.4227 0.7545 0.0000
vt 0.4227 0.7664 0.0000
vt 0.3859 0.7664 0.0000
vt 0.4166 0.8690 0.0000
vt 0.4166 0.8612 0.0000
vt 0.4219 0.8612 0.0000
vt 0.4219 0.8690 0.0000
vt 0.4217 0.7743 0.0000
vt 0.4192 0.8450 0.0000
vt 0.3892 0.8450 0.0000
vt 0.3867 0.7743 0.0000
vt 0.4312 0.7717 0.0000
vt 0.4430 0.7717 0.0000
vt 0.4411 0.8441 0.0000
vt 0.4331 0.8441 0.0000
vt 0.3920 0.8612 0.0000
vt 0.4043 0.8612 0.0000
vt 0.4043 0.8690 0.0000
vt 0.3920 0.8690 0.0000
vt 0.3867 0.8690 0.0000
vt 0.3867 0.8612 0.0000
vt 0.3888 0.7721 0.0000
vt 0.4196 0.7721 0.0000
vt 0.4226 0.7664 0.0000
vt 0.3858 0.7664 0.0000
vt 0.3868 0.8511 0.0000
vt 0.3920 0.8487 0.0000
vt 0.3916 0.8544 0.0000
vt 0.4216 0.8511 0.0000
vt 0.4163 0.8487 0.0000
vt 0.4168 0.8544 0.0000
vt 0.4277 0.7719 0.0000
vt 0.4249 0.8445 0.0000
vt 0.3835 0.8445 0.0000
vt 0.3807 0.7719 0.0000
vt 0.3803 0.8690 0.0000
vt 0.3803 0.8612 0.0000
vt 0.4283 0.8612 0.0000
vt 0.4283 0.8690 0.0000
vt 0.4430 0.7650 0.0000
vt 0.4312 0.7650 0.0000
vt 0.4042 0.8554 0.0000
vt 0.4706 0.6669 0.0000
vt 0.4706 0.6623 0.0000
vt 0.4758 0.6623 0.0000
vt 0.4758 0.6669 0.0000
vt 0.4706 0.6571 0.0000
vt 0.4758 0.6571 0.0000
vt 0.4706 0.6520 0.0000
vt 0.4758 0.6520 0.0000
vt 1.4758 0.6520 0.0000
vt 1.4758 0.6571 0.0000
vt 1.4706 0.6571 0.0000
vt 1.4706 0.6520 0.0000
vt 1.4758 0.6623 0.0000
vt 1.4706 0.6623 0.0000
vt 1.4758 0.6669 0.0000
vt 1.4706 0.6669 0.0000
vt 1.4769 0.6624 0.0000
vt 1.4852 0.6669 0.0000
vt 0.4946 0.6669 0.0000
vt 0.4852 0.6669 0.0000
vt 0.4935 0.6624 0.0000
vt 1.4852 0.6572 0.0000
vt 1.4901 0.6585 0.0000
vt 0.4803 0.6585 0.0000
vt 0.4852 0.6572 0.0000
vt 1.4803 0.6585 0.0000
vt 0.4901 0.6585 0.0000
vt 1.4935 0.6624 0.0000
vt 0.4769 0.6624 0.0000
vt 1.4946 0.6669 0.0000
vt 1.4758 0.7005 0.0000
vt 1.4706 0.7005 0.0000
vt 0.4758 0.7005 0.0000
vt 0.4706 0.7005 0.0000
vt 1.4946 0.7005 0.0000
vt 1.4852 0.7005 0.0000
vt 0.4946 0.7005 0.0000
vt 0.4852 0.7005 0.0000
vt 1.4758 0.7440 0.0000
vt 1.4706 0.7440 0.0000
vt 0.4758 0.7440 0.0000
vt 0.4706 0.7440 0.0000
vt 1.4946 0.7440 0.0000
vt 1.4852 0.7440 0.0000
vt 0.4946 0.7440 0.0000
vt 0.4852 0.7440 0.0000
# 89 texture coords

g SweetPack_Popsicle_Wide
s 1
f -66/-89/-58 -65/-88/-57 -64/-87/-56 -63/-86/-55 
f -62/-85/-54 -61/-84/-53 -60/-83/-52 -59/-82/-51 
f -58/-81/-50 -57/-80/-49 -56/-79/-48 -55/-78/-47 
f -54/-77/-46 -53/-76/-45 -52/-75/-44 -51/-74/-43 
f -50/-78/-42 -49/-79/-41 -48/-80/-40 -47/-81/-39 
f -46/-77/-38 -45/-76/-37 -44/-75/-36 -43/-74/-35 
f -42/-73/-34 -41/-72/-33 -40/-71/-32 -39/-70/-31 
f -38/-69/-30 -37/-68/-29 -42/-73/-34 -39/-70/-31 
f -36/-67/-28 -35/-66/-27 -65/-65/-57 -66/-64/-58 
f -59/-63/-51 -34/-62/-26 -62/-61/-54 
f -37/-60/-29 -33/-59/-25 -42/-58/-34 
f -54/-57/-46 -51/-56/-43 -57/-80/-49 -58/-81/-50 
f -44/-55/-36 -45/-54/-37 -55/-78/-47 -56/-79/-48 
f -47/-81/-39 -48/-80/-40 -52/-56/-44 -53/-57/-45 
f -46/-54/-38 -43/-55/-35 -49/-79/-41 -50/-78/-42 
f -32/-66/-24 -31/-67/-23 -63/-86/-55 -64/-87/-56 
f -39/-58/-31 -30/-59/-22 -38/-60/-30 
f -61/-61/-53 -29/-62/-21 -60/-63/-52 
f -51/-56/-43 -38/-60/-30 -57/-80/-49 
f -43/-55/-35 -60/-63/-52 -49/-79/-41 
f -56/-79/-48 -59/-63/-51 -44/-55/-36 
f -52/-56/-44 -48/-80/-40 -37/-60/-29 
f -38/-69/-30 -51/-53/-43 -52/-52/-44 -37/-68/-29 
f -60/-83/-52 -43/-51/-35 -44/-50/-36 -59/-82/-51 
f -63/-49/-55 -45/-76/-37 -46/-77/-38 -66/-48/-58 
f -65/-49/-57 -53/-76/-45 -54/-77/-46 -64/-48/-56 
f -30/-59/-22 -34/-62/-26 -56/-79/-48 -57/-80/-49 
f -29/-62/-21 -33/-59/-25 -48/-80/-40 -49/-79/-41 
f -59/-63/-51 -56/-79/-48 -34/-62/-26 
f -37/-60/-29 -48/-80/-40 -33/-59/-25 
f -30/-59/-22 -57/-80/-49 -38/-60/-30 
f -29/-62/-21 -49/-79/-41 -60/-63/-52 
f -34/-62/-26 -40/-47/-32 -62/-61/-54 
f -33/-59/-25 -41/-47/-33 -42/-58/-34 
f -31/-67/-23 -55/-78/-47 -45/-54/-37 -63/-86/-55 
f -32/-66/-24 -64/-87/-56 -54/-57/-46 -58/-81/-50 
f -47/-81/-39 -53/-57/-45 -65/-65/-57 -35/-66/-27 
f -66/-64/-58 -46/-54/-38 -50/-78/-42 -36/-67/-28 
f -31/-67/-23 -32/-66/-24 -58/-81/-50 -55/-78/-47 
f -35/-66/-27 -36/-67/-28 -50/-78/-42 -47/-81/-39 
f -61/-84/-53 -62/-85/-54 -40/-71/-32 -41/-72/-33 
f -30/-59/-22 -39/-58/-31 -40/-47/-32 
f -34/-62/-26 -30/-59/-22 -40/-47/-32 
f -29/-62/-21 -61/-61/-53 -41/-47/-33 
f -33/-59/-25 -29/-62/-21 -41/-47/-33 
s 2
f -28/-46/-20 -27/-45/-19 -26/-44/-19 -25/-43/-20 
f -27/-45/-19 -24/-42/-18 -23/-41/-18 -26/-44/-19 
f -22/-40/-17 -21/-39/-16 -23/-41/-18 -24/-42/-18 
f -22/-38/-17 -20/-37/-15 -19/-36/-15 -21/-35/-16 
f -20/-37/-15 -18/-34/-14 -17/-33/-14 -19/-36/-15 
f -18/-34/-14 -16/-32/-13 -15/-31/-13 -17/-33/-14 
s 1
f -18/-30/-12 -14/-29/-11 -16/-32/-12 
f -15/-28/-10 -13/-27/-9 -17/-26/-9 
f -22/-25/-8 -24/-24/-7 -14/-29/-11 
f -13/-27/-9 -23/-23/-6 -21/-22/-6 
f -18/-30/-12 -20/-21/-8 -14/-29/-11 
f -13/-27/-9 -19/-20/-9 -17/-26/-9 
f -24/-24/-7 -27/-19/-11 -14/-29/-11 
f -13/-27/-9 -26/-18/-6 -23/-23/-6 
f -20/-21/-8 -22/-25/-8 -14/-29/-11 
f -13/-27/-9 -21/-22/-6 -19/-20/-9 
f -27/-19/-11 -28/-17/-12 -14/-29/-11 
f -13/-27/-9 -25/-43/-10 -26/-18/-6 
s 2
f -16/-32/-13 -12/-16/-5 -11/-15/-5 -15/-31/-13 
f -25/-43/-20 -10/-14/-4 -9/-13/-4 -28/-46/-20 
s 1
f -14/-29/-11 -28/-17/-12 -9/-12/-11 -8/-11/-11 
f -13/-27/-9 -15/-28/-10 -11/-10/-6 -7/-9/-9 
f -14/-29/-11 -8/-11/-11 -12/-16/-12 -16/-32/-12 
f -13/-27/-9 -7/-9/-9 -10/-14/-9 -25/-43/-10 
s 2
f -6/-8/-3 -5/-7/-3 -11/-15/-5 -12/-16/-5 
f -4/-6/-2 -3/-5/-2 -9/-13/-4 -10/-14/-4 
s 1
f -3/-4/-8 -2/-3/-8 -8/-11/-11 -9/-12/-11 
f -5/-2/-9 -1/-1/-1 -7/-9/-9 -11/-10/-6 
f -8/-11/-11 -2/-3/-8 -6/-8/-8 -12/-16/-12 
f -7/-9/-9 -1/-1/-1 -4/-6/-6 -10/-14/-9 
# 45 polygons - 30 triangles

