# 3ds Max Wavefront OBJ Exporter v0.97b - (c)2007 guruware
# File Created: 19.11.2013 20:04:46

#
# object SweetPack_ChocBanana
#

v  0.0314 0.0721 -0.0000
v  0.0315 0.0771 -0.0000
v  0.0293 0.0790 0.0122
v  0.0293 0.0721 0.0121
v  0.0124 0.0721 0.0298
v  0.0228 0.0721 0.0228
v  0.0226 0.0817 0.0226
v  0.0117 0.0849 0.0290
v  -0.0122 0.0721 0.0296
v  -0.0000 0.0721 0.0316
v  -0.0000 0.0849 0.0312
v  -0.0122 0.0817 0.0290
v  -0.0297 0.0721 0.0123
v  -0.0228 0.0721 0.0228
v  -0.0227 0.0785 0.0227
v  -0.0295 0.0782 0.0123
v  -0.0117 0.2325 -0.0000
v  -0.0151 0.2311 0.0097
v  -0.0069 0.2217 0.0125
v  -0.0025 0.2233 -0.0000
v  -0.0241 0.2276 0.0133
v  -0.0187 0.2174 0.0173
v  -0.0333 0.2240 0.0097
v  -0.0305 0.2131 0.0125
v  -0.0367 0.2227 -0.0000
v  -0.0350 0.2115 -0.0000
v  -0.0230 0.2377 0.0059
v  -0.0210 0.2387 -0.0000
v  -0.0302 0.2385 -0.0000
v  -0.0283 0.2353 0.0081
v  -0.0337 0.2328 0.0059
v  -0.0357 0.2318 -0.0000
v  -0.0269 0.0656 -0.0000
v  -0.0000 0.0656 -0.0000
v  -0.0259 0.0656 0.0107
v  -0.0199 0.0656 0.0199
v  -0.0105 0.0656 0.0254
v  -0.0000 0.0656 0.0272
v  0.0108 0.0656 0.0260
v  0.0199 0.0656 0.0199
v  0.0253 0.0656 0.0104
v  -0.0314 0.0721 -0.0000
v  0.0136 0.1768 0.0193
v  0.0196 0.1471 0.0214
v  0.0276 0.1478 -0.0000
v  0.0208 0.1781 -0.0000
v  -0.0018 0.1453 0.0295
v  -0.0054 0.1735 0.0265
v  -0.0243 0.1701 0.0193
v  -0.0231 0.1434 0.0214
v  -0.0311 0.1427 -0.0000
v  -0.0315 0.1689 -0.0000
v  0.0052 0.2016 0.0164
v  0.0112 0.2032 -0.0000
v  -0.0107 0.1974 0.0226
v  -0.0265 0.1931 0.0164
v  -0.0325 0.1915 -0.0000
v  0.0232 0.1093 0.0229
v  0.0315 0.1093 -0.0000
v  0.0003 0.1093 0.0318
v  -0.0232 0.1093 0.0229
v  -0.0316 0.1093 -0.0000
v  0.0271 0.0656 -0.0000
v  0.0314 0.0844 0.0131
v  0.0126 0.0908 0.0311
v  -0.0131 0.0874 0.0311
v  0.0245 0.0874 0.0245
v  0.0000 0.0908 0.0338
v  -0.0246 0.0839 0.0246
v  -0.0316 0.0836 0.0132
v  -0.0338 0.0841 -0.0000
v  0.0341 0.0823 -0.0000
v  -0.0312 0.0787 -0.0000
v  0.0293 0.0721 -0.0121
v  0.0293 0.0790 -0.0122
v  0.0124 0.0721 -0.0298
v  0.0117 0.0849 -0.0290
v  0.0226 0.0817 -0.0226
v  0.0228 0.0721 -0.0228
v  -0.0122 0.0721 -0.0296
v  -0.0122 0.0817 -0.0290
v  -0.0000 0.0849 -0.0312
v  -0.0000 0.0721 -0.0316
v  -0.0297 0.0721 -0.0123
v  -0.0295 0.0782 -0.0123
v  -0.0227 0.0785 -0.0227
v  -0.0228 0.0721 -0.0228
v  -0.0069 0.2217 -0.0125
v  -0.0151 0.2311 -0.0097
v  -0.0187 0.2174 -0.0173
v  -0.0241 0.2276 -0.0133
v  -0.0305 0.2131 -0.0125
v  -0.0333 0.2240 -0.0097
v  -0.0230 0.2377 -0.0059
v  -0.0283 0.2353 -0.0081
v  -0.0337 0.2328 -0.0059
v  -0.0259 0.0656 -0.0107
v  -0.0199 0.0656 -0.0199
v  -0.0105 0.0656 -0.0254
v  -0.0000 0.0656 -0.0272
v  0.0108 0.0656 -0.0260
v  0.0199 0.0656 -0.0199
v  0.0253 0.0656 -0.0104
v  0.0136 0.1768 -0.0193
v  0.0196 0.1471 -0.0214
v  -0.0018 0.1453 -0.0295
v  -0.0054 0.1735 -0.0265
v  -0.0243 0.1701 -0.0193
v  -0.0231 0.1434 -0.0214
v  0.0052 0.2016 -0.0164
v  -0.0107 0.1974 -0.0226
v  -0.0265 0.1931 -0.0164
v  0.0232 0.1093 -0.0229
v  0.0003 0.1093 -0.0318
v  -0.0232 0.1093 -0.0229
v  0.0314 0.0844 -0.0131
v  0.0126 0.0908 -0.0311
v  -0.0131 0.0874 -0.0311
v  0.0245 0.0874 -0.0245
v  0.0000 0.0908 -0.0338
v  -0.0246 0.0839 -0.0246
v  -0.0316 0.0836 -0.0132
v  -0.0090 0.0077 -0.0025
v  -0.0080 0.0033 -0.0025
v  -0.0080 0.0033 0.0025
v  -0.0090 0.0077 0.0025
v  -0.0047 -0.0004 -0.0025
v  -0.0047 -0.0004 0.0025
v  0.0000 -0.0017 -0.0025
v  0.0000 -0.0017 0.0025
v  0.0047 -0.0004 -0.0025
v  0.0047 -0.0004 0.0025
v  0.0080 0.0033 -0.0025
v  0.0080 0.0033 0.0025
v  0.0090 0.0077 -0.0025
v  0.0090 0.0077 0.0025
v  0.0000 0.0077 -0.0025
v  0.0000 0.0077 0.0025
v  0.0080 0.0401 -0.0025
v  0.0080 0.0401 0.0025
v  -0.0080 0.0401 0.0025
v  -0.0080 0.0401 -0.0025
v  0.0000 0.0401 -0.0025
v  0.0000 0.0401 0.0025
v  0.0074 0.0821 -0.0025
v  0.0074 0.0821 0.0025
v  -0.0074 0.0821 0.0025
v  -0.0074 0.0821 -0.0025
v  0.0000 0.0821 -0.0025
v  0.0000 0.0821 0.0025
# 150 vertices

vn 0.9594 -0.2822 -0.0000
vn 0.9778 -0.2094 -0.0000
vn 0.8991 -0.2043 0.3871
vn 0.9009 -0.2730 0.3375
vn 0.3441 -0.2433 0.9068
vn 0.6984 -0.2535 0.6693
vn 0.6509 -0.2022 0.7318
vn 0.3194 -0.1704 0.9322
vn -0.3420 -0.2595 0.9032
vn -0.0099 -0.2679 0.9634
vn 0.0293 -0.2036 0.9786
vn -0.3013 -0.1707 0.9381
vn -0.9059 -0.2596 0.3346
vn -0.6810 -0.2538 0.6869
vn -0.6613 -0.1997 0.7231
vn -0.9203 -0.1946 0.3395
vn 0.6419 0.7668 0.0000
vn 0.4083 0.6614 0.6291
vn 0.5238 0.5344 0.6633
vn 0.7745 0.6326 -0.0000
vn -0.1535 0.3802 0.9121
vn -0.0899 0.2656 0.9599
vn -0.7504 0.0973 0.6537
vn -0.7200 -0.0077 0.6939
vn -0.9994 -0.0339 0.0000
vn -0.9904 -0.1385 -0.0000
vn 0.1395 0.8603 0.4904
vn 0.3241 0.9460 -0.0000
vn -0.4360 0.9000 0.0000
vn -0.3024 0.6482 0.6988
vn -0.7517 0.4393 0.4919
vn -0.9378 0.3471 -0.0000
vn -0.4943 -0.8693 -0.0000
vn 0.0000 -1.0000 -0.0000
vn -0.5073 -0.8442 0.1732
vn -0.3707 -0.8477 0.3795
vn -0.1706 -0.8643 0.4732
vn -0.0093 -0.8624 0.5061
vn 0.1816 -0.8442 0.5044
vn 0.3866 -0.8470 0.3648
vn 0.4826 -0.8594 0.1691
vn -0.9606 -0.2781 -0.0000
vn 0.6757 0.2456 0.6950
vn 0.7008 0.1403 0.6994
vn 0.9869 0.1611 -0.0000
vn 0.9573 0.2889 -0.0000
vn 0.0004 0.0821 0.9966
vn -0.0151 0.1301 0.9914
vn -0.7074 0.0224 0.7065
vn -0.7035 0.0284 0.7102
vn -1.0000 0.0010 -0.0000
vn -0.9996 -0.0287 -0.0000
vn 0.6219 0.3882 0.6802
vn 0.8882 0.4595 0.0000
vn -0.0379 0.1956 0.9800
vn -0.7082 0.0079 0.7060
vn -0.9966 -0.0829 0.0000
vn 0.7125 0.1322 0.6891
vn 0.9913 0.1314 0.0000
vn 0.0084 0.1184 0.9929
vn -0.7044 0.0972 0.7031
vn -0.9963 0.0863 -0.0000
vn 0.5108 -0.8597 -0.0000
vn 0.9122 -0.1469 0.3825
vn 0.3378 -0.0927 0.9366
vn -0.3138 -0.1249 0.9412
vn 0.6610 -0.1605 0.7330
vn 0.0131 -0.1218 0.9925
vn -0.6610 -0.1911 0.7257
vn -0.9272 -0.1503 0.3431
vn -0.9860 -0.1668 -0.0000
vn 0.9795 -0.2016 0.0000
vn -0.9774 -0.2116 0.0000
vn 0.9009 -0.2730 -0.3375
vn 0.8991 -0.2043 -0.3871
vn 0.3441 -0.2433 -0.9068
vn 0.3194 -0.1704 -0.9322
vn 0.6509 -0.2022 -0.7318
vn 0.6984 -0.2535 -0.6693
vn -0.3420 -0.2595 -0.9032
vn -0.3013 -0.1707 -0.9381
vn 0.0293 -0.2036 -0.9786
vn -0.0099 -0.2679 -0.9634
vn -0.9059 -0.2596 -0.3346
vn -0.9203 -0.1946 -0.3395
vn -0.6613 -0.1997 -0.7231
vn -0.6810 -0.2538 -0.6869
vn 0.5238 0.5344 -0.6633
vn 0.4083 0.6614 -0.6291
vn -0.0899 0.2656 -0.9599
vn -0.1535 0.3802 -0.9121
vn -0.7200 -0.0077 -0.6939
vn -0.7504 0.0973 -0.6537
vn 0.1395 0.8603 -0.4904
vn -0.3024 0.6482 -0.6988
vn -0.7517 0.4393 -0.4919
vn -0.5073 -0.8442 -0.1732
vn -0.3707 -0.8477 -0.3795
vn -0.1706 -0.8643 -0.4732
vn -0.0093 -0.8624 -0.5061
vn 0.1816 -0.8442 -0.5044
vn 0.3866 -0.8470 -0.3648
vn 0.4826 -0.8594 -0.1691
vn 0.6757 0.2456 -0.6950
vn 0.7008 0.1403 -0.6994
vn 0.0004 0.0821 -0.9966
vn -0.0151 0.1301 -0.9914
vn -0.7074 0.0224 -0.7065
vn -0.7035 0.0284 -0.7102
vn 0.6219 0.3882 -0.6802
vn -0.0379 0.1956 -0.9800
vn -0.7082 0.0079 -0.7060
vn 0.7125 0.1322 -0.6891
vn 0.0084 0.1184 -0.9929
vn -0.7044 0.0972 -0.7031
vn 0.9122 -0.1469 -0.3825
vn 0.3378 -0.0927 -0.9366
vn -0.3138 -0.1249 -0.9412
vn 0.6610 -0.1605 -0.7330
vn 0.0131 -0.1218 -0.9925
vn -0.6610 -0.1911 -0.7257
vn -0.9272 -0.1503 -0.3431
vn -0.9945 -0.1046 -0.0000
vn -0.8878 -0.4602 -0.0000
vn -0.5352 -0.8447 -0.0000
vn -0.0000 -1.0000 -0.0000
vn 0.5352 -0.8447 -0.0000
vn 0.8878 -0.4602 -0.0000
vn 0.9945 -0.1046 -0.0000
vn 0.0000 -0.0000 -1.0000
vn -0.0000 -0.0000 -1.0000
vn 0.0000 0.0000 1.0000
vn 0.0000 -0.0000 1.0000
vn -0.0000 -0.0000 1.0000
vn 0.0000 0.0000 -1.0000
vn -0.0000 0.0000 -1.0000
vn 0.9997 0.0230 -0.0000
vn -0.9997 0.0230 -0.0000
vn 0.9999 0.0149 -0.0000
vn -0.9999 0.0149 -0.0000
vn -0.0000 0.0000 1.0000
# 141 vertex normals

vt 0.4426 0.6340 0.0000
vt 0.4426 0.6394 0.0000
vt 0.4351 0.6399 0.0000
vt 0.4351 0.6340 0.0000
vt 0.4203 0.6340 0.0000
vt 0.4277 0.6340 0.0000
vt 0.4277 0.6417 0.0000
vt 0.4203 0.6435 0.0000
vt 0.4055 0.6340 0.0000
vt 0.4129 0.6340 0.0000
vt 0.4129 0.6436 0.0000
vt 0.4055 0.6417 0.0000
vt 0.3904 0.6340 0.0000
vt 0.3979 0.6340 0.0000
vt 0.3979 0.6397 0.0000
vt 0.3904 0.6392 0.0000
vt 0.4067 0.7394 0.0000
vt 0.4024 0.7348 0.0000
vt 0.4065 0.7296 0.0000
vt 0.4126 0.7349 0.0000
vt 0.3967 0.7321 0.0000
vt 0.3991 0.7264 0.0000
vt 0.3904 0.7311 0.0000
vt 0.3912 0.7253 0.0000
vt 0.3841 0.7323 0.0000
vt 0.3830 0.7263 0.0000
vt 0.3974 0.7398 0.0000
vt 0.3993 0.7431 0.0000
vt 0.3922 0.7434 0.0000
vt 0.3941 0.7380 0.0000
vt 0.3905 0.7374 0.0000
vt 0.3870 0.7386 0.0000
vt 0.4308 0.7266 0.0000
vt 0.4473 0.7266 0.0000
vt 0.4314 0.7332 0.0000
vt 0.4351 0.7389 0.0000
vt 0.4408 0.7422 0.0000
vt 0.4473 0.7433 0.0000
vt 0.4539 0.7426 0.0000
vt 0.4595 0.7389 0.0000
vt 0.4628 0.7330 0.0000
vt 0.4277 0.6292 0.0000
vt 0.4351 0.6292 0.0000
vt 0.4129 0.6292 0.0000
vt 0.4203 0.6292 0.0000
vt 0.3979 0.6292 0.0000
vt 0.4055 0.6292 0.0000
vt 0.3830 0.6292 0.0000
vt 0.3904 0.6292 0.0000
vt 0.3830 0.6340 0.0000
vt 0.4214 0.7020 0.0000
vt 0.4250 0.6840 0.0000
vt 0.4389 0.6866 0.0000
vt 0.4329 0.7060 0.0000
vt 0.4110 0.6824 0.0000
vt 0.4090 0.6995 0.0000
vt 0.3963 0.6982 0.0000
vt 0.3969 0.6816 0.0000
vt 0.3830 0.6818 0.0000
vt 0.3830 0.6984 0.0000
vt 0.4148 0.7171 0.0000
vt 0.4228 0.7221 0.0000
vt 0.4046 0.7140 0.0000
vt 0.3939 0.7126 0.0000
vt 0.3830 0.7131 0.0000
vt 0.4275 0.6599 0.0000
vt 0.4426 0.6599 0.0000
vt 0.4126 0.6599 0.0000
vt 0.3976 0.6599 0.0000
vt 0.3830 0.6599 0.0000
vt 0.4426 0.6292 0.0000
vt 0.4351 0.6432 0.0000
vt 0.4203 0.6471 0.0000
vt 0.4055 0.6454 0.0000
vt 0.4277 0.6453 0.0000
vt 0.4129 0.6475 0.0000
vt 0.3979 0.6431 0.0000
vt 0.3904 0.6426 0.0000
vt 0.3830 0.6427 0.0000
vt 0.4639 0.7266 0.0000
vt 0.4426 0.6427 0.0000
vt 0.3830 0.6394 0.0000
vt 1.4426 0.6340 0.0000
vt 1.4351 0.6340 0.0000
vt 1.4351 0.6399 0.0000
vt 1.4426 0.6394 0.0000
vt 1.4203 0.6340 0.0000
vt 1.4203 0.6435 0.0000
vt 1.4277 0.6417 0.0000
vt 1.4277 0.6340 0.0000
vt 1.4055 0.6340 0.0000
vt 1.4055 0.6417 0.0000
vt 1.4129 0.6436 0.0000
vt 1.4129 0.6340 0.0000
vt 1.3904 0.6340 0.0000
vt 1.3904 0.6392 0.0000
vt 1.3979 0.6397 0.0000
vt 1.3979 0.6340 0.0000
vt 1.4067 0.7394 0.0000
vt 1.4126 0.7349 0.0000
vt 1.4065 0.7296 0.0000
vt 1.4024 0.7348 0.0000
vt 1.3991 0.7264 0.0000
vt 1.3967 0.7321 0.0000
vt 1.3912 0.7253 0.0000
vt 1.3904 0.7311 0.0000
vt 1.3830 0.7263 0.0000
vt 1.3841 0.7323 0.0000
vt 1.3974 0.7398 0.0000
vt 1.3922 0.7434 0.0000
vt 1.3993 0.7431 0.0000
vt 1.3941 0.7380 0.0000
vt 1.3905 0.7374 0.0000
vt 1.3870 0.7386 0.0000
vt 1.4308 0.7266 0.0000
vt 1.4314 0.7332 0.0000
vt 1.4473 0.7266 0.0000
vt 1.4351 0.7389 0.0000
vt 1.4408 0.7422 0.0000
vt 1.4473 0.7433 0.0000
vt 1.4539 0.7426 0.0000
vt 1.4595 0.7389 0.0000
vt 1.4628 0.7330 0.0000
vt 1.4277 0.6292 0.0000
vt 1.4351 0.6292 0.0000
vt 1.4129 0.6292 0.0000
vt 1.4203 0.6292 0.0000
vt 1.3979 0.6292 0.0000
vt 1.4055 0.6292 0.0000
vt 1.3830 0.6292 0.0000
vt 1.3830 0.6340 0.0000
vt 1.3904 0.6292 0.0000
vt 1.4214 0.7020 0.0000
vt 1.4329 0.7060 0.0000
vt 1.4389 0.6866 0.0000
vt 1.4250 0.6840 0.0000
vt 1.4110 0.6824 0.0000
vt 1.4090 0.6995 0.0000
vt 1.3963 0.6982 0.0000
vt 1.3969 0.6816 0.0000
vt 1.3830 0.6818 0.0000
vt 1.3830 0.6984 0.0000
vt 1.4148 0.7171 0.0000
vt 1.4228 0.7221 0.0000
vt 1.4046 0.7140 0.0000
vt 1.3939 0.7126 0.0000
vt 1.3830 0.7131 0.0000
vt 1.4426 0.6599 0.0000
vt 1.4275 0.6599 0.0000
vt 1.4126 0.6599 0.0000
vt 1.3976 0.6599 0.0000
vt 1.3830 0.6599 0.0000
vt 1.4426 0.6292 0.0000
vt 1.4351 0.6432 0.0000
vt 1.4203 0.6471 0.0000
vt 1.4055 0.6454 0.0000
vt 1.4277 0.6453 0.0000
vt 1.4129 0.6475 0.0000
vt 1.3979 0.6431 0.0000
vt 1.3904 0.6426 0.0000
vt 1.3830 0.6427 0.0000
vt 1.4639 0.7266 0.0000
vt 1.4426 0.6427 0.0000
vt 1.3830 0.6394 0.0000
vt 0.4706 0.6669 0.0000
vt 0.4706 0.6623 0.0000
vt 0.4758 0.6623 0.0000
vt 0.4758 0.6669 0.0000
vt 0.4706 0.6571 0.0000
vt 0.4758 0.6571 0.0000
vt 0.4706 0.6520 0.0000
vt 0.4758 0.6520 0.0000
vt 0.4769 0.6624 0.0000
vt 0.4852 0.6669 0.0000
vt 0.4946 0.6669 0.0000
vt 0.4935 0.6624 0.0000
vt 0.4852 0.6572 0.0000
vt 0.4901 0.6585 0.0000
vt 0.4803 0.6585 0.0000
vt 0.4706 0.7005 0.0000
vt 0.4758 0.7005 0.0000
vt 0.4946 0.7005 0.0000
vt 0.4852 0.7005 0.0000
vt 0.4706 0.7440 0.0000
vt 0.4758 0.7440 0.0000
vt 0.4946 0.7440 0.0000
vt 0.4852 0.7440 0.0000
# 187 texture coords

g SweetPack_ChocBanana
s 1
f -150/-187/-141 -149/-186/-140 -148/-185/-139 -147/-184/-138 
f -146/-183/-137 -145/-182/-136 -144/-181/-135 -143/-180/-134 
f -142/-179/-133 -141/-178/-132 -140/-177/-131 -139/-176/-130 
f -138/-175/-129 -137/-174/-128 -136/-173/-127 -135/-172/-126 
f -134/-171/-125 -133/-170/-124 -132/-169/-123 -131/-168/-122 
f -133/-170/-124 -130/-167/-121 -129/-166/-120 -132/-169/-123 
f -130/-167/-121 -128/-165/-119 -127/-164/-118 -129/-166/-120 
f -128/-165/-119 -126/-163/-117 -125/-162/-116 -127/-164/-118 
f -124/-161/-115 -123/-160/-114 -122/-159/-113 
f -121/-158/-112 -124/-161/-115 -122/-159/-113 
f -120/-157/-111 -121/-158/-112 -122/-159/-113 
f -119/-156/-110 -120/-157/-111 -122/-159/-113 
f -118/-155/-109 -117/-154/-108 -116/-153/-107 
f -115/-152/-106 -117/-154/-108 -114/-151/-105 
f -113/-150/-104 -117/-154/-108 -112/-149/-103 
f -111/-148/-102 -117/-154/-108 -110/-147/-101 
f -111/-146/-102 -110/-145/-101 -147/-184/-138 -145/-182/-136 
f -113/-144/-104 -112/-143/-103 -146/-183/-137 -141/-178/-132 
f -115/-142/-106 -114/-141/-105 -142/-179/-133 -137/-174/-128 
f -118/-140/-109 -116/-139/-107 -138/-175/-129 -109/-138/-100 
f -108/-137/-99 -107/-136/-98 -106/-135/-97 -105/-134/-96 
f -104/-133/-95 -107/-136/-98 -108/-137/-99 -103/-132/-94 
f -102/-131/-93 -101/-130/-92 -104/-133/-95 -103/-132/-94 
f -100/-129/-91 -101/-130/-92 -102/-131/-93 -99/-128/-90 
f -98/-127/-89 -108/-137/-99 -105/-134/-96 -97/-126/-88 
f -103/-132/-94 -108/-137/-99 -98/-127/-89 -96/-125/-87 
f -95/-124/-86 -102/-131/-93 -103/-132/-94 -96/-125/-87 
f -99/-128/-90 -102/-131/-93 -95/-124/-86 -94/-123/-85 
f -132/-169/-123 -98/-127/-89 -97/-126/-88 -131/-168/-122 
f -96/-125/-87 -98/-127/-89 -132/-169/-123 -129/-166/-120 
f -127/-164/-118 -95/-124/-86 -96/-125/-87 -129/-166/-120 
f -94/-123/-85 -95/-124/-86 -127/-164/-118 -125/-162/-116 
f -107/-136/-98 -93/-122/-84 -92/-121/-83 -106/-135/-97 
f -104/-133/-95 -91/-120/-82 -93/-122/-84 -107/-136/-98 
f -101/-130/-92 -90/-119/-81 -91/-120/-82 -104/-133/-95 
f -100/-129/-91 -89/-118/-80 -90/-119/-81 -101/-130/-92 
f -123/-160/-114 -124/-161/-115 -133/-170/-124 -134/-171/-125 
f -124/-161/-115 -121/-158/-112 -130/-167/-121 -133/-170/-124 
f -121/-158/-112 -120/-157/-111 -128/-165/-119 -130/-167/-121 
f -120/-157/-111 -119/-156/-110 -126/-163/-117 -128/-165/-119 
f -88/-117/-79 -150/-187/-141 -147/-184/-138 -110/-145/-101 
f -111/-146/-102 -145/-182/-136 -146/-183/-137 -112/-143/-103 
f -113/-144/-104 -141/-178/-132 -142/-179/-133 -114/-141/-105 
f -115/-142/-106 -137/-174/-128 -138/-175/-129 -116/-139/-107 
f -92/-121/-83 -93/-122/-84 -87/-116/-78 
f -93/-122/-84 -91/-120/-82 -86/-115/-77 
f -91/-120/-82 -90/-119/-81 -85/-114/-76 
f -93/-122/-84 -84/-113/-75 -87/-116/-78 
f -91/-120/-82 -83/-112/-74 -86/-115/-77 
f -90/-119/-81 -82/-111/-73 -85/-114/-76 
f -90/-119/-81 -89/-118/-80 -81/-110/-72 
f -89/-118/-80 -80/-109/-71 -81/-110/-72 
f -117/-154/-108 -115/-152/-106 -116/-153/-107 
f -117/-154/-108 -113/-150/-104 -114/-151/-105 
f -117/-154/-108 -111/-148/-102 -112/-149/-103 
f -117/-154/-108 -88/-108/-79 -110/-147/-101 
f -149/-186/-140 -79/-107/-70 -87/-116/-78 -148/-185/-139 
f -143/-180/-134 -144/-181/-135 -84/-113/-75 -86/-115/-77 
f -139/-176/-130 -140/-177/-131 -83/-112/-74 -85/-114/-76 
f -135/-172/-126 -136/-173/-127 -82/-111/-73 -81/-110/-72 
f -147/-184/-138 -148/-185/-139 -144/-181/-135 -145/-182/-136 
f -146/-183/-137 -143/-180/-134 -140/-177/-131 -141/-178/-132 
f -142/-179/-133 -139/-176/-130 -136/-173/-127 -137/-174/-128 
f -109/-138/-100 -138/-175/-129 -135/-172/-126 -78/-106/-69 
f -148/-185/-139 -87/-116/-78 -84/-113/-75 -144/-181/-135 
f -143/-180/-134 -86/-115/-77 -83/-112/-74 -140/-177/-131 
f -139/-176/-130 -85/-114/-76 -82/-111/-73 -136/-173/-127 
f -78/-106/-69 -135/-172/-126 -81/-110/-72 -80/-109/-71 
f -79/-107/-70 -92/-121/-83 -87/-116/-78 
f -84/-113/-75 -93/-122/-84 -86/-115/-77 
f -83/-112/-74 -91/-120/-82 -85/-114/-76 
f -82/-111/-73 -90/-119/-81 -81/-110/-72 
f -150/-105/-141 -77/-104/-68 -76/-103/-67 -149/-102/-140 
f -75/-101/-66 -74/-100/-65 -73/-99/-64 -72/-98/-63 
f -71/-97/-62 -70/-96/-61 -69/-95/-60 -68/-94/-59 
f -67/-93/-58 -66/-92/-57 -65/-91/-56 -64/-90/-55 
f -134/-89/-125 -131/-88/-122 -63/-87/-54 -62/-86/-53 
f -62/-86/-53 -63/-87/-54 -61/-85/-52 -60/-84/-51 
f -60/-84/-51 -61/-85/-52 -59/-83/-50 -58/-82/-49 
f -58/-82/-49 -59/-83/-50 -125/-81/-116 -126/-80/-117 
f -57/-79/-48 -122/-78/-113 -123/-77/-114 
f -56/-76/-47 -122/-78/-113 -57/-79/-48 
f -55/-75/-46 -122/-78/-113 -56/-76/-47 
f -119/-74/-110 -122/-78/-113 -55/-75/-46 
f -118/-73/-109 -54/-72/-45 -117/-71/-108 
f -53/-70/-44 -52/-69/-43 -117/-71/-108 
f -51/-68/-42 -50/-67/-41 -117/-71/-108 
f -49/-66/-40 -48/-65/-39 -117/-71/-108 
f -49/-64/-40 -72/-98/-63 -77/-104/-68 -48/-63/-39 
f -51/-62/-42 -68/-94/-59 -75/-101/-66 -50/-61/-41 
f -53/-60/-44 -64/-90/-55 -71/-97/-62 -52/-59/-43 
f -118/-58/-109 -109/-57/-100 -67/-93/-58 -54/-56/-45 
f -47/-55/-38 -105/-54/-96 -106/-53/-97 -46/-52/-37 
f -45/-51/-36 -44/-50/-35 -47/-55/-38 -46/-52/-37 
f -43/-49/-34 -44/-50/-35 -45/-51/-36 -42/-48/-33 
f -100/-47/-91 -99/-46/-90 -43/-49/-34 -42/-48/-33 
f -41/-45/-32 -97/-44/-88 -105/-54/-96 -47/-55/-38 
f -44/-50/-35 -40/-43/-31 -41/-45/-32 -47/-55/-38 
f -39/-42/-30 -40/-43/-31 -44/-50/-35 -43/-49/-34 
f -99/-46/-90 -94/-41/-85 -39/-42/-30 -43/-49/-34 
f -63/-87/-54 -131/-88/-122 -97/-44/-88 -41/-45/-32 
f -40/-43/-31 -61/-85/-52 -63/-87/-54 -41/-45/-32 
f -59/-83/-50 -61/-85/-52 -40/-43/-31 -39/-42/-30 
f -94/-41/-85 -125/-81/-116 -59/-83/-50 -39/-42/-30 
f -46/-52/-37 -106/-53/-97 -92/-40/-83 -38/-39/-29 
f -45/-51/-36 -46/-52/-37 -38/-39/-29 -37/-38/-28 
f -42/-48/-33 -45/-51/-36 -37/-38/-28 -36/-37/-27 
f -100/-47/-91 -42/-48/-33 -36/-37/-27 -89/-36/-80 
f -123/-77/-114 -134/-89/-125 -62/-86/-53 -57/-79/-48 
f -57/-79/-48 -62/-86/-53 -60/-84/-51 -56/-76/-47 
f -56/-76/-47 -60/-84/-51 -58/-82/-49 -55/-75/-46 
f -55/-75/-46 -58/-82/-49 -126/-80/-117 -119/-74/-110 
f -88/-35/-79 -48/-63/-39 -77/-104/-68 -150/-105/-141 
f -49/-64/-40 -50/-61/-41 -75/-101/-66 -72/-98/-63 
f -51/-62/-42 -52/-59/-43 -71/-97/-62 -68/-94/-59 
f -53/-60/-44 -54/-56/-45 -67/-93/-58 -64/-90/-55 
f -92/-40/-83 -35/-34/-26 -38/-39/-29 
f -38/-39/-29 -34/-33/-25 -37/-38/-28 
f -37/-38/-28 -33/-32/-24 -36/-37/-27 
f -38/-39/-29 -35/-34/-26 -32/-31/-23 
f -37/-38/-28 -34/-33/-25 -31/-30/-22 
f -36/-37/-27 -33/-32/-24 -30/-29/-21 
f -36/-37/-27 -29/-28/-20 -89/-36/-80 
f -89/-36/-80 -29/-28/-20 -80/-27/-71 
f -117/-71/-108 -54/-72/-45 -53/-70/-44 
f -117/-71/-108 -52/-69/-43 -51/-68/-42 
f -117/-71/-108 -50/-67/-41 -49/-66/-40 
f -117/-71/-108 -48/-65/-39 -88/-26/-79 
f -149/-102/-140 -76/-103/-67 -35/-34/-26 -79/-25/-70 
f -74/-100/-65 -34/-33/-25 -32/-31/-23 -73/-99/-64 
f -70/-96/-61 -33/-32/-24 -31/-30/-22 -69/-95/-60 
f -66/-92/-57 -29/-28/-20 -30/-29/-21 -65/-91/-56 
f -77/-104/-68 -72/-98/-63 -73/-99/-64 -76/-103/-67 
f -75/-101/-66 -68/-94/-59 -69/-95/-60 -74/-100/-65 
f -71/-97/-62 -64/-90/-55 -65/-91/-56 -70/-96/-61 
f -109/-57/-100 -78/-24/-69 -66/-92/-57 -67/-93/-58 
f -76/-103/-67 -73/-99/-64 -32/-31/-23 -35/-34/-26 
f -74/-100/-65 -69/-95/-60 -31/-30/-22 -34/-33/-25 
f -70/-96/-61 -65/-91/-56 -30/-29/-21 -33/-32/-24 
f -78/-24/-69 -80/-27/-71 -29/-28/-20 -66/-92/-57 
f -79/-25/-70 -35/-34/-26 -92/-40/-83 
f -32/-31/-23 -34/-33/-25 -38/-39/-29 
f -31/-30/-22 -33/-32/-24 -37/-38/-28 
f -30/-29/-21 -29/-28/-20 -36/-37/-27 
s 2
f -28/-23/-19 -27/-22/-18 -26/-21/-18 -25/-20/-19 
f -27/-22/-18 -24/-19/-17 -23/-18/-17 -26/-21/-18 
f -22/-17/-16 -21/-16/-108 -23/-18/-17 -24/-19/-17 
f -22/-17/-16 -20/-19/-15 -19/-18/-15 -21/-16/-108 
f -20/-19/-15 -18/-22/-14 -17/-21/-14 -19/-18/-15 
f -18/-22/-14 -16/-23/-13 -15/-20/-13 -17/-21/-14 
s 1
f -18/-15/-12 -14/-14/-11 -16/-20/-12 
f -15/-13/-10 -13/-14/-9 -17/-12/-8 
f -22/-11/-7 -24/-10/-6 -14/-14/-11 
f -13/-14/-9 -23/-9/-9 -21/-11/-9 
f -18/-15/-12 -20/-9/-7 -14/-14/-11 
f -13/-14/-9 -19/-10/-8 -17/-12/-8 
f -24/-10/-6 -27/-12/-11 -14/-14/-11 
f -13/-14/-9 -26/-15/-9 -23/-9/-9 
f -20/-9/-7 -22/-11/-7 -14/-14/-11 
f -13/-14/-9 -21/-11/-9 -19/-10/-8 
f -27/-12/-11 -28/-13/-11 -14/-14/-11 
f -13/-14/-9 -25/-20/-10 -26/-15/-9 
s 2
f -16/-23/-13 -12/-8/-5 -11/-7/-5 -15/-20/-13 
f -25/-20/-19 -10/-7/-4 -9/-8/-4 -28/-23/-19 
s 1
f -14/-14/-11 -28/-13/-11 -9/-6/-11 -8/-5/-11 
f -13/-14/-9 -15/-13/-10 -11/-6/-9 -7/-5/-8 
f -14/-14/-11 -8/-5/-11 -12/-7/-12 -16/-20/-12 
f -13/-14/-9 -7/-5/-8 -10/-7/-8 -25/-20/-10 
s 2
f -6/-4/-3 -5/-3/-3 -11/-7/-5 -12/-8/-5 
f -4/-3/-2 -3/-4/-2 -9/-8/-4 -10/-7/-4 
s 1
f -3/-2/-7 -2/-1/-7 -8/-5/-11 -9/-6/-11 
f -5/-2/-8 -1/-1/-1 -7/-5/-8 -11/-6/-9 
f -8/-5/-11 -2/-1/-7 -6/-3/-7 -12/-7/-12 
f -7/-5/-8 -1/-1/-1 -4/-3/-9 -10/-7/-8 
# 114 polygons - 60 triangles

