# 3ds Max Wavefront OBJ Exporter v0.97b - (c)2007 guruware
# File Created: 19.11.2013 20:04:58

#
# object SweetPack_CandyCorn
#

v  -0.0264 0.0098 0.0000
v  -0.0245 0.0098 0.0094
v  -0.0231 0.0300 -0.0000
v  0.0000 0.0098 0.0219
v  0.0000 0.0300 0.0201
v  -0.0183 0.0300 0.0162
v  -0.0184 0.0098 0.0176
v  -0.0126 0.0616 -0.0000
v  -0.0099 0.0616 0.0079
v  -0.0073 0.0683 0.0057
v  -0.0094 0.0683 0.0000
v  0.0000 0.0616 0.0105
v  0.0000 0.0683 0.0073
v  0.0000 0.0729 -0.0000
v  -0.0046 0.0716 0.0035
v  0.0000 0.0716 0.0042
v  -0.0061 0.0716 -0.0000
v  -0.0245 0.0033 0.0000
v  -0.0229 0.0033 0.0088
v  -0.0172 0.0033 0.0163
v  0.0000 0.0033 0.0202
v  -0.0190 -0.0009 -0.0000
v  -0.0176 -0.0009 0.0067
v  -0.0137 -0.0009 0.0125
v  0.0000 -0.0009 0.0153
v  0.0000 -0.0043 -0.0000
v  0.0264 0.0098 0.0000
v  0.0231 0.0300 -0.0000
v  0.0245 0.0098 0.0094
v  0.0183 0.0300 0.0159
v  0.0184 0.0098 0.0176
v  0.0126 0.0616 -0.0000
v  0.0094 0.0683 0.0000
v  0.0073 0.0683 0.0057
v  0.0099 0.0616 0.0079
v  0.0046 0.0716 0.0035
v  0.0061 0.0716 -0.0000
v  0.0245 0.0033 0.0000
v  0.0229 0.0033 0.0088
v  0.0172 0.0033 0.0163
v  0.0190 -0.0009 -0.0000
v  0.0176 -0.0009 0.0067
v  0.0137 -0.0009 0.0125
v  -0.0245 0.0098 -0.0094
v  -0.0183 0.0300 -0.0161
v  0.0000 0.0300 -0.0201
v  0.0000 0.0098 -0.0219
v  -0.0184 0.0098 -0.0176
v  -0.0073 0.0683 -0.0057
v  -0.0099 0.0616 -0.0079
v  -0.0000 0.0616 -0.0105
v  -0.0000 0.0683 -0.0073
v  -0.0000 0.0716 -0.0042
v  -0.0046 0.0716 -0.0035
v  -0.0229 0.0033 -0.0088
v  0.0000 0.0033 -0.0202
v  -0.0172 0.0033 -0.0163
v  -0.0176 -0.0009 -0.0067
v  0.0000 -0.0009 -0.0153
v  -0.0137 -0.0009 -0.0125
v  0.0245 0.0098 -0.0094
v  0.0183 0.0300 -0.0161
v  0.0184 0.0098 -0.0176
v  0.0099 0.0616 -0.0079
v  0.0073 0.0683 -0.0057
v  0.0046 0.0716 -0.0035
v  0.0229 0.0033 -0.0088
v  0.0172 0.0033 -0.0163
v  0.0176 -0.0009 -0.0067
v  0.0137 -0.0009 -0.0125
v  -0.0139 0.0494 0.0119
v  -0.0174 0.0494 -0.0000
v  0.0000 0.0494 0.0154
v  0.0174 0.0494 -0.0000
v  0.0139 0.0494 0.0119
v  -0.0139 0.0494 -0.0118
v  0.0000 0.0494 -0.0153
v  0.0139 0.0494 -0.0118
# 78 vertices

vn -0.9983 -0.0583 0.0000
vn -0.9195 -0.0668 0.3873
vn -0.9720 0.2348 -0.0004
vn 0.0015 -0.0794 0.9968
vn 0.0049 0.1668 0.9860
vn -0.6500 0.2115 0.7299
vn -0.5475 -0.0962 0.8312
vn -0.9161 0.4010 -0.0000
vn -0.6210 0.4281 0.6566
vn -0.5464 0.5745 0.6095
vn -0.8251 0.5650 0.0000
vn 0.0000 0.3939 0.9192
vn 0.0000 0.5442 0.8390
vn 0.0000 1.0000 -0.0000
vn -0.3282 0.8404 0.4314
vn 0.0000 0.8304 0.5572
vn -0.5325 0.8464 0.0000
vn -0.8389 -0.5442 0.0000
vn -0.7740 -0.5354 0.3381
vn -0.4674 -0.5105 0.7218
vn 0.0000 -0.5068 0.8621
vn -0.4248 -0.9053 0.0000
vn -0.3888 -0.9069 0.1623
vn -0.2453 -0.8815 0.4035
vn -0.0000 -0.8801 0.4748
vn -0.0000 -1.0000 0.0000
vn 0.9983 -0.0583 0.0000
vn 0.9721 0.2348 0.0010
vn 0.9192 -0.0656 0.3882
vn 0.6538 0.2105 0.7268
vn 0.5472 -0.0914 0.8320
vn 0.9161 0.4010 0.0000
vn 0.8251 0.5650 -0.0000
vn 0.5464 0.5745 0.6095
vn 0.6210 0.4281 0.6566
vn 0.3282 0.8404 0.4314
vn 0.5325 0.8464 -0.0000
vn 0.8389 -0.5442 0.0000
vn 0.7740 -0.5354 0.3381
vn 0.4674 -0.5105 0.7218
vn 0.4248 -0.9053 -0.0000
vn 0.3888 -0.9069 0.1623
vn 0.2453 -0.8815 0.4035
vn -0.9195 -0.0666 -0.3875
vn -0.6506 0.2120 -0.7292
vn 0.0000 0.1686 -0.9857
vn 0.0000 -0.0802 -0.9968
vn -0.5475 -0.0952 -0.8314
vn -0.5464 0.5745 -0.6095
vn -0.6209 0.4271 -0.6573
vn 0.0000 0.3923 -0.9198
vn -0.0000 0.5442 -0.8390
vn -0.0000 0.8304 -0.5572
vn -0.3282 0.8404 -0.4314
vn -0.7740 -0.5354 -0.3381
vn -0.0000 -0.5068 -0.8621
vn -0.4674 -0.5105 -0.7218
vn -0.3888 -0.9069 -0.1623
vn 0.0000 -0.8801 -0.4748
vn -0.2453 -0.8815 -0.4035
vn 0.9195 -0.0666 -0.3875
vn 0.6506 0.2120 -0.7292
vn 0.5475 -0.0952 -0.8314
vn 0.6209 0.4271 -0.6573
vn 0.5464 0.5745 -0.6095
vn 0.3282 0.8404 -0.4314
vn 0.7740 -0.5354 -0.3381
vn 0.4674 -0.5105 -0.7218
vn 0.3888 -0.9069 -0.1623
vn 0.2453 -0.8815 -0.4035
vn -0.6448 0.3487 0.6801
vn -0.9441 0.3295 -0.0004
vn -0.0000 0.3022 0.9533
vn 0.9441 0.3295 -0.0004
vn 0.6451 0.3468 0.6808
vn -0.6451 0.3481 -0.6802
vn 0.0000 0.3018 -0.9534
vn 0.6451 0.3481 -0.6802
# 78 vertex normals

vt 0.0753 0.6726 0.0000
vt 0.0802 0.6726 0.0000
vt 0.0764 0.6606 0.0000
vt 0.0960 0.6726 0.0000
vt 0.0960 0.6606 0.0000
vt 0.0859 0.6606 0.0000
vt 0.0856 0.6726 0.0000
vt 0.0849 0.6398 0.0000
vt 0.0896 0.6419 0.0000
vt 0.0913 0.6378 0.0000
vt 0.0885 0.6355 0.0000
vt 0.0960 0.6419 0.0000
vt 0.0960 0.6381 0.0000
vt 0.0960 0.6331 0.0000
vt 0.0931 0.6355 0.0000
vt 0.0960 0.6357 0.0000
vt 0.0916 0.6338 0.0000
vt 0.0753 0.6761 0.0000
vt 0.0803 0.6761 0.0000
vt 0.0857 0.6761 0.0000
vt 0.0960 0.6760 0.0000
vt 0.0753 0.6799 0.0000
vt 0.0803 0.6799 0.0000
vt 0.0860 0.6800 0.0000
vt 0.0960 0.6798 0.0000
vt 0.0605 0.6781 0.0000
vt 0.0679 0.6799 0.0000
vt 0.0605 0.6864 0.0000
vt 0.0708 0.6827 0.0000
vt 0.0714 0.6864 0.0000
vt 0.1167 0.6726 0.0000
vt 0.1156 0.6606 0.0000
vt 0.1117 0.6726 0.0000
vt 0.1061 0.6606 0.0000
vt 0.1064 0.6726 0.0000
vt 0.1070 0.6398 0.0000
vt 0.1035 0.6355 0.0000
vt 0.1006 0.6378 0.0000
vt 0.1024 0.6419 0.0000
vt 0.0989 0.6355 0.0000
vt 0.1003 0.6338 0.0000
vt 0.1166 0.6761 0.0000
vt 0.1116 0.6761 0.0000
vt 0.1063 0.6761 0.0000
vt 0.1166 0.6799 0.0000
vt 0.1116 0.6799 0.0000
vt 0.1060 0.6801 0.0000
vt 0.0531 0.6799 0.0000
vt 0.0502 0.6827 0.0000
vt 0.0495 0.6864 0.0000
vt 1.0753 0.6726 0.0000
vt 1.0764 0.6606 0.0000
vt 1.0802 0.6726 0.0000
vt 1.0859 0.6606 0.0000
vt 1.0960 0.6606 0.0000
vt 1.0960 0.6726 0.0000
vt 1.0856 0.6726 0.0000
vt 1.0849 0.6398 0.0000
vt 1.0885 0.6355 0.0000
vt 1.0913 0.6378 0.0000
vt 1.0896 0.6419 0.0000
vt 1.0960 0.6419 0.0000
vt 1.0960 0.6381 0.0000
vt 1.0960 0.6331 0.0000
vt 1.0960 0.6357 0.0000
vt 1.0931 0.6355 0.0000
vt 1.0916 0.6338 0.0000
vt 1.0753 0.6761 0.0000
vt 1.0803 0.6761 0.0000
vt 1.0960 0.6760 0.0000
vt 1.0857 0.6761 0.0000
vt 1.0753 0.6799 0.0000
vt 1.0803 0.6799 0.0000
vt 1.0960 0.6798 0.0000
vt 1.0860 0.6801 0.0000
vt 0.0605 0.6947 0.0000
vt 0.0679 0.6929 0.0000
vt 0.0708 0.6901 0.0000
vt 1.1167 0.6726 0.0000
vt 1.1117 0.6726 0.0000
vt 1.1156 0.6606 0.0000
vt 1.1061 0.6606 0.0000
vt 1.1064 0.6726 0.0000
vt 1.1070 0.6398 0.0000
vt 1.1024 0.6419 0.0000
vt 1.1006 0.6378 0.0000
vt 1.1035 0.6355 0.0000
vt 1.0989 0.6355 0.0000
vt 1.1003 0.6338 0.0000
vt 1.1166 0.6761 0.0000
vt 1.1116 0.6761 0.0000
vt 1.1063 0.6761 0.0000
vt 1.1166 0.6799 0.0000
vt 1.1116 0.6799 0.0000
vt 1.1059 0.6800 0.0000
vt 0.0531 0.6929 0.0000
vt 0.0502 0.6901 0.0000
vt 0.0877 0.6489 0.0000
vt 0.0811 0.6488 0.0000
vt 0.0960 0.6488 0.0000
vt 0.1109 0.6488 0.0000
vt 0.1042 0.6489 0.0000
vt 1.0811 0.6488 0.0000
vt 1.0877 0.6489 0.0000
vt 1.0960 0.6488 0.0000
vt 1.1042 0.6489 0.0000
vt 1.1109 0.6488 0.0000
# 107 texture coords

g SweetPack_CandyCorn
s 1
f -78/-107/-78 -77/-106/-77 -76/-105/-76 
f -75/-104/-75 -74/-103/-74 -73/-102/-73 -72/-101/-72 
f -71/-100/-71 -70/-99/-70 -69/-98/-69 -68/-97/-68 
f -67/-96/-67 -66/-95/-66 -69/-98/-69 -70/-99/-70 
f -65/-94/-65 -64/-93/-64 -63/-92/-63 
f -65/-94/-65 -62/-91/-62 -64/-93/-64 
f -61/-90/-61 -60/-89/-60 -77/-106/-77 -78/-107/-78 
f -72/-101/-72 -59/-88/-59 -58/-87/-58 -75/-104/-75 
f -57/-86/-57 -56/-85/-56 -60/-89/-60 -61/-90/-61 
f -59/-88/-59 -55/-84/-55 -54/-83/-54 -58/-87/-58 
f -54/-82/-54 -55/-81/-55 -53/-80/-53 
f -55/-81/-55 -56/-79/-56 -53/-80/-53 
f -59/-88/-59 -72/-101/-72 -77/-106/-77 -60/-89/-60 
f -55/-84/-55 -59/-88/-59 -60/-89/-60 -56/-85/-56 
f -56/-79/-56 -57/-78/-57 -53/-80/-53 
f -64/-93/-64 -62/-91/-62 -68/-97/-68 -69/-98/-69 
f -66/-95/-66 -63/-92/-63 -64/-93/-64 -69/-98/-69 
f -52/-77/-52 -51/-76/-51 -50/-75/-50 
f -49/-74/-49 -74/-103/-74 -75/-104/-75 -48/-73/-48 
f -47/-72/-47 -46/-71/-46 -45/-70/-45 -44/-69/-44 
f -67/-96/-67 -44/-69/-44 -45/-70/-45 -66/-95/-66 
f -65/-94/-65 -63/-92/-63 -43/-68/-43 
f -65/-94/-65 -43/-68/-43 -42/-67/-42 
f -41/-66/-41 -52/-77/-52 -50/-75/-50 -40/-65/-40 
f -48/-73/-48 -75/-104/-75 -58/-87/-58 -39/-64/-39 
f -38/-63/-38 -41/-66/-41 -40/-65/-40 -37/-62/-37 
f -39/-64/-39 -58/-87/-58 -54/-83/-54 -36/-61/-36 
f -54/-82/-54 -53/-80/-53 -36/-60/-36 
f -36/-60/-36 -53/-80/-53 -37/-59/-37 
f -39/-64/-39 -40/-65/-40 -50/-75/-50 -48/-73/-48 
f -36/-61/-36 -37/-62/-37 -40/-65/-40 -39/-64/-39 
f -50/-75/-50 -49/-74/-49 -48/-73/-48 
f -37/-59/-37 -53/-80/-53 -38/-58/-38 
f -43/-68/-43 -45/-70/-45 -46/-71/-46 -42/-67/-42 
f -66/-95/-66 -45/-70/-45 -43/-68/-43 -63/-92/-63 
f -78/-57/-78 -76/-56/-76 -35/-55/-35 
f -34/-54/-34 -33/-53/-33 -32/-52/-32 -31/-51/-31 
f -71/-50/-71 -68/-49/-68 -30/-48/-30 -29/-47/-29 
f -28/-46/-28 -29/-47/-29 -30/-48/-30 -27/-45/-27 
f -65/-44/-65 -26/-43/-26 -25/-42/-25 
f -65/-44/-65 -25/-42/-25 -62/-41/-62 
f -61/-40/-61 -78/-57/-78 -35/-55/-35 -24/-39/-24 
f -31/-51/-31 -32/-52/-32 -23/-38/-23 -22/-37/-22 
f -57/-36/-57 -61/-40/-61 -24/-39/-24 -21/-35/-21 
f -22/-37/-22 -23/-38/-23 -20/-34/-20 -19/-33/-19 
f -20/-32/-20 -53/-80/-53 -19/-31/-19 
f -19/-31/-19 -53/-80/-53 -21/-30/-21 
f -22/-37/-22 -24/-39/-24 -35/-55/-35 -31/-51/-31 
f -19/-33/-19 -21/-35/-21 -24/-39/-24 -22/-37/-22 
f -35/-55/-35 -34/-54/-34 -31/-51/-31 
f -21/-30/-21 -53/-80/-53 -57/-78/-57 
f -25/-42/-25 -30/-48/-30 -68/-49/-68 -62/-41/-62 
f -27/-45/-27 -30/-48/-30 -25/-42/-25 -26/-43/-26 
f -52/-29/-52 -18/-28/-18 -51/-27/-51 
f -32/-52/-32 -33/-53/-33 -17/-26/-17 -16/-25/-16 
f -47/-24/-47 -15/-23/-15 -14/-22/-14 -46/-21/-46 
f -28/-46/-28 -27/-45/-27 -14/-22/-14 -15/-23/-15 
f -65/-44/-65 -13/-20/-13 -26/-43/-26 
f -65/-44/-65 -42/-19/-42 -13/-20/-13 
f -41/-18/-41 -12/-17/-12 -18/-28/-18 -52/-29/-52 
f -16/-25/-16 -11/-16/-11 -23/-38/-23 -32/-52/-32 
f -38/-15/-38 -10/-14/-10 -12/-17/-12 -41/-18/-41 
f -11/-16/-11 -9/-13/-9 -20/-34/-20 -23/-38/-23 
f -20/-32/-20 -9/-12/-9 -53/-80/-53 
f -9/-12/-9 -10/-11/-10 -53/-80/-53 
f -11/-16/-11 -16/-25/-16 -18/-28/-18 -12/-17/-12 
f -9/-13/-9 -11/-16/-11 -12/-17/-12 -10/-14/-10 
f -10/-11/-10 -38/-58/-38 -53/-80/-53 
f -13/-20/-13 -42/-19/-42 -46/-21/-46 -14/-22/-14 
f -27/-45/-27 -26/-43/-26 -13/-20/-13 -14/-22/-14 
f -8/-10/-8 -7/-9/-7 -76/-105/-76 -73/-102/-73 
f -74/-103/-74 -6/-8/-6 -8/-10/-8 -73/-102/-73 
f -51/-76/-51 -5/-7/-5 -4/-6/-4 -49/-74/-49 
f -4/-6/-4 -6/-8/-6 -74/-103/-74 -49/-74/-49 
f -76/-56/-76 -7/-5/-7 -3/-4/-3 -34/-54/-34 
f -3/-4/-3 -2/-3/-2 -33/-53/-33 -34/-54/-34 
f -1/-2/-1 -5/-1/-5 -51/-27/-51 -17/-26/-17 
f -33/-53/-33 -2/-3/-2 -1/-2/-1 -17/-26/-17 
f -77/-106/-77 -73/-102/-73 -76/-105/-76 
f -77/-106/-77 -72/-101/-72 -73/-102/-73 
f -76/-56/-76 -34/-54/-34 -35/-55/-35 
f -51/-76/-51 -49/-74/-49 -50/-75/-50 
f -18/-28/-18 -17/-26/-17 -51/-27/-51 
f -18/-28/-18 -16/-25/-16 -17/-26/-17 
f -70/-99/-70 -71/-100/-71 -7/-9/-7 -8/-10/-8 
f -6/-8/-6 -67/-96/-67 -70/-99/-70 -8/-10/-8 
f -5/-7/-5 -47/-72/-47 -44/-69/-44 -4/-6/-4 
f -44/-69/-44 -67/-96/-67 -6/-8/-6 -4/-6/-4 
f -7/-5/-7 -71/-50/-71 -29/-47/-29 -3/-4/-3 
f -29/-47/-29 -28/-46/-28 -2/-3/-2 -3/-4/-3 
f -15/-23/-15 -47/-24/-47 -5/-1/-5 -1/-2/-1 
f -2/-3/-2 -28/-46/-28 -15/-23/-15 -1/-2/-1 
# 60 polygons - 32 triangles

