# 3ds Max Wavefront OBJ Exporter v0.97b - (c)2007 guruware
# File Created: 19.11.2013 20:05:08

#
# object SweetPack_Donut_Frosted
#

v  -0.0000 0.0764 -0.0906
v  0.0346 0.0764 -0.0836
v  0.0402 0.0561 -0.0970
v  -0.0000 0.0561 -0.1050
v  -0.0000 0.0838 -0.0648
v  0.0247 0.0838 -0.0595
v  -0.0000 0.0722 -0.0346
v  -0.0000 0.0419 -0.0221
v  0.0156 0.0419 -0.0156
v  0.0245 0.0722 -0.0245
v  -0.0000 0.0117 -0.0346
v  0.0245 0.0117 -0.0245
v  0.0247 -0.0000 -0.0595
v  -0.0000 -0.0000 -0.0648
v  -0.0000 0.0075 -0.0906
v  0.0346 0.0075 -0.0836
v  -0.0000 0.0277 -0.1050
v  0.0402 0.0277 -0.0970
v  0.0640 0.0764 -0.0640
v  0.0836 0.0764 -0.0346
v  0.0970 0.0561 -0.0402
v  0.0742 0.0561 -0.0742
v  0.0459 0.0838 -0.0459
v  0.0595 0.0838 -0.0247
v  0.0221 0.0419 0.0000
v  0.0346 0.0722 0.0000
v  0.0346 0.0117 0.0000
v  0.0595 -0.0000 -0.0247
v  0.0459 -0.0000 -0.0459
v  0.0640 0.0075 -0.0640
v  0.0836 0.0075 -0.0346
v  0.0742 0.0277 -0.0742
v  0.0970 0.0277 -0.0402
v  0.0906 0.0764 0.0000
v  0.0836 0.0764 0.0346
v  0.0970 0.0561 0.0402
v  0.1050 0.0561 0.0000
v  0.0648 0.0838 0.0000
v  0.0595 0.0838 0.0247
v  0.0156 0.0419 0.0156
v  0.0245 0.0722 0.0245
v  0.0245 0.0117 0.0245
v  0.0595 -0.0000 0.0247
v  0.0648 -0.0000 0.0000
v  0.0906 0.0075 0.0000
v  0.0836 0.0075 0.0346
v  0.1050 0.0277 0.0000
v  0.0970 0.0277 0.0402
v  0.0640 0.0764 0.0640
v  0.0346 0.0764 0.0836
v  0.0402 0.0561 0.0970
v  0.0742 0.0561 0.0742
v  0.0459 0.0838 0.0459
v  0.0247 0.0838 0.0595
v  -0.0000 0.0419 0.0221
v  -0.0000 0.0722 0.0346
v  -0.0000 0.0117 0.0346
v  0.0247 -0.0000 0.0595
v  0.0459 -0.0000 0.0459
v  0.0640 0.0075 0.0640
v  0.0346 0.0075 0.0836
v  0.0742 0.0277 0.0742
v  0.0402 0.0277 0.0970
v  -0.0000 0.0764 0.0906
v  -0.0346 0.0764 0.0836
v  -0.0402 0.0561 0.0970
v  -0.0000 0.0561 0.1050
v  -0.0000 0.0838 0.0648
v  -0.0247 0.0838 0.0595
v  -0.0156 0.0419 0.0156
v  -0.0245 0.0722 0.0245
v  -0.0245 0.0117 0.0245
v  -0.0247 -0.0000 0.0595
v  -0.0000 -0.0000 0.0648
v  -0.0000 0.0075 0.0906
v  -0.0346 0.0075 0.0836
v  -0.0000 0.0277 0.1050
v  -0.0402 0.0277 0.0970
v  -0.0640 0.0764 0.0640
v  -0.0836 0.0764 0.0346
v  -0.0970 0.0561 0.0402
v  -0.0742 0.0561 0.0742
v  -0.0459 0.0838 0.0459
v  -0.0595 0.0838 0.0247
v  -0.0221 0.0419 -0.0000
v  -0.0346 0.0722 -0.0000
v  -0.0346 0.0117 -0.0000
v  -0.0595 -0.0000 0.0247
v  -0.0459 -0.0000 0.0459
v  -0.0640 0.0075 0.0640
v  -0.0836 0.0075 0.0346
v  -0.0742 0.0277 0.0742
v  -0.0970 0.0277 0.0402
v  -0.0906 0.0764 -0.0000
v  -0.0836 0.0764 -0.0346
v  -0.0970 0.0561 -0.0402
v  -0.1050 0.0561 -0.0000
v  -0.0648 0.0838 -0.0000
v  -0.0595 0.0838 -0.0247
v  -0.0156 0.0419 -0.0156
v  -0.0245 0.0722 -0.0245
v  -0.0245 0.0117 -0.0245
v  -0.0595 -0.0000 -0.0247
v  -0.0648 -0.0000 -0.0000
v  -0.0906 0.0075 -0.0000
v  -0.0836 0.0075 -0.0346
v  -0.1050 0.0277 -0.0000
v  -0.0970 0.0277 -0.0402
v  -0.0640 0.0764 -0.0640
v  -0.0346 0.0764 -0.0836
v  -0.0402 0.0561 -0.0970
v  -0.0742 0.0561 -0.0742
v  -0.0459 0.0838 -0.0459
v  -0.0247 0.0838 -0.0595
v  -0.0247 -0.0000 -0.0595
v  -0.0459 -0.0000 -0.0459
v  -0.0640 0.0075 -0.0640
v  -0.0346 0.0075 -0.0836
v  -0.0742 0.0277 -0.0742
v  -0.0402 0.0277 -0.0970
# 120 vertices

vn -0.0000 0.7964 -0.6047
vn 0.2307 0.7978 -0.5570
vn 0.3657 0.2948 -0.8828
vn -0.0000 0.2941 -0.9558
vn -0.0000 1.0000 0.0009
vn -0.0021 1.0000 0.0051
vn 0.0000 0.7793 0.6266
vn -0.0000 -0.0000 1.0000
vn -0.7071 -0.0000 0.7071
vn -0.4431 0.7793 0.4431
vn 0.0000 -0.7793 0.6266
vn -0.4431 -0.7793 0.4431
vn -0.0021 -1.0000 0.0051
vn -0.0000 -1.0000 0.0009
vn -0.0000 -0.7964 -0.6047
vn 0.2307 -0.7978 -0.5570
vn -0.0000 -0.2941 -0.9558
vn 0.3657 -0.2948 -0.8828
vn 0.4276 0.7964 -0.4276
vn 0.5570 0.7978 -0.2307
vn 0.8828 0.2948 -0.3657
vn 0.6758 0.2941 -0.6758
vn -0.0006 1.0000 0.0006
vn -0.0051 1.0000 0.0021
vn -1.0000 -0.0000 -0.0000
vn -0.6266 0.7793 -0.0000
vn -0.6266 -0.7793 -0.0000
vn -0.0051 -1.0000 0.0021
vn -0.0006 -1.0000 0.0006
vn 0.4276 -0.7964 -0.4276
vn 0.5570 -0.7978 -0.2307
vn 0.6758 -0.2941 -0.6758
vn 0.8828 -0.2948 -0.3657
vn 0.6047 0.7964 0.0000
vn 0.5570 0.7978 0.2307
vn 0.8828 0.2948 0.3657
vn 0.9558 0.2941 0.0000
vn -0.0009 1.0000 0.0000
vn -0.0051 1.0000 -0.0021
vn -0.7071 -0.0000 -0.7071
vn -0.4431 0.7793 -0.4431
vn -0.4431 -0.7793 -0.4431
vn -0.0051 -1.0000 -0.0021
vn -0.0009 -1.0000 0.0000
vn 0.6047 -0.7964 0.0000
vn 0.5570 -0.7978 0.2307
vn 0.9558 -0.2941 0.0000
vn 0.8828 -0.2948 0.3657
vn 0.4276 0.7964 0.4276
vn 0.2307 0.7978 0.5570
vn 0.3657 0.2948 0.8828
vn 0.6758 0.2941 0.6758
vn -0.0006 1.0000 -0.0006
vn -0.0021 1.0000 -0.0051
vn 0.0000 -0.0000 -1.0000
vn 0.0000 0.7793 -0.6266
vn 0.0000 -0.7793 -0.6266
vn -0.0021 -1.0000 -0.0051
vn -0.0006 -1.0000 -0.0006
vn 0.4276 -0.7964 0.4276
vn 0.2307 -0.7978 0.5570
vn 0.6758 -0.2941 0.6758
vn 0.3657 -0.2948 0.8828
vn -0.0000 0.7964 0.6047
vn -0.2307 0.7978 0.5570
vn -0.3657 0.2948 0.8828
vn -0.0000 0.2941 0.9558
vn 0.0000 1.0000 -0.0009
vn 0.0021 1.0000 -0.0051
vn 0.7071 -0.0000 -0.7071
vn 0.4431 0.7793 -0.4431
vn 0.4431 -0.7793 -0.4431
vn 0.0021 -1.0000 -0.0051
vn -0.0000 -1.0000 -0.0009
vn 0.0000 -0.7964 0.6047
vn -0.2307 -0.7978 0.5570
vn 0.0000 -0.2941 0.9558
vn -0.3657 -0.2948 0.8828
vn -0.4276 0.7964 0.4276
vn -0.5570 0.7978 0.2307
vn -0.8828 0.2948 0.3657
vn -0.6758 0.2941 0.6758
vn 0.0006 1.0000 -0.0006
vn 0.0051 1.0000 -0.0021
vn 1.0000 -0.0000 0.0000
vn 0.6266 0.7793 0.0000
vn 0.6266 -0.7793 0.0000
vn 0.0051 -1.0000 -0.0021
vn 0.0006 -1.0000 -0.0006
vn -0.4276 -0.7964 0.4276
vn -0.5570 -0.7978 0.2307
vn -0.6758 -0.2941 0.6758
vn -0.8828 -0.2948 0.3657
vn -0.6047 0.7964 -0.0000
vn -0.5570 0.7978 -0.2307
vn -0.8828 0.2948 -0.3657
vn -0.9558 0.2941 -0.0000
vn 0.0009 1.0000 -0.0000
vn 0.0051 1.0000 0.0021
vn 0.7071 -0.0000 0.7071
vn 0.4431 0.7793 0.4431
vn 0.4431 -0.7793 0.4431
vn 0.0051 -1.0000 0.0021
vn 0.0009 -1.0000 -0.0000
vn -0.6047 -0.7964 -0.0000
vn -0.5570 -0.7978 -0.2307
vn -0.9558 -0.2941 -0.0000
vn -0.8828 -0.2948 -0.3657
vn -0.4276 0.7964 -0.4276
vn -0.2307 0.7978 -0.5570
vn -0.3657 0.2948 -0.8828
vn -0.6758 0.2941 -0.6758
vn 0.0006 1.0000 0.0006
vn 0.0021 1.0000 0.0051
vn 0.0021 -1.0000 0.0051
vn 0.0006 -1.0000 0.0006
vn -0.4276 -0.7964 -0.4276
vn -0.2307 -0.7978 -0.5570
vn -0.6758 -0.2941 -0.6758
vn -0.3657 -0.2948 -0.8828
# 120 vertex normals

vt 0.6217 0.5784 0.0000
vt 0.6143 0.5784 0.0000
vt 0.6143 0.5688 0.0000
vt 0.6217 0.5688 0.0000
vt 0.6217 0.5925 0.0000
vt 0.6143 0.5925 0.0000
vt 0.6217 0.6055 0.0000
vt 0.6217 0.6174 0.0000
vt 0.6069 0.6174 0.0000
vt 0.6069 0.6055 0.0000
vt 0.6217 0.5076 0.0000
vt 0.6217 0.5196 0.0000
vt 0.6069 0.5196 0.0000
vt 0.6069 0.5076 0.0000
vt 0.6143 0.5325 0.0000
vt 0.6217 0.5325 0.0000
vt 0.6217 0.5466 0.0000
vt 0.6143 0.5466 0.0000
vt 0.6217 0.5563 0.0000
vt 0.6143 0.5563 0.0000
vt 0.6069 0.5784 0.0000
vt 0.5995 0.5784 0.0000
vt 0.5995 0.5688 0.0000
vt 0.6069 0.5688 0.0000
vt 0.6069 0.5925 0.0000
vt 0.5995 0.5925 0.0000
vt 0.5921 0.6174 0.0000
vt 0.5921 0.6055 0.0000
vt 0.5921 0.5196 0.0000
vt 0.5921 0.5076 0.0000
vt 0.5995 0.5325 0.0000
vt 0.6069 0.5325 0.0000
vt 0.6069 0.5466 0.0000
vt 0.5995 0.5466 0.0000
vt 0.6069 0.5563 0.0000
vt 0.5995 0.5563 0.0000
vt 0.5921 0.5784 0.0000
vt 0.5847 0.5784 0.0000
vt 0.5847 0.5688 0.0000
vt 0.5921 0.5688 0.0000
vt 0.5921 0.5925 0.0000
vt 0.5847 0.5925 0.0000
vt 0.5773 0.6174 0.0000
vt 0.5773 0.6055 0.0000
vt 0.5773 0.5196 0.0000
vt 0.5773 0.5076 0.0000
vt 0.5847 0.5325 0.0000
vt 0.5921 0.5325 0.0000
vt 0.5921 0.5466 0.0000
vt 0.5847 0.5466 0.0000
vt 0.5921 0.5563 0.0000
vt 0.5847 0.5563 0.0000
vt 0.5773 0.5784 0.0000
vt 0.5699 0.5784 0.0000
vt 0.5699 0.5688 0.0000
vt 0.5773 0.5688 0.0000
vt 0.5773 0.5925 0.0000
vt 0.5699 0.5925 0.0000
vt 0.5625 0.6174 0.0000
vt 0.5625 0.6055 0.0000
vt 0.5625 0.5196 0.0000
vt 0.5625 0.5076 0.0000
vt 0.5699 0.5325 0.0000
vt 0.5773 0.5325 0.0000
vt 0.5773 0.5466 0.0000
vt 0.5699 0.5466 0.0000
vt 0.5773 0.5563 0.0000
vt 0.5699 0.5563 0.0000
vt 0.5625 0.5784 0.0000
vt 0.5551 0.5784 0.0000
vt 0.5551 0.5688 0.0000
vt 0.5625 0.5688 0.0000
vt 0.5625 0.5925 0.0000
vt 0.5551 0.5925 0.0000
vt 0.5477 0.6174 0.0000
vt 0.5477 0.6055 0.0000
vt 0.5477 0.5196 0.0000
vt 0.5477 0.5076 0.0000
vt 0.5551 0.5325 0.0000
vt 0.5625 0.5325 0.0000
vt 0.5625 0.5466 0.0000
vt 0.5551 0.5466 0.0000
vt 0.5625 0.5563 0.0000
vt 0.5551 0.5563 0.0000
vt 0.5477 0.5784 0.0000
vt 0.5403 0.5784 0.0000
vt 0.5403 0.5688 0.0000
vt 0.5477 0.5688 0.0000
vt 0.5477 0.5925 0.0000
vt 0.5403 0.5925 0.0000
vt 0.5329 0.6174 0.0000
vt 0.5329 0.6055 0.0000
vt 0.5329 0.5196 0.0000
vt 0.5329 0.5076 0.0000
vt 0.5403 0.5325 0.0000
vt 0.5477 0.5325 0.0000
vt 0.5477 0.5466 0.0000
vt 0.5403 0.5466 0.0000
vt 0.5477 0.5563 0.0000
vt 0.5403 0.5563 0.0000
vt 0.5329 0.5784 0.0000
vt 0.5255 0.5784 0.0000
vt 0.5255 0.5688 0.0000
vt 0.5329 0.5688 0.0000
vt 0.5329 0.5925 0.0000
vt 0.5255 0.5925 0.0000
vt 0.5181 0.6174 0.0000
vt 0.5181 0.6055 0.0000
vt 0.5181 0.5196 0.0000
vt 0.5181 0.5076 0.0000
vt 0.5255 0.5325 0.0000
vt 0.5329 0.5325 0.0000
vt 0.5329 0.5466 0.0000
vt 0.5255 0.5466 0.0000
vt 0.5329 0.5563 0.0000
vt 0.5255 0.5563 0.0000
vt 0.5181 0.5784 0.0000
vt 0.5107 0.5784 0.0000
vt 0.5107 0.5688 0.0000
vt 0.5181 0.5688 0.0000
vt 0.5181 0.5925 0.0000
vt 0.5107 0.5925 0.0000
vt 0.5033 0.6174 0.0000
vt 0.5033 0.6055 0.0000
vt 0.5033 0.5196 0.0000
vt 0.5033 0.5076 0.0000
vt 0.5107 0.5325 0.0000
vt 0.5181 0.5325 0.0000
vt 0.5181 0.5466 0.0000
vt 0.5107 0.5466 0.0000
vt 0.5181 0.5563 0.0000
vt 0.5107 0.5563 0.0000
vt 0.5033 0.5784 0.0000
vt 0.5033 0.5688 0.0000
vt 0.5033 0.5925 0.0000
vt 0.5033 0.5466 0.0000
vt 0.5033 0.5325 0.0000
vt 0.5033 0.5563 0.0000
# 138 texture coords

g SweetPack_Donut_Frosted
s 1
f -120/-138/-120 -119/-137/-119 -118/-136/-118 -117/-135/-117 
f -116/-134/-116 -115/-133/-115 -119/-137/-119 -120/-138/-120 
f -116/-134/-116 -114/-132/-114 -115/-133/-115 
f -114/-132/-114 -113/-131/-113 -112/-130/-112 -111/-129/-111 
f -113/-128/-113 -110/-127/-110 -109/-126/-109 -112/-125/-112 
f -110/-127/-110 -108/-124/-108 -109/-126/-109 
f -107/-123/-107 -106/-122/-106 -105/-121/-105 -108/-124/-108 
f -106/-122/-106 -104/-120/-104 -103/-119/-103 -105/-121/-105 
f -102/-118/-102 -101/-117/-101 -100/-116/-100 -99/-115/-99 
f -98/-114/-98 -97/-113/-97 -101/-117/-101 -102/-118/-102 
f -98/-114/-98 -111/-129/-111 -97/-113/-97 
f -111/-129/-111 -112/-130/-112 -96/-112/-96 -95/-111/-95 
f -112/-125/-112 -109/-126/-109 -94/-110/-94 -96/-109/-96 
f -109/-126/-109 -93/-108/-93 -94/-110/-94 
f -92/-107/-92 -91/-106/-91 -90/-105/-90 -93/-108/-93 
f -91/-106/-91 -89/-104/-89 -88/-103/-88 -90/-105/-90 
f -87/-102/-87 -86/-101/-86 -85/-100/-85 -84/-99/-84 
f -83/-98/-83 -82/-97/-82 -86/-101/-86 -87/-102/-87 
f -83/-98/-83 -95/-111/-95 -82/-97/-82 
f -95/-111/-95 -96/-112/-96 -81/-96/-81 -80/-95/-80 
f -96/-109/-96 -94/-110/-94 -79/-94/-79 -81/-93/-81 
f -94/-110/-94 -78/-92/-78 -79/-94/-79 
f -77/-91/-77 -76/-90/-76 -75/-89/-75 -78/-92/-78 
f -76/-90/-76 -74/-88/-74 -73/-87/-73 -75/-89/-75 
f -72/-86/-72 -71/-85/-71 -70/-84/-70 -69/-83/-69 
f -68/-82/-68 -67/-81/-67 -71/-85/-71 -72/-86/-72 
f -68/-82/-68 -80/-95/-80 -67/-81/-67 
f -80/-95/-80 -81/-96/-81 -66/-80/-66 -65/-79/-65 
f -81/-93/-81 -79/-94/-79 -64/-78/-64 -66/-77/-66 
f -79/-94/-79 -63/-76/-63 -64/-78/-64 
f -62/-75/-62 -61/-74/-61 -60/-73/-60 -63/-76/-63 
f -61/-74/-61 -59/-72/-59 -58/-71/-58 -60/-73/-60 
f -57/-70/-57 -56/-69/-56 -55/-68/-55 -54/-67/-54 
f -53/-66/-53 -52/-65/-52 -56/-69/-56 -57/-70/-57 
f -53/-66/-53 -65/-79/-65 -52/-65/-52 
f -65/-79/-65 -66/-80/-66 -51/-64/-51 -50/-63/-50 
f -66/-77/-66 -64/-78/-64 -49/-62/-49 -51/-61/-51 
f -64/-78/-64 -48/-60/-48 -49/-62/-49 
f -47/-59/-47 -46/-58/-46 -45/-57/-45 -48/-60/-48 
f -46/-58/-46 -44/-56/-44 -43/-55/-43 -45/-57/-45 
f -42/-54/-42 -41/-53/-41 -40/-52/-40 -39/-51/-39 
f -38/-50/-38 -37/-49/-37 -41/-53/-41 -42/-54/-42 
f -38/-50/-38 -50/-63/-50 -37/-49/-37 
f -50/-63/-50 -51/-64/-51 -36/-48/-36 -35/-47/-35 
f -51/-61/-51 -49/-62/-49 -34/-46/-34 -36/-45/-36 
f -49/-62/-49 -33/-44/-33 -34/-46/-34 
f -32/-43/-32 -31/-42/-31 -30/-41/-30 -33/-44/-33 
f -31/-42/-31 -29/-40/-29 -28/-39/-28 -30/-41/-30 
f -27/-38/-27 -26/-37/-26 -25/-36/-25 -24/-35/-24 
f -23/-34/-23 -22/-33/-22 -26/-37/-26 -27/-38/-27 
f -23/-34/-23 -35/-47/-35 -22/-33/-22 
f -35/-47/-35 -36/-48/-36 -21/-32/-21 -20/-31/-20 
f -36/-45/-36 -34/-46/-34 -19/-30/-19 -21/-29/-21 
f -34/-46/-34 -18/-28/-18 -19/-30/-19 
f -17/-27/-17 -16/-26/-16 -15/-25/-15 -18/-28/-18 
f -16/-26/-16 -14/-24/-14 -13/-23/-13 -15/-25/-15 
f -12/-22/-12 -11/-21/-11 -10/-20/-10 -9/-19/-9 
f -8/-18/-8 -7/-17/-7 -11/-21/-11 -12/-22/-12 
f -8/-18/-8 -20/-31/-20 -7/-17/-7 
f -20/-31/-20 -21/-32/-21 -113/-16/-113 -114/-15/-114 
f -21/-29/-21 -19/-30/-19 -110/-14/-110 -113/-13/-113 
f -19/-30/-19 -6/-12/-6 -110/-14/-110 
f -5/-11/-5 -4/-10/-4 -3/-9/-3 -6/-12/-6 
f -4/-10/-4 -2/-8/-2 -1/-7/-1 -3/-9/-3 
f -102/-118/-102 -99/-115/-99 -118/-136/-118 -119/-137/-119 
f -98/-114/-98 -102/-118/-102 -119/-137/-119 -115/-133/-115 
f -105/-121/-105 -91/-106/-91 -92/-107/-92 -108/-124/-108 
f -103/-119/-103 -89/-104/-89 -91/-106/-91 -105/-121/-105 
f -87/-102/-87 -84/-99/-84 -100/-116/-100 -101/-117/-101 
f -83/-98/-83 -87/-102/-87 -101/-117/-101 -97/-113/-97 
f -90/-105/-90 -76/-90/-76 -77/-91/-77 -93/-108/-93 
f -88/-103/-88 -74/-88/-74 -76/-90/-76 -90/-105/-90 
f -72/-86/-72 -69/-83/-69 -85/-100/-85 -86/-101/-86 
f -68/-82/-68 -72/-86/-72 -86/-101/-86 -82/-97/-82 
f -75/-89/-75 -61/-74/-61 -62/-75/-62 -78/-92/-78 
f -73/-87/-73 -59/-72/-59 -61/-74/-61 -75/-89/-75 
f -57/-70/-57 -54/-67/-54 -70/-84/-70 -71/-85/-71 
f -53/-66/-53 -57/-70/-57 -71/-85/-71 -67/-81/-67 
f -60/-73/-60 -46/-58/-46 -47/-59/-47 -63/-76/-63 
f -58/-71/-58 -44/-56/-44 -46/-58/-46 -60/-73/-60 
f -42/-54/-42 -39/-51/-39 -55/-68/-55 -56/-69/-56 
f -38/-50/-38 -42/-54/-42 -56/-69/-56 -52/-65/-52 
f -45/-57/-45 -31/-42/-31 -32/-43/-32 -48/-60/-48 
f -43/-55/-43 -29/-40/-29 -31/-42/-31 -45/-57/-45 
f -27/-38/-27 -24/-35/-24 -40/-52/-40 -41/-53/-41 
f -23/-34/-23 -27/-38/-27 -41/-53/-41 -37/-49/-37 
f -30/-41/-30 -16/-26/-16 -17/-27/-17 -33/-44/-33 
f -28/-39/-28 -14/-24/-14 -16/-26/-16 -30/-41/-30 
f -12/-22/-12 -9/-19/-9 -25/-36/-25 -26/-37/-26 
f -8/-18/-8 -12/-22/-12 -26/-37/-26 -22/-33/-22 
f -15/-25/-15 -4/-10/-4 -5/-11/-5 -18/-28/-18 
f -13/-23/-13 -2/-8/-2 -4/-10/-4 -15/-25/-15 
f -120/-6/-120 -117/-5/-117 -10/-20/-10 -11/-21/-11 
f -116/-4/-116 -120/-6/-120 -11/-21/-11 -7/-17/-7 
f -3/-9/-3 -106/-3/-106 -107/-2/-107 -6/-12/-6 
f -1/-7/-1 -104/-1/-104 -106/-3/-106 -3/-9/-3 
f -111/-129/-111 -98/-114/-98 -115/-133/-115 
f -114/-132/-114 -111/-129/-111 -115/-133/-115 
f -110/-127/-110 -107/-123/-107 -108/-124/-108 
f -108/-124/-108 -92/-107/-92 -109/-126/-109 
f -95/-111/-95 -83/-98/-83 -97/-113/-97 
f -111/-129/-111 -95/-111/-95 -97/-113/-97 
f -109/-126/-109 -92/-107/-92 -93/-108/-93 
f -93/-108/-93 -77/-91/-77 -94/-110/-94 
f -80/-95/-80 -68/-82/-68 -82/-97/-82 
f -95/-111/-95 -80/-95/-80 -82/-97/-82 
f -94/-110/-94 -77/-91/-77 -78/-92/-78 
f -78/-92/-78 -62/-75/-62 -79/-94/-79 
f -65/-79/-65 -53/-66/-53 -67/-81/-67 
f -80/-95/-80 -65/-79/-65 -67/-81/-67 
f -79/-94/-79 -62/-75/-62 -63/-76/-63 
f -63/-76/-63 -47/-59/-47 -64/-78/-64 
f -50/-63/-50 -38/-50/-38 -52/-65/-52 
f -65/-79/-65 -50/-63/-50 -52/-65/-52 
f -64/-78/-64 -47/-59/-47 -48/-60/-48 
f -48/-60/-48 -32/-43/-32 -49/-62/-49 
f -35/-47/-35 -23/-34/-23 -37/-49/-37 
f -50/-63/-50 -35/-47/-35 -37/-49/-37 
f -49/-62/-49 -32/-43/-32 -33/-44/-33 
f -33/-44/-33 -17/-27/-17 -34/-46/-34 
f -20/-31/-20 -8/-18/-8 -22/-33/-22 
f -35/-47/-35 -20/-31/-20 -22/-33/-22 
f -34/-46/-34 -17/-27/-17 -18/-28/-18 
f -18/-28/-18 -5/-11/-5 -19/-30/-19 
f -114/-15/-114 -116/-4/-116 -7/-17/-7 
f -20/-31/-20 -114/-15/-114 -7/-17/-7 
f -19/-30/-19 -5/-11/-5 -6/-12/-6 
f -6/-12/-6 -107/-2/-107 -110/-14/-110 
f -99/-115/-99 -89/-104/-89 -103/-119/-103 -118/-136/-118 
f -84/-99/-84 -74/-88/-74 -88/-103/-88 -100/-116/-100 
f -69/-83/-69 -59/-72/-59 -73/-87/-73 -85/-100/-85 
f -54/-67/-54 -44/-56/-44 -58/-71/-58 -70/-84/-70 
f -39/-51/-39 -29/-40/-29 -43/-55/-43 -55/-68/-55 
f -24/-35/-24 -14/-24/-14 -28/-39/-28 -40/-52/-40 
f -9/-19/-9 -2/-8/-2 -13/-23/-13 -25/-36/-25 
f -117/-5/-117 -104/-1/-104 -1/-7/-1 -10/-20/-10 
f -118/-136/-118 -103/-119/-103 -104/-120/-104 -117/-135/-117 
f -100/-116/-100 -88/-103/-88 -89/-104/-89 -99/-115/-99 
f -85/-100/-85 -73/-87/-73 -74/-88/-74 -84/-99/-84 
f -70/-84/-70 -58/-71/-58 -59/-72/-59 -69/-83/-69 
f -55/-68/-55 -43/-55/-43 -44/-56/-44 -54/-67/-54 
f -40/-52/-40 -28/-39/-28 -29/-40/-29 -39/-51/-39 
f -25/-36/-25 -13/-23/-13 -14/-24/-14 -24/-35/-24 
f -10/-20/-10 -1/-7/-1 -2/-8/-2 -9/-19/-9 
# 96 polygons - 48 triangles

