# 3ds Max Wavefront OBJ Exporter v0.97b - (c)2007 guruware
# File Created: 19.11.2013 20:05:12

#
# object SweetPack_Candy_Wrapped_Caramel
#

v  -0.0165 -0.0153 -0.0000
v  -0.0165 0.0153 -0.0000
v  -0.0165 0.0153 -0.0279
v  -0.0165 -0.0153 -0.0279
v  0.0165 -0.0153 -0.0279
v  0.0000 -0.0026 -0.0416
v  -0.0026 -0.0000 -0.0416
v  0.0165 0.0153 -0.0279
v  0.0000 0.0026 -0.0416
v  0.0026 -0.0000 -0.0416
v  -0.0070 0.0056 -0.0594
v  -0.0130 -0.0000 -0.0594
v  0.0057 0.0040 -0.0594
v  0.0010 0.0077 -0.0594
v  0.0085 -0.0076 -0.0594
v  0.0115 0.0002 -0.0594
v  -0.0048 -0.0046 -0.0594
v  0.0000 -0.0110 -0.0594
v  0.0165 -0.0153 -0.0000
v  0.0165 0.0153 -0.0000
v  -0.0165 -0.0153 0.0279
v  -0.0165 0.0153 0.0279
v  0.0165 -0.0153 0.0279
v  0.0000 -0.0026 0.0416
v  -0.0026 -0.0000 0.0416
v  0.0000 0.0026 0.0416
v  0.0165 0.0153 0.0279
v  0.0026 -0.0000 0.0416
v  -0.0112 -0.0000 0.0594
v  -0.0067 0.0035 0.0594
v  -0.0013 0.0082 0.0594
v  0.0069 0.0057 0.0594
v  0.0130 -0.0010 0.0594
v  0.0047 -0.0046 0.0594
v  0.0000 -0.0115 0.0594
v  -0.0080 -0.0076 0.0594
v  0.0000 -0.0000 -0.0416
v  0.0000 -0.0000 0.0416
# 38 vertices

vn -0.7071 -0.7071 -0.0000
vn -0.7071 0.7071 -0.0000
vn -0.6536 0.6490 -0.3893
vn -0.6536 -0.6490 -0.3893
vn 0.6536 -0.6493 -0.3889
vn -0.0490 -0.9155 -0.3993
vn -0.8968 -0.0247 -0.4417
vn 0.6536 0.6493 -0.3889
vn 0.0212 0.8982 -0.4390
vn 0.9100 0.0486 -0.4118
vn -0.4885 0.8063 0.3335
vn -0.8605 -0.0862 0.5020
vn 0.5672 0.7800 0.2642
vn 0.1927 0.9402 0.2808
vn 0.6397 -0.6297 0.4407
vn 0.8678 0.2387 0.4358
vn -0.6304 -0.7244 0.2789
vn -0.2114 -0.8851 0.4145
vn 0.7071 -0.7071 -0.0000
vn 0.7071 0.7071 -0.0000
vn -0.6536 -0.6490 0.3893
vn -0.6536 0.6490 0.3893
vn 0.6536 -0.6493 0.3889
vn 0.0490 -0.9142 0.4024
vn -0.9103 0.0417 0.4119
vn -0.0160 0.9014 0.4327
vn 0.6536 0.6493 0.3889
vn 0.8961 -0.0247 0.4431
vn -0.8825 0.1981 -0.4266
vn -0.6117 0.7392 -0.2817
vn -0.1985 0.9312 -0.3057
vn 0.5264 0.7815 -0.3348
vn 0.8477 -0.1651 -0.5041
vn 0.6139 -0.7384 -0.2791
vn 0.2009 -0.8758 -0.4388
vn -0.6548 -0.6186 -0.4342
vn 0.4588 -0.7790 -0.4274
vn -0.1784 -0.8996 -0.3987
vn 0.0128 -0.0468 -0.9988
vn -0.5437 -0.7646 -0.3460
vn -0.8193 -0.2187 -0.5301
vn -0.6014 0.5925 -0.5360
vn 0.1941 0.8362 -0.5129
vn 0.6113 0.7102 -0.3493
vn 0.8058 0.0785 -0.5869
vn 0.5892 -0.7210 0.3647
vn 0.8326 -0.1817 0.5232
vn -0.0102 -0.0451 0.9989
vn -0.4964 -0.7529 0.4321
vn 0.1829 -0.8888 0.4201
vn -0.5951 0.7273 0.3420
vn -0.7951 0.1493 0.5878
vn 0.6181 0.5829 0.5274
vn -0.1840 0.8256 0.5334
# 54 vertex normals

vt 0.3303 0.9814 0.0000
vt 0.3303 0.9956 0.0000
vt 0.3161 0.9956 0.0000
vt 0.3161 0.9814 0.0000
vt 0.3444 0.9673 0.0000
vt 0.3585 0.9673 0.0000
vt 0.3514 0.9616 0.0000
vt 0.3585 0.9532 0.0000
vt 0.3528 0.9603 0.0000
vt 0.3444 0.9532 0.0000
vt 0.3514 0.9589 0.0000
vt 0.3500 0.9603 0.0000
vt 0.3583 0.9814 0.0000
vt 0.3504 0.9757 0.0000
vt 0.3575 0.9718 0.0000
vt 0.3570 0.9828 0.0000
vt 0.3511 0.9899 0.0000
vt 0.3487 0.9837 0.0000
vt 0.3583 0.9841 0.0000
vt 0.3658 0.9911 0.0000
vt 0.3576 0.9933 0.0000
vt 0.3597 0.9827 0.0000
vt 0.3654 0.9756 0.0000
vt 0.3686 0.9829 0.0000
vt 0.3161 0.9673 0.0000
vt 0.3303 0.9673 0.0000
vt 0.3161 0.9532 0.0000
vt 0.3161 0.9391 0.0000
vt 0.3303 0.9391 0.0000
vt 0.3303 0.9532 0.0000
vt 0.3444 0.9814 0.0000
vt 0.3444 0.9956 0.0000
vt 0.3584 0.9388 0.0000
vt 0.3576 0.9481 0.0000
vt 0.3516 0.9454 0.0000
vt 0.3569 0.9376 0.0000
vt 0.3487 0.9386 0.0000
vt 0.3504 0.9306 0.0000
vt 0.3584 0.9362 0.0000
vt 0.3581 0.9266 0.0000
vt 0.3656 0.9306 0.0000
vt 0.3598 0.9376 0.0000
vt 0.3689 0.9380 0.0000
vt 0.3656 0.9460 0.0000
vt 0.3444 0.9391 0.0000
vt 0.3581 0.9830 0.0000
vt 0.3583 0.9380 0.0000
# 47 texture coords

g SweetPack_Candy_Wrapped_Caramel
s 1
f -38/-47/-54 -37/-46/-53 -36/-45/-52 -35/-44/-51 
f -34/-43/-50 -35/-42/-51 -33/-41/-49 
f -35/-42/-51 -36/-40/-52 -32/-39/-48 
f -36/-40/-52 -31/-38/-47 -30/-37/-46 
f -31/-38/-47 -34/-43/-50 -29/-36/-45 
f -36/-40/-52 -30/-37/-46 -32/-39/-48 
f -31/-38/-47 -29/-36/-45 -30/-37/-46 
f -34/-43/-50 -33/-41/-49 -29/-36/-45 
f -35/-42/-51 -32/-39/-48 -33/-41/-49 
f -32/-35/-48 -28/-34/-44 -27/-33/-43 
f -30/-32/-46 -26/-31/-42 -25/-30/-41 
f -29/-29/-45 -24/-28/-40 -23/-27/-39 
f -33/-26/-49 -22/-25/-38 -21/-24/-37 
f -32/-35/-48 -30/-32/-46 -28/-34/-44 
f -30/-32/-46 -29/-29/-45 -26/-31/-42 
f -29/-29/-45 -33/-26/-49 -24/-28/-40 
f -32/-35/-48 -22/-25/-38 -33/-26/-49 
f -30/-32/-46 -25/-30/-41 -28/-34/-44 
f -29/-29/-45 -23/-27/-39 -26/-31/-42 
f -33/-26/-49 -21/-24/-37 -24/-28/-40 
f -32/-35/-48 -27/-33/-43 -22/-25/-38 
f -35/-44/-51 -34/-23/-50 -20/-22/-36 -38/-47/-54 
f -31/-21/-47 -36/-20/-52 -37/-19/-53 -19/-18/-35 
f -34/-23/-50 -31/-21/-47 -19/-18/-35 -20/-22/-36 
f -38/-47/-54 -18/-17/-34 -17/-16/-33 -37/-46/-53 
f -16/-43/-32 -15/-41/-31 -18/-42/-34 
f -18/-42/-34 -14/-39/-30 -17/-40/-33 
f -17/-40/-33 -13/-37/-29 -12/-38/-28 
f -12/-38/-28 -11/-36/-27 -16/-43/-32 
f -17/-40/-33 -14/-39/-30 -13/-37/-29 
f -12/-38/-28 -13/-37/-29 -11/-36/-27 
f -16/-43/-32 -11/-36/-27 -15/-41/-31 
f -18/-42/-34 -15/-41/-31 -14/-39/-30 
f -14/-15/-30 -10/-14/-26 -9/-13/-25 
f -13/-12/-29 -8/-11/-24 -7/-10/-23 
f -11/-9/-27 -6/-8/-22 -5/-7/-21 
f -15/-6/-31 -4/-5/-20 -3/-4/-19 
f -14/-15/-30 -9/-13/-25 -13/-12/-29 
f -13/-12/-29 -7/-10/-23 -11/-9/-27 
f -11/-9/-27 -5/-7/-21 -15/-6/-31 
f -14/-15/-30 -15/-6/-31 -3/-4/-19 
f -13/-12/-29 -9/-13/-25 -8/-11/-24 
f -11/-9/-27 -7/-10/-23 -6/-8/-22 
f -15/-6/-31 -5/-7/-21 -4/-5/-20 
f -14/-15/-30 -3/-4/-19 -10/-14/-26 
f -18/-17/-34 -38/-47/-54 -20/-22/-36 -16/-43/-32 
f -12/-38/-28 -19/-18/-35 -37/-19/-53 -17/-3/-33 
f -16/-43/-32 -20/-22/-36 -19/-18/-35 -12/-38/-28 
s 2
f -28/-34/-18 -25/-30/-17 -2/-2/-16 
f -26/-31/-15 -23/-27/-14 -2/-2/-16 
f -24/-28/-13 -21/-24/-12 -2/-2/-16 
f -22/-25/-11 -27/-33/-10 -2/-2/-16 
f -27/-33/-10 -28/-34/-18 -2/-2/-16 
f -25/-30/-17 -26/-31/-15 -2/-2/-16 
f -23/-27/-14 -24/-28/-13 -2/-2/-16 
f -21/-24/-12 -22/-25/-11 -2/-2/-16 
f -9/-13/-9 -10/-14/-8 -1/-1/-7 
f -7/-10/-6 -8/-11/-5 -1/-1/-7 
f -5/-7/-4 -6/-8/-3 -1/-1/-7 
f -3/-4/-2 -4/-5/-1 -1/-1/-7 
f -8/-11/-5 -9/-13/-9 -1/-1/-7 
f -6/-8/-3 -7/-10/-6 -1/-1/-7 
f -4/-5/-1 -5/-7/-4 -1/-1/-7 
f -10/-14/-8 -3/-4/-2 -1/-1/-7 
# 8 polygons - 56 triangles

