# 3ds Max Wavefront OBJ Exporter v0.97b - (c)2007 guruware
# File Created: 19.11.2013 20:03:36

#
# object SweetPack_LayerCake_Slice
#

v  0.2272 0.1329 -0.0941
v  0.2412 0.1329 -0.0480
v  0.2412 0.0000 -0.0480
v  0.2272 0.0000 -0.0941
v  -0.0000 0.0000 0.0000
v  0.2398 0.1405 -0.0000
v  0.2352 0.1405 -0.0467
v  0.0000 0.1405 -0.0000
v  0.2412 0.0000 0.0480
v  0.2272 0.0000 0.0941
v  0.2352 0.1405 0.0467
v  0.2460 0.1329 -0.0000
v  0.2412 0.1329 0.0480
v  0.2460 0.0000 -0.0000
v  0.2216 0.1405 0.0918
v  0.2272 0.1329 0.0941
v  0.2216 0.1405 -0.0918
# 17 vertices

vn 0.9057 0.3231 -0.2747
vn 0.9277 0.3244 -0.1847
vn 0.9808 0.0000 -0.1951
vn 0.9569 0.0000 -0.2903
vn 0.0000 -1.0000 -0.0000
vn 0.4550 0.8905 -0.0000
vn 0.4464 0.8905 -0.0884
vn 0.0000 1.0000 -0.0000
vn 0.4463 0.8905 0.0884
vn 0.9459 0.3244 -0.0000
vn 0.9277 0.3244 0.1847
vn 0.9808 0.0000 0.1951
vn 1.0000 0.0000 -0.0000
vn -0.3827 0.0000 0.9239
vn -0.3827 0.0000 -0.9239
vn 0.9056 0.3230 0.2747
vn 0.9569 0.0000 0.2903
vn 0.4371 0.8896 -0.1325
vn 0.4371 0.8896 0.1326
vn -0.3827 -0.0000 -0.9239
# 20 vertex normals

vt 0.6816 0.9089 0.0000
vt 0.6688 0.9089 0.0000
vt 0.6688 0.8808 0.0000
vt 0.6816 0.8808 0.0000
vt 0.7205 0.9857 0.0000
vt 0.7081 0.9896 0.0000
vt 0.6955 0.9255 0.0000
vt 0.6592 0.9212 0.0000
vt 0.6723 0.9225 0.0000
vt 0.6592 0.9892 0.0000
vt 0.6827 0.9896 0.0000
vt 0.6706 0.9857 0.0000
vt 0.6459 0.9226 0.0000
vt 0.6560 0.9089 0.0000
vt 0.6431 0.9089 0.0000
vt 0.6431 0.8808 0.0000
vt 0.6560 0.8808 0.0000
vt 1.7469 0.8808 0.0000
vt 1.6833 0.9105 0.0000
vt 1.7469 0.9105 0.0000
vt 0.7469 0.8808 0.0000
vt 0.6303 0.9089 0.0000
vt 0.6303 0.8808 0.0000
vt 0.6955 0.9908 0.0000
vt 0.6848 0.9261 0.0000
vt 0.6336 0.9261 0.0000
vt 0.6869 0.9197 0.0000
vt 0.6738 0.9160 0.0000
vt 0.6314 0.9197 0.0000
vt 0.6448 0.9159 0.0000
vt 0.6592 0.9144 0.0000
vt 1.6816 0.8808 0.0000
vt 1.6816 0.9089 0.0000
vt 0.6833 0.9105 0.0000
vt 0.7469 0.9105 0.0000
# 35 texture coords

g SweetPack_LayerCake_Slice
s 2
f -17/-35/-20 -16/-34/-19 -15/-33/-18 -14/-32/-17 
s 1
f -14/-31/-16 -15/-30/-16 -13/-29/-16 
s 2
f -12/-28/-15 -11/-27/-14 -10/-26/-13 
s 1
f -13/-29/-16 -9/-25/-16 -8/-24/-16 
s 2
f -12/-28/-15 -10/-26/-13 -7/-23/-12 
f -6/-22/-11 -5/-21/-10 -9/-20/-9 -4/-19/-8 
s off
f -13/-18/-7 -3/-17/-7 -10/-16/-7 
f -14/-32/-6 -13/-15/-6 -17/-35/-6 
s 2
f -6/-22/-11 -4/-19/-8 -15/-33/-18 -16/-34/-19 
f -2/-14/-5 -8/-13/-4 -9/-20/-9 -5/-21/-10 
s 1
f -15/-30/-16 -4/-12/-16 -13/-29/-16 
s 2
f -11/-27/-14 -1/-11/-3 -10/-26/-13 
s 1
f -13/-29/-16 -4/-12/-16 -9/-25/-16 
s 2
f -10/-26/-13 -3/-10/-2 -7/-23/-12 
f -17/-9/-20 -1/-11/-3 -11/-27/-14 -16/-8/-19 
f -3/-10/-2 -2/-7/-5 -5/-6/-10 -7/-23/-12 
f -16/-8/-19 -11/-27/-14 -12/-28/-15 -6/-5/-11 
f -7/-23/-12 -5/-6/-10 -6/-5/-11 -12/-28/-15 
s off
f -13/-18/-7 -8/-4/-7 -2/-3/-7 
f -13/-18/-7 -2/-3/-7 -3/-17/-7 
f -13/-15/-1 -1/-2/-1 -17/-35/-1 
f -13/-15/-6 -10/-1/-6 -1/-2/-6 
# 8 polygons - 14 triangles

