# 3ds Max Wavefront OBJ Exporter v0.97b - (c)2007 guruware
# File Created: 19.11.2013 20:04:02

#
# object SweetPack_BelgianWaffle_Square
#

v  0.0064 0.0296 0.0064
v  0.0064 0.0296 -0.0064
v  -0.0064 0.0296 -0.0064
v  -0.0064 0.0296 0.0064
v  -0.0963 0.0156 0.0963
v  -0.1032 0.0060 0.1032
v  -0.0936 0.0060 0.1064
v  -0.0891 0.0156 0.0993
v  -0.0993 0.0156 0.0891
v  -0.1064 0.0060 0.0936
v  -0.0859 0.0217 0.0859
v  -0.0061 0.0211 0.0946
v  0.0859 0.0217 0.0859
v  0.0946 0.0211 0.0061
v  0.0859 0.0217 -0.0859
v  0.0061 0.0211 -0.0946
v  -0.0859 0.0217 -0.0859
v  -0.0946 0.0211 -0.0061
v  0.0061 0.0211 0.0946
v  -0.0061 0.0211 -0.0946
v  0.0946 0.0211 -0.0061
v  -0.0946 0.0211 0.0061
v  -0.0921 0.0196 0.0921
v  -0.0864 0.0196 0.0946
v  0.0921 0.0196 0.0921
v  0.0963 0.0156 0.0963
v  0.0993 0.0156 0.0891
v  0.0946 0.0196 0.0864
v  -0.0921 0.0196 -0.0921
v  -0.0963 0.0156 -0.0963
v  -0.0993 0.0156 -0.0891
v  -0.0946 0.0196 -0.0864
v  0.0921 0.0196 -0.0921
v  0.0963 0.0156 -0.0963
v  0.0891 0.0156 -0.0993
v  0.0864 0.0196 -0.0946
v  -0.0946 0.0196 0.0864
v  0.0864 0.0196 0.0946
v  0.0891 0.0156 0.0993
v  -0.0864 0.0196 -0.0946
v  -0.0891 0.0156 -0.0993
v  0.0946 0.0196 -0.0864
v  0.0993 0.0156 -0.0891
v  -0.0062 0.0171 0.0993
v  0.0993 0.0171 0.0062
v  0.0062 0.0171 -0.0993
v  -0.0993 0.0171 -0.0062
v  0.0062 0.0171 0.0993
v  -0.0062 0.0171 -0.0993
v  0.0993 0.0171 -0.0062
v  -0.0993 0.0171 0.0062
v  -0.0064 0.0060 0.1066
v  0.1064 0.0060 0.0936
v  0.1066 0.0060 0.0064
v  0.0936 0.0060 -0.1064
v  0.0064 0.0060 -0.1066
v  -0.1064 0.0060 -0.0936
v  -0.1066 0.0060 -0.0064
v  -0.1066 0.0060 0.0064
v  0.1066 0.0060 -0.0064
v  0.1064 0.0060 -0.0936
v  -0.0064 0.0060 -0.1066
v  0.0064 0.0060 0.1066
v  0.0936 0.0060 0.1064
v  -0.0936 0.0060 -0.1064
v  0.1032 0.0060 0.1032
v  0.1032 0.0060 -0.1032
v  -0.1032 0.0060 -0.1032
v  -0.0064 -0.0060 0.1066
v  -0.0936 -0.0060 0.1064
v  0.1066 -0.0060 0.0064
v  0.1064 -0.0060 0.0936
v  0.0064 -0.0060 -0.1066
v  0.0936 -0.0060 -0.1064
v  -0.1066 -0.0060 -0.0064
v  -0.1064 -0.0060 -0.0936
v  -0.1066 -0.0060 0.0064
v  0.1064 -0.0060 -0.0936
v  0.1066 -0.0060 -0.0064
v  -0.0064 -0.0060 -0.1066
v  0.0936 -0.0060 0.1064
v  0.0064 -0.0060 0.1066
v  -0.0936 -0.0060 -0.1064
v  -0.1064 -0.0060 0.0936
v  0.1032 -0.0060 0.1032
v  -0.1032 -0.0060 0.1032
v  0.1032 -0.0060 -0.1032
v  -0.1032 -0.0060 -0.1032
v  0.0064 -0.0296 0.0064
v  -0.0064 -0.0296 0.0064
v  -0.0064 -0.0296 -0.0064
v  0.0064 -0.0296 -0.0064
v  -0.0963 -0.0156 0.0963
v  -0.0891 -0.0156 0.0993
v  -0.0993 -0.0156 0.0891
v  -0.0061 -0.0211 0.0946
v  -0.0859 -0.0217 0.0859
v  0.0946 -0.0211 0.0061
v  0.0859 -0.0217 0.0859
v  0.0061 -0.0211 -0.0946
v  0.0859 -0.0217 -0.0859
v  -0.0946 -0.0211 -0.0061
v  -0.0859 -0.0217 -0.0859
v  0.0061 -0.0211 0.0946
v  -0.0061 -0.0211 -0.0946
v  0.0946 -0.0211 -0.0061
v  -0.0946 -0.0211 0.0061
v  -0.0921 -0.0196 0.0921
v  -0.0864 -0.0196 0.0946
v  0.0921 -0.0196 0.0921
v  0.0946 -0.0196 0.0864
v  0.0993 -0.0156 0.0891
v  0.0963 -0.0156 0.0963
v  -0.0921 -0.0196 -0.0921
v  -0.0946 -0.0196 -0.0864
v  -0.0993 -0.0156 -0.0891
v  -0.0963 -0.0156 -0.0963
v  0.0921 -0.0196 -0.0921
v  0.0864 -0.0196 -0.0946
v  0.0891 -0.0156 -0.0993
v  0.0963 -0.0156 -0.0963
v  -0.0946 -0.0196 0.0864
v  0.0864 -0.0196 0.0946
v  0.0891 -0.0156 0.0993
v  -0.0864 -0.0196 -0.0946
v  -0.0891 -0.0156 -0.0993
v  0.0946 -0.0196 -0.0864
v  0.0993 -0.0156 -0.0891
v  -0.0062 -0.0171 0.0993
v  0.0993 -0.0171 0.0062
v  0.0062 -0.0171 -0.0993
v  -0.0993 -0.0171 -0.0062
v  0.0062 -0.0171 0.0993
v  -0.0062 -0.0171 -0.0993
v  0.0993 -0.0171 -0.0062
v  -0.0993 -0.0171 0.0062
# 136 vertices

vn 0.0362 0.9987 0.0362
vn 0.0362 0.9987 -0.0362
vn -0.0362 0.9987 -0.0362
vn -0.0362 0.9987 0.0362
vn -0.4568 0.7554 0.4698
vn -0.6611 0.3470 0.6653
vn -0.1680 0.3301 0.9289
vn -0.1383 0.7060 0.6946
vn -0.6972 0.7052 0.1284
vn -0.9318 0.3245 0.1624
vn -0.1122 0.9873 0.1122
vn -0.0050 0.9180 0.3965
vn 0.1122 0.9873 0.1122
vn 0.3965 0.9180 0.0050
vn 0.1122 0.9873 -0.1122
vn 0.0050 0.9180 -0.3965
vn -0.1122 0.9873 -0.1122
vn -0.3965 0.9180 -0.0050
vn 0.0049 0.9181 0.3964
vn -0.0049 0.9181 -0.3964
vn 0.3964 0.9181 -0.0049
vn -0.3964 0.9181 0.0049
vn -0.3079 0.8983 0.3135
vn -0.0902 0.8861 0.4546
vn 0.3135 0.8983 0.3079
vn 0.4585 0.7554 0.4681
vn 0.6928 0.7089 0.1323
vn 0.4546 0.8861 0.0902
vn -0.3135 0.8983 -0.3079
vn -0.4585 0.7554 -0.4681
vn -0.6928 0.7089 -0.1323
vn -0.4546 0.8861 -0.0902
vn 0.3079 0.8983 -0.3135
vn 0.4681 0.7554 -0.4585
vn 0.1323 0.7089 -0.6928
vn 0.0902 0.8861 -0.4546
vn -0.4536 0.8869 0.0873
vn 0.0873 0.8869 0.4536
vn 0.1344 0.7024 0.6990
vn -0.0873 0.8869 -0.4536
vn -0.1344 0.7024 -0.6990
vn 0.4536 0.8869 -0.0873
vn 0.6990 0.7024 -0.1344
vn -0.0045 0.6594 0.7518
vn 0.7518 0.6594 0.0045
vn 0.0045 0.6594 -0.7518
vn -0.7518 0.6594 -0.0045
vn 0.0062 0.6584 0.7526
vn -0.0062 0.6584 -0.7526
vn 0.7526 0.6584 -0.0062
vn -0.7526 0.6584 0.0062
vn -0.0014 0.2870 0.9579
vn 0.9318 0.3237 0.1640
vn 0.9579 0.2870 0.0014
vn 0.1640 0.3237 -0.9318
vn 0.0014 0.2870 -0.9579
vn -0.9318 0.3237 -0.1640
vn -0.9579 0.2870 -0.0014
vn -0.9576 0.2882 0.0033
vn 0.9576 0.2882 -0.0033
vn 0.9289 0.3309 -0.1664
vn -0.0033 0.2882 -0.9576
vn 0.0033 0.2882 0.9576
vn 0.1664 0.3309 0.9289
vn -0.1664 0.3309 -0.9289
vn 0.6611 0.3470 0.6653
vn 0.6653 0.3470 -0.6611
vn -0.6611 0.3470 -0.6653
vn -0.0014 -0.2870 0.9579
vn -0.1680 -0.3301 0.9289
vn 0.9579 -0.2870 0.0014
vn 0.9318 -0.3237 0.1640
vn 0.0014 -0.2870 -0.9579
vn 0.1640 -0.3237 -0.9318
vn -0.9579 -0.2870 -0.0014
vn -0.9318 -0.3237 -0.1640
vn -0.9576 -0.2882 0.0033
vn 0.9289 -0.3309 -0.1664
vn 0.9576 -0.2882 -0.0033
vn -0.0033 -0.2882 -0.9576
vn 0.1664 -0.3309 0.9289
vn 0.0033 -0.2882 0.9576
vn -0.1664 -0.3309 -0.9289
vn -0.9318 -0.3245 0.1624
vn 0.6611 -0.3470 0.6653
vn -0.6611 -0.3470 0.6653
vn 0.6653 -0.3470 -0.6611
vn -0.6611 -0.3470 -0.6653
vn 0.0362 -0.9987 0.0362
vn -0.0362 -0.9987 0.0362
vn -0.0362 -0.9987 -0.0362
vn 0.0362 -0.9987 -0.0362
vn -0.4568 -0.7554 0.4698
vn -0.1383 -0.7060 0.6946
vn -0.6972 -0.7052 0.1284
vn -0.0050 -0.9180 0.3965
vn -0.1122 -0.9873 0.1122
vn 0.3965 -0.9180 0.0050
vn 0.1122 -0.9873 0.1122
vn 0.0050 -0.9180 -0.3965
vn 0.1122 -0.9873 -0.1122
vn -0.3965 -0.9180 -0.0050
vn -0.1122 -0.9873 -0.1122
vn 0.0049 -0.9181 0.3964
vn -0.0049 -0.9181 -0.3964
vn 0.3964 -0.9181 -0.0049
vn -0.3964 -0.9181 0.0049
vn -0.3079 -0.8983 0.3135
vn -0.0902 -0.8861 0.4546
vn 0.3135 -0.8983 0.3079
vn 0.4546 -0.8861 0.0902
vn 0.6928 -0.7089 0.1323
vn 0.4585 -0.7554 0.4681
vn -0.3135 -0.8983 -0.3079
vn -0.4546 -0.8861 -0.0902
vn -0.6928 -0.7089 -0.1323
vn -0.4585 -0.7554 -0.4681
vn 0.3079 -0.8983 -0.3135
vn 0.0902 -0.8861 -0.4546
vn 0.1323 -0.7089 -0.6928
vn 0.4681 -0.7554 -0.4585
vn -0.4536 -0.8869 0.0873
vn 0.0873 -0.8869 0.4536
vn 0.1344 -0.7024 0.6990
vn -0.0873 -0.8869 -0.4536
vn -0.1344 -0.7024 -0.6990
vn 0.4536 -0.8869 -0.0873
vn 0.6990 -0.7024 -0.1344
vn -0.0045 -0.6594 0.7518
vn 0.7518 -0.6594 0.0045
vn 0.0045 -0.6594 -0.7518
vn -0.7518 -0.6594 -0.0045
vn 0.0062 -0.6584 0.7526
vn -0.0062 -0.6584 -0.7526
vn 0.7526 -0.6584 -0.0062
vn -0.7526 -0.6584 0.0062
# 136 vertex normals

vt 0.8863 0.9351 0.0000
vt 0.8863 0.9405 0.0000
vt 0.8809 0.9405 0.0000
vt 0.8809 0.9351 0.0000
vt 1.9249 0.8965 0.0000
vt 1.9279 0.8934 0.0000
vt 1.9219 0.8902 0.0000
vt 1.9206 0.8943 0.0000
vt 1.9271 0.9008 0.0000
vt 1.9312 0.8995 0.0000
vt 1.8863 0.9351 0.0000
vt 1.9203 0.9011 0.0000
vt 1.8863 0.8971 0.0000
vt 0.9203 0.9011 0.0000
vt 0.9243 0.9351 0.0000
vt 0.9203 0.9745 0.0000
vt 0.8863 0.9785 0.0000
vt 1.8863 0.9405 0.0000
vt 1.9203 0.9745 0.0000
vt 1.9243 0.9405 0.0000
vt 0.8809 0.8971 0.0000
vt 0.8863 0.8971 0.0000
vt 0.8809 0.9785 0.0000
vt 0.9243 0.9405 0.0000
vt 1.9243 0.9351 0.0000
vt 1.8863 0.9785 0.0000
vt 1.9228 0.8986 0.0000
vt 1.9199 0.8971 0.0000
vt 0.9228 0.8986 0.0000
vt 0.9249 0.8965 0.0000
vt 0.9271 0.9008 0.0000
vt 0.9243 0.9015 0.0000
vt 1.9228 0.9771 0.0000
vt 1.9249 0.9791 0.0000
vt 1.9271 0.9748 0.0000
vt 1.9243 0.9742 0.0000
vt 0.9228 0.9771 0.0000
vt 0.9249 0.9791 0.0000
vt 0.9206 0.9813 0.0000
vt 0.9199 0.9785 0.0000
vt 1.9243 0.9015 0.0000
vt 0.9199 0.8971 0.0000
vt 0.9206 0.8943 0.0000
vt 1.9199 0.9785 0.0000
vt 1.9206 0.9813 0.0000
vt 0.9243 0.9742 0.0000
vt 0.9271 0.9748 0.0000
vt 1.8863 0.8943 0.0000
vt 0.9271 0.9351 0.0000
vt 0.8863 0.9813 0.0000
vt 1.9271 0.9405 0.0000
vt 0.8809 0.8943 0.0000
vt 0.8863 0.8943 0.0000
vt 0.8809 0.9813 0.0000
vt 0.9271 0.9405 0.0000
vt 1.9271 0.9351 0.0000
vt 1.8863 0.9813 0.0000
vt 1.8863 0.8902 0.0000
vt 0.9312 0.8995 0.0000
vt 0.9312 0.9351 0.0000
vt 0.9219 0.9855 0.0000
vt 0.8863 0.9855 0.0000
vt 1.9312 0.9761 0.0000
vt 1.9312 0.9405 0.0000
vt 1.9312 0.9351 0.0000
vt 0.9312 0.9405 0.0000
vt 0.9312 0.9761 0.0000
vt 0.8809 0.9855 0.0000
vt 0.8863 0.8902 0.0000
vt 0.9219 0.8902 0.0000
vt 0.8809 0.8902 0.0000
vt 1.8863 0.9855 0.0000
vt 1.9219 0.9855 0.0000
vt 0.9279 0.8934 0.0000
vt 0.9279 0.9822 0.0000
vt 1.9279 0.9822 0.0000
vt 1.8863 0.8844 0.0000
vt 1.9238 0.8844 0.0000
vt 0.9370 0.9351 0.0000
vt 0.9370 0.8976 0.0000
vt 0.8863 0.9912 0.0000
vt 0.9238 0.9912 0.0000
vt 1.9370 0.9405 0.0000
vt 1.9370 0.9780 0.0000
vt 1.9370 0.9351 0.0000
vt 0.9370 0.9780 0.0000
vt 0.9370 0.9405 0.0000
vt 0.8809 0.9912 0.0000
vt 0.9238 0.8844 0.0000
vt 0.8863 0.8844 0.0000
vt 0.8809 0.8844 0.0000
vt 1.9238 0.9912 0.0000
vt 1.8863 0.9912 0.0000
vt 1.9370 0.8976 0.0000
vt 0.9324 0.8890 0.0000
vt 1.9324 0.8890 0.0000
vt 0.9324 0.9867 0.0000
vt 1.9324 0.9867 0.0000
vt 1.8809 0.9351 0.0000
vt 1.8809 0.9405 0.0000
vt 1.8809 0.8971 0.0000
vt 1.8809 0.9785 0.0000
vt 1.8809 0.8943 0.0000
vt 1.8809 0.9813 0.0000
vt 1.8809 0.9855 0.0000
vt 1.8809 0.8902 0.0000
# 106 texture coords

g SweetPack_BelgianWaffle_Square
s 1
f -136/-106/-136 -135/-105/-135 -134/-104/-134 -133/-103/-133 
f -132/-102/-132 -131/-101/-131 -130/-100/-130 -129/-99/-129 
f -128/-98/-128 -127/-97/-127 -131/-101/-131 -132/-102/-132 
f -133/-96/-133 -126/-95/-126 -125/-94/-125 
f -136/-106/-136 -124/-93/-124 -123/-92/-123 
f -135/-105/-135 -122/-91/-122 -121/-90/-121 
f -134/-89/-134 -120/-88/-120 -119/-87/-119 
f -125/-86/-125 -118/-85/-118 -136/-106/-136 -133/-103/-133 
f -121/-90/-121 -117/-84/-117 -134/-104/-134 -135/-105/-135 
f -136/-106/-136 -123/-92/-123 -116/-83/-116 -135/-105/-135 
f -134/-89/-134 -119/-87/-119 -115/-82/-115 -133/-96/-133 
f -135/-105/-135 -116/-83/-116 -122/-91/-122 
f -136/-106/-136 -118/-85/-118 -124/-93/-124 
f -134/-89/-134 -117/-81/-117 -120/-88/-120 
f -115/-82/-115 -126/-95/-126 -133/-96/-133 
f -114/-80/-114 -132/-102/-132 -129/-99/-129 -113/-79/-113 
f -112/-78/-112 -111/-77/-111 -110/-76/-110 -109/-75/-109 
f -108/-74/-108 -107/-73/-107 -106/-72/-106 -105/-71/-105 
f -104/-70/-104 -103/-69/-103 -102/-68/-102 -101/-67/-101 
f -100/-66/-100 -128/-98/-128 -132/-102/-132 -114/-80/-114 
f -99/-65/-99 -98/-64/-98 -111/-77/-111 -112/-78/-112 
f -97/-63/-97 -96/-62/-96 -107/-73/-107 -108/-74/-108 
f -95/-61/-95 -94/-60/-94 -103/-69/-103 -104/-70/-104 
f -93/-59/-93 -125/-94/-125 -113/-79/-113 -129/-99/-129 
f -92/-58/-92 -123/-92/-123 -109/-75/-109 -110/-76/-110 
f -91/-57/-91 -121/-90/-121 -101/-67/-101 -102/-68/-102 
f -90/-56/-90 -119/-87/-119 -105/-71/-105 -106/-72/-106 
f -93/-55/-93 -89/-54/-89 -118/-85/-118 -125/-86/-125 
f -91/-57/-91 -88/-53/-88 -117/-84/-117 -121/-90/-121 
f -123/-92/-123 -92/-58/-92 -87/-52/-87 -116/-83/-116 
f -119/-87/-119 -90/-56/-90 -86/-51/-86 -115/-82/-115 
f -94/-60/-94 -95/-61/-95 -116/-83/-116 -87/-52/-87 
f -98/-64/-98 -99/-65/-99 -118/-85/-118 -89/-54/-89 
f -96/-62/-96 -97/-63/-97 -117/-81/-117 -88/-50/-88 
f -128/-98/-128 -100/-66/-100 -115/-82/-115 -86/-51/-86 
f -113/-79/-113 -126/-95/-126 -114/-80/-114 
f -109/-75/-109 -124/-93/-124 -112/-78/-112 
f -105/-71/-105 -120/-88/-120 -108/-74/-108 
f -101/-67/-101 -122/-91/-122 -104/-70/-104 
f -114/-80/-114 -126/-95/-126 -100/-66/-100 
f -112/-78/-112 -124/-93/-124 -99/-65/-99 
f -108/-74/-108 -120/-88/-120 -97/-63/-97 
f -104/-70/-104 -122/-91/-122 -95/-61/-95 
f -93/-59/-93 -129/-99/-129 -130/-100/-130 -85/-49/-85 
f -92/-58/-92 -110/-76/-110 -84/-48/-84 -83/-47/-83 
f -91/-57/-91 -102/-68/-102 -82/-46/-82 -81/-45/-81 
f -90/-56/-90 -106/-72/-106 -80/-44/-80 -79/-43/-79 
f -86/-51/-86 -90/-56/-90 -79/-43/-79 -78/-42/-78 
f -94/-60/-94 -87/-52/-87 -77/-41/-77 -76/-40/-76 
f -75/-39/-75 -88/-53/-88 -91/-57/-91 -81/-45/-81 
f -98/-64/-98 -89/-54/-89 -74/-38/-74 -73/-37/-73 
f -74/-38/-74 -89/-54/-89 -93/-55/-93 -85/-36/-85 
f -96/-62/-96 -88/-50/-88 -75/-35/-75 -72/-34/-72 
f -87/-52/-87 -92/-58/-92 -83/-47/-83 -77/-41/-77 
f -128/-98/-128 -86/-51/-86 -78/-42/-78 -127/-97/-127 
f -111/-77/-111 -98/-64/-98 -73/-37/-73 -71/-33/-71 
f -103/-69/-103 -94/-60/-94 -76/-40/-76 -70/-32/-70 
f -107/-73/-107 -96/-62/-96 -72/-34/-72 -69/-31/-69 
f -110/-76/-110 -111/-77/-111 -71/-33/-71 -84/-48/-84 
f -102/-68/-102 -103/-69/-103 -70/-32/-70 -82/-46/-82 
f -106/-72/-106 -107/-73/-107 -69/-31/-69 -80/-44/-80 
f -68/-30/-68 -85/-49/-85 -130/-100/-130 -67/-29/-67 
f -66/-28/-66 -83/-47/-83 -84/-48/-84 -65/-27/-65 
f -64/-26/-64 -81/-45/-81 -82/-46/-82 -63/-25/-63 
f -62/-24/-62 -79/-43/-79 -80/-44/-80 -61/-23/-61 
f -60/-22/-60 -78/-42/-78 -79/-43/-79 -62/-24/-62 
f -59/-21/-59 -76/-40/-76 -77/-41/-77 -58/-20/-58 
f -75/-39/-75 -81/-45/-81 -64/-26/-64 -57/-19/-57 
f -56/-18/-56 -73/-37/-73 -74/-38/-74 -55/-17/-55 
f -74/-38/-74 -85/-36/-85 -68/-16/-68 -55/-17/-55 
f -54/-15/-54 -72/-34/-72 -75/-35/-75 -57/-14/-57 
f -58/-20/-58 -77/-41/-77 -83/-47/-83 -66/-28/-66 
f -53/-13/-53 -127/-97/-127 -78/-42/-78 -60/-22/-60 
f -52/-12/-52 -71/-33/-71 -73/-37/-73 -56/-18/-56 
f -131/-101/-131 -51/-11/-51 -67/-29/-67 -130/-100/-130 
f -50/-10/-50 -70/-32/-70 -76/-40/-76 -59/-21/-59 
f -49/-9/-49 -69/-31/-69 -72/-34/-72 -54/-15/-54 
f -65/-27/-65 -84/-48/-84 -71/-33/-71 -52/-12/-52 
f -127/-97/-127 -53/-13/-53 -51/-11/-51 -131/-101/-131 
f -63/-25/-63 -82/-46/-82 -70/-32/-70 -50/-10/-50 
f -61/-23/-61 -80/-44/-80 -69/-31/-69 -49/-9/-49 
f -126/-95/-126 -113/-79/-113 -125/-94/-125 
f -124/-93/-124 -109/-75/-109 -123/-92/-123 
f -122/-91/-122 -101/-67/-101 -121/-90/-121 
f -120/-88/-120 -105/-71/-105 -119/-87/-119 
f -116/-83/-116 -95/-61/-95 -122/-91/-122 
f -118/-85/-118 -99/-65/-99 -124/-93/-124 
f -117/-81/-117 -97/-63/-97 -120/-88/-120 
f -115/-82/-115 -100/-66/-100 -126/-95/-126 
f -48/-96/-48 -47/-8/-47 -46/-7/-46 -45/-89/-45 
f -44/-102/-44 -43/-99/-43 -67/-100/-67 -51/-101/-51 
f -42/-98/-42 -44/-102/-44 -51/-101/-51 -53/-97/-53 
f -47/-96/-47 -41/-94/-41 -40/-95/-40 
f -48/-96/-48 -39/-82/-39 -38/-95/-38 
f -45/-89/-45 -37/-81/-37 -36/-88/-36 
f -46/-89/-46 -35/-87/-35 -34/-88/-34 
f -41/-6/-41 -47/-8/-47 -48/-96/-48 -33/-94/-33 
f -37/-81/-37 -45/-89/-45 -46/-7/-46 -32/-5/-32 
f -48/-96/-48 -45/-89/-45 -31/-87/-31 -39/-82/-39 
f -46/-89/-46 -47/-96/-47 -30/-82/-30 -35/-87/-35 
f -45/-89/-45 -36/-88/-36 -31/-87/-31 
f -48/-96/-48 -38/-95/-38 -33/-94/-33 
f -46/-89/-46 -34/-88/-34 -32/-81/-32 
f -30/-82/-30 -47/-96/-47 -40/-95/-40 
f -29/-80/-29 -28/-79/-28 -43/-99/-43 -44/-102/-44 
f -27/-80/-27 -26/-66/-26 -25/-98/-25 -24/-102/-24 
f -23/-74/-23 -22/-71/-22 -21/-72/-21 -20/-73/-20 
f -19/-74/-19 -18/-63/-18 -17/-62/-17 -16/-73/-16 
f -15/-66/-15 -29/-80/-29 -44/-102/-44 -42/-98/-42 
f -14/-79/-14 -27/-80/-27 -24/-102/-24 -13/-99/-13 
f -12/-63/-12 -23/-74/-23 -20/-73/-20 -11/-62/-11 
f -10/-71/-10 -19/-74/-19 -16/-73/-16 -9/-72/-9 
f -8/-59/-8 -43/-99/-43 -28/-79/-28 -41/-94/-41 
f -7/-51/-7 -25/-98/-25 -26/-66/-26 -39/-82/-39 
f -6/-50/-6 -17/-62/-17 -18/-63/-18 -37/-81/-37 
f -5/-56/-5 -21/-72/-21 -22/-71/-22 -35/-87/-35 
f -8/-4/-8 -41/-6/-41 -33/-94/-33 -4/-59/-4 
f -6/-50/-6 -37/-81/-37 -32/-5/-32 -3/-3/-3 
f -39/-82/-39 -31/-87/-31 -2/-56/-2 -7/-51/-7 
f -35/-87/-35 -30/-82/-30 -1/-51/-1 -5/-56/-5 
f -9/-72/-9 -2/-56/-2 -31/-87/-31 -10/-71/-10 
f -13/-99/-13 -4/-59/-4 -33/-94/-33 -14/-79/-14 
f -11/-62/-11 -3/-50/-3 -32/-81/-32 -12/-63/-12 
f -42/-98/-42 -1/-51/-1 -30/-82/-30 -15/-66/-15 
f -28/-79/-28 -29/-80/-29 -40/-95/-40 
f -26/-66/-26 -27/-80/-27 -38/-95/-38 
f -22/-71/-22 -23/-74/-23 -34/-88/-34 
f -18/-63/-18 -19/-74/-19 -36/-88/-36 
f -29/-80/-29 -15/-66/-15 -40/-95/-40 
f -27/-80/-27 -14/-79/-14 -38/-95/-38 
f -23/-74/-23 -12/-63/-12 -34/-88/-34 
f -19/-74/-19 -10/-71/-10 -36/-88/-36 
f -8/-59/-8 -68/-49/-68 -67/-100/-67 -43/-99/-43 
f -7/-51/-7 -66/-42/-66 -65/-97/-65 -25/-98/-25 
f -6/-50/-6 -64/-35/-64 -63/-34/-63 -17/-62/-17 
f -5/-56/-5 -62/-43/-62 -61/-44/-61 -21/-72/-21 
f -1/-51/-1 -60/-42/-60 -62/-43/-62 -5/-56/-5 
f -9/-72/-9 -59/-44/-59 -58/-43/-58 -2/-56/-2 
f -57/-2/-57 -64/-35/-64 -6/-50/-6 -3/-3/-3 
f -13/-99/-13 -56/-100/-56 -55/-49/-55 -4/-59/-4 
f -55/-49/-55 -68/-1/-68 -8/-4/-8 -4/-59/-4 
f -11/-62/-11 -54/-34/-54 -57/-35/-57 -3/-50/-3 
f -2/-56/-2 -58/-43/-58 -66/-42/-66 -7/-51/-7 
f -42/-98/-42 -53/-97/-53 -60/-42/-60 -1/-51/-1 
f -24/-102/-24 -52/-101/-52 -56/-100/-56 -13/-99/-13 
f -16/-73/-16 -50/-31/-50 -59/-44/-59 -9/-72/-9 
f -20/-73/-20 -49/-31/-49 -54/-34/-54 -11/-62/-11 
f -25/-98/-25 -65/-97/-65 -52/-101/-52 -24/-102/-24 
f -17/-62/-17 -63/-34/-63 -50/-31/-50 -16/-73/-16 
f -21/-72/-21 -61/-44/-61 -49/-31/-49 -20/-73/-20 
f -40/-95/-40 -41/-94/-41 -28/-79/-28 
f -38/-95/-38 -39/-82/-39 -26/-66/-26 
f -36/-88/-36 -37/-81/-37 -18/-63/-18 
f -34/-88/-34 -35/-87/-35 -22/-71/-22 
f -31/-87/-31 -36/-88/-36 -10/-71/-10 
f -33/-94/-33 -38/-95/-38 -14/-79/-14 
f -32/-81/-32 -34/-88/-34 -12/-63/-12 
f -30/-82/-30 -40/-95/-40 -15/-66/-15 
# 110 polygons - 48 triangles

