# 3ds Max Wavefront OBJ Exporter v0.97b - (c)2007 guruware
# File Created: 19.11.2013 20:04:04

#
# object SweetPack_Candy_Button
#

v  0.0000 0.0137 -0.0123
v  -0.0091 0.0130 -0.0124
v  -0.0109 0.0130 -0.0000
v  0.0000 0.0143 -0.0000
v  -0.0095 0.0102 -0.0231
v  -0.0056 0.0130 -0.0167
v  0.0000 0.0130 -0.0182
v  0.0000 0.0102 -0.0258
v  -0.0156 0.0102 -0.0146
v  -0.0176 0.0102 -0.0000
v  -0.0114 0.0056 -0.0260
v  0.0000 0.0056 -0.0294
v  -0.0189 0.0056 -0.0157
v  -0.0209 0.0056 -0.0000
v  -0.0095 -0.0102 -0.0231
v  -0.0114 -0.0056 -0.0260
v  0.0000 -0.0056 -0.0294
v  0.0000 -0.0102 -0.0258
v  -0.0156 -0.0102 -0.0146
v  -0.0189 -0.0056 -0.0157
v  -0.0176 -0.0102 -0.0000
v  -0.0209 -0.0056 -0.0000
v  -0.0056 -0.0130 -0.0167
v  0.0000 -0.0130 -0.0182
v  -0.0091 -0.0130 -0.0124
v  -0.0109 -0.0130 -0.0000
v  0.0000 -0.0137 -0.0123
v  0.0000 -0.0143 -0.0000
v  0.0000 0.0047 -0.0315
v  0.0000 -0.0047 -0.0315
v  -0.0126 -0.0047 -0.0277
v  -0.0126 0.0047 -0.0277
v  -0.0209 -0.0047 -0.0163
v  -0.0209 0.0047 -0.0163
v  -0.0230 -0.0047 -0.0000
v  -0.0230 0.0047 -0.0000
v  0.0109 0.0130 -0.0000
v  0.0091 0.0130 -0.0124
v  0.0095 0.0102 -0.0231
v  0.0056 0.0130 -0.0167
v  0.0156 0.0102 -0.0146
v  0.0176 0.0102 -0.0000
v  0.0114 0.0056 -0.0260
v  0.0189 0.0056 -0.0157
v  0.0209 0.0056 -0.0000
v  0.0095 -0.0102 -0.0231
v  0.0114 -0.0056 -0.0260
v  0.0156 -0.0102 -0.0146
v  0.0189 -0.0056 -0.0157
v  0.0176 -0.0102 -0.0000
v  0.0209 -0.0056 -0.0000
v  0.0056 -0.0130 -0.0167
v  0.0091 -0.0130 -0.0124
v  0.0109 -0.0130 -0.0000
v  0.0126 0.0047 -0.0277
v  0.0126 -0.0047 -0.0277
v  0.0209 0.0047 -0.0163
v  0.0209 -0.0047 -0.0163
v  0.0230 0.0047 -0.0000
v  0.0230 -0.0047 -0.0000
v  0.0000 0.0137 0.0123
v  -0.0091 0.0130 0.0124
v  -0.0095 0.0102 0.0231
v  0.0000 0.0102 0.0258
v  0.0000 0.0130 0.0182
v  -0.0056 0.0130 0.0167
v  -0.0156 0.0102 0.0146
v  -0.0114 0.0056 0.0260
v  0.0000 0.0056 0.0294
v  -0.0189 0.0056 0.0157
v  -0.0095 -0.0102 0.0231
v  0.0000 -0.0102 0.0258
v  0.0000 -0.0056 0.0294
v  -0.0114 -0.0056 0.0260
v  -0.0156 -0.0102 0.0146
v  -0.0189 -0.0056 0.0157
v  -0.0056 -0.0130 0.0167
v  0.0000 -0.0130 0.0182
v  -0.0091 -0.0130 0.0124
v  0.0000 -0.0137 0.0123
v  0.0000 0.0047 0.0315
v  -0.0126 0.0047 0.0277
v  -0.0126 -0.0047 0.0277
v  0.0000 -0.0047 0.0315
v  -0.0209 0.0047 0.0163
v  -0.0209 -0.0047 0.0163
v  0.0091 0.0130 0.0124
v  0.0095 0.0102 0.0231
v  0.0056 0.0130 0.0167
v  0.0156 0.0102 0.0146
v  0.0114 0.0056 0.0260
v  0.0189 0.0056 0.0157
v  0.0095 -0.0102 0.0231
v  0.0114 -0.0056 0.0260
v  0.0156 -0.0102 0.0146
v  0.0189 -0.0056 0.0157
v  0.0056 -0.0130 0.0167
v  0.0091 -0.0130 0.0124
v  0.0126 -0.0047 0.0277
v  0.0126 0.0047 0.0277
v  0.0209 -0.0047 0.0163
v  0.0209 0.0047 0.0163
# 102 vertices

vn -0.0000 0.9982 -0.0599
vn -0.2352 0.9663 -0.1047
vn -0.2609 0.9654 0.0000
vn 0.0000 1.0000 -0.0000
vn -0.3650 0.7732 -0.5185
vn -0.1456 0.9664 -0.2118
vn 0.0000 0.9674 -0.2532
vn 0.0000 0.7806 -0.6251
vn -0.5884 0.7724 -0.2391
vn -0.6394 0.7689 -0.0000
vn -0.3316 0.8174 -0.4710
vn 0.0000 0.8176 -0.5758
vn -0.5482 0.8076 -0.2173
vn -0.6110 0.7917 0.0000
vn -0.3675 -0.7716 -0.5192
vn -0.3328 -0.8172 -0.4707
vn -0.0000 -0.8167 -0.5770
vn 0.0000 -0.7802 -0.6255
vn -0.5884 -0.7715 -0.2419
vn -0.5481 -0.8069 -0.2203
vn -0.6377 -0.7703 -0.0000
vn -0.6133 -0.7899 0.0000
vn -0.1411 -0.9677 -0.2089
vn 0.0000 -0.9683 -0.2498
vn -0.2330 -0.9674 -0.0996
vn -0.2596 -0.9657 -0.0000
vn -0.0000 -0.9982 -0.0599
vn 0.0000 -1.0000 -0.0000
vn -0.0000 0.5133 -0.8582
vn 0.0000 -0.5135 -0.8581
vn -0.4975 -0.5088 -0.7026
vn -0.4975 0.5086 -0.7027
vn -0.7975 -0.5140 -0.3158
vn -0.7977 0.5140 -0.3154
vn -0.8465 -0.5323 -0.0000
vn -0.8464 0.5326 -0.0000
vn 0.2609 0.9654 -0.0000
vn 0.2352 0.9663 -0.1047
vn 0.3650 0.7732 -0.5185
vn 0.1456 0.9664 -0.2118
vn 0.5884 0.7724 -0.2391
vn 0.6394 0.7689 0.0000
vn 0.3316 0.8174 -0.4710
vn 0.5482 0.8076 -0.2173
vn 0.6110 0.7917 -0.0000
vn 0.3675 -0.7716 -0.5192
vn 0.3328 -0.8172 -0.4707
vn 0.5884 -0.7715 -0.2419
vn 0.5481 -0.8069 -0.2203
vn 0.6377 -0.7703 -0.0000
vn 0.6133 -0.7899 0.0000
vn 0.1411 -0.9677 -0.2089
vn 0.2330 -0.9674 -0.0996
vn 0.2596 -0.9657 0.0000
vn 0.4975 0.5086 -0.7027
vn 0.4975 -0.5088 -0.7026
vn 0.7977 0.5140 -0.3154
vn 0.7975 -0.5140 -0.3158
vn 0.8464 0.5326 -0.0000
vn 0.8465 -0.5323 0.0000
vn 0.0000 0.9982 0.0599
vn -0.2352 0.9663 0.1047
vn -0.3650 0.7732 0.5185
vn 0.0000 0.7806 0.6251
vn 0.0000 0.9674 0.2532
vn -0.1456 0.9664 0.2118
vn -0.5884 0.7724 0.2391
vn -0.3316 0.8174 0.4710
vn 0.0000 0.8176 0.5758
vn -0.5482 0.8076 0.2173
vn -0.3675 -0.7716 0.5192
vn -0.0000 -0.7802 0.6255
vn 0.0000 -0.8167 0.5770
vn -0.3328 -0.8172 0.4707
vn -0.5884 -0.7715 0.2419
vn -0.5481 -0.8069 0.2203
vn -0.1411 -0.9677 0.2089
vn -0.0000 -0.9683 0.2498
vn -0.2330 -0.9674 0.0996
vn 0.0000 -0.9982 0.0599
vn 0.0000 0.5133 0.8582
vn -0.4975 0.5086 0.7027
vn -0.4975 -0.5088 0.7026
vn 0.0000 -0.5135 0.8581
vn -0.7977 0.5140 0.3154
vn -0.7975 -0.5140 0.3158
vn 0.2352 0.9663 0.1047
vn 0.3650 0.7732 0.5185
vn 0.1456 0.9664 0.2118
vn 0.5884 0.7724 0.2391
vn 0.3316 0.8174 0.4710
vn 0.5482 0.8076 0.2173
vn 0.3675 -0.7716 0.5192
vn 0.3328 -0.8172 0.4707
vn 0.5884 -0.7715 0.2419
vn 0.5481 -0.8069 0.2203
vn 0.1411 -0.9677 0.2089
vn 0.2330 -0.9674 0.0996
vn 0.4975 -0.5088 0.7026
vn 0.4975 0.5086 0.7027
vn 0.7975 -0.5140 0.3158
vn 0.7977 0.5140 0.3154
# 102 vertex normals

vt 0.0918 0.7225 0.0000
vt 0.0851 0.7227 0.0000
vt 0.0837 0.7155 0.0000
vt 0.0918 0.7155 0.0000
vt 0.0847 0.7291 0.0000
vt 0.0877 0.7250 0.0000
vt 0.0918 0.7258 0.0000
vt 0.0918 0.7307 0.0000
vt 0.0800 0.7243 0.0000
vt 0.0783 0.7155 0.0000
vt 0.0826 0.7325 0.0000
vt 0.0918 0.7349 0.0000
vt 0.0764 0.7257 0.0000
vt 0.0746 0.7155 0.0000
vt 0.0918 0.7366 0.0000
vt 0.0918 0.7440 0.0000
vt 0.0788 0.7401 0.0000
vt 0.0817 0.7340 0.0000
vt 0.0699 0.7300 0.0000
vt 0.0749 0.7265 0.0000
vt 0.0667 0.7155 0.0000
vt 0.0730 0.7155 0.0000
vt 0.0999 0.7155 0.0000
vt 0.0984 0.7227 0.0000
vt 0.0988 0.7291 0.0000
vt 0.0958 0.7250 0.0000
vt 0.1035 0.7243 0.0000
vt 0.1052 0.7155 0.0000
vt 0.1009 0.7325 0.0000
vt 0.1071 0.7257 0.0000
vt 0.1090 0.7155 0.0000
vt 0.1018 0.7340 0.0000
vt 0.1047 0.7401 0.0000
vt 0.1086 0.7265 0.0000
vt 0.1137 0.7300 0.0000
vt 0.1105 0.7155 0.0000
vt 0.1168 0.7155 0.0000
vt 0.0918 0.7084 0.0000
vt 0.0851 0.7082 0.0000
vt 0.0847 0.7018 0.0000
vt 0.0918 0.7002 0.0000
vt 0.0918 0.7051 0.0000
vt 0.0877 0.7059 0.0000
vt 0.0800 0.7066 0.0000
vt 0.0826 0.6984 0.0000
vt 0.0918 0.6961 0.0000
vt 0.0764 0.7052 0.0000
vt 0.0918 0.6943 0.0000
vt 0.0817 0.6970 0.0000
vt 0.0788 0.6909 0.0000
vt 0.0918 0.6870 0.0000
vt 0.0749 0.7044 0.0000
vt 0.0699 0.7009 0.0000
vt 0.0984 0.7082 0.0000
vt 0.0988 0.7018 0.0000
vt 0.0958 0.7059 0.0000
vt 0.1035 0.7066 0.0000
vt 0.1009 0.6984 0.0000
vt 0.1071 0.7052 0.0000
vt 0.1047 0.6909 0.0000
vt 0.1018 0.6970 0.0000
vt 0.1137 0.7009 0.0000
vt 0.1086 0.7044 0.0000
# 63 texture coords

g SweetPack_Candy_Button
s 1
f -102/-63/-102 -101/-62/-101 -100/-61/-100 -99/-60/-99 
f -98/-59/-98 -97/-58/-97 -96/-57/-96 -95/-56/-95 
f -97/-58/-97 -98/-59/-98 -94/-55/-94 -101/-62/-101 
f -93/-54/-93 -100/-61/-100 -101/-62/-101 -94/-55/-94 
f -92/-53/-92 -98/-59/-98 -95/-56/-95 -91/-52/-91 
f -90/-51/-90 -94/-55/-94 -98/-59/-98 -92/-53/-92 
f -89/-50/-89 -93/-54/-93 -94/-55/-94 -90/-51/-90 
f -88/-59/-88 -87/-53/-87 -86/-52/-86 -85/-56/-85 
f -84/-55/-84 -83/-51/-83 -87/-53/-87 -88/-59/-88 
f -82/-54/-82 -81/-50/-81 -83/-51/-83 -84/-55/-84 
f -80/-58/-80 -88/-59/-88 -85/-56/-85 -79/-57/-79 
f -88/-59/-88 -80/-58/-80 -78/-62/-78 -84/-55/-84 
f -77/-61/-77 -82/-54/-82 -84/-55/-84 -78/-62/-78 
f -77/-61/-77 -78/-62/-78 -76/-63/-76 -75/-60/-75 
f -74/-49/-74 -73/-48/-73 -72/-47/-72 -71/-46/-71 
f -71/-46/-71 -72/-47/-72 -70/-45/-70 -69/-44/-69 
f -69/-44/-69 -70/-45/-70 -68/-43/-68 -67/-42/-67 
f -92/-53/-92 -91/-52/-91 -74/-49/-74 -71/-46/-71 
f -89/-50/-89 -90/-51/-90 -69/-44/-69 -67/-42/-67 
f -90/-51/-90 -92/-53/-92 -71/-46/-71 -69/-44/-69 
f -86/-52/-86 -87/-53/-87 -72/-46/-72 -73/-49/-73 
f -87/-53/-87 -83/-51/-83 -70/-44/-70 -72/-46/-72 
f -83/-51/-83 -81/-50/-81 -68/-42/-68 -70/-44/-70 
f -102/-63/-102 -97/-58/-97 -101/-62/-101 
f -78/-62/-78 -80/-58/-80 -76/-63/-76 
f -102/-63/-102 -96/-57/-96 -97/-58/-97 
f -80/-58/-80 -79/-57/-79 -76/-63/-76 
f -102/-63/-102 -99/-60/-99 -66/-41/-66 -65/-40/-65 
f -64/-39/-64 -95/-56/-95 -96/-57/-96 -63/-38/-63 
f -63/-38/-63 -65/-40/-65 -62/-37/-62 -64/-39/-64 
f -61/-36/-61 -62/-37/-62 -65/-40/-65 -66/-41/-66 
f -60/-35/-60 -91/-52/-91 -95/-56/-95 -64/-39/-64 
f -59/-34/-59 -60/-35/-60 -64/-39/-64 -62/-37/-62 
f -58/-33/-58 -59/-34/-59 -62/-37/-62 -61/-36/-61 
f -57/-39/-57 -85/-56/-85 -86/-52/-86 -56/-35/-56 
f -55/-37/-55 -57/-39/-57 -56/-35/-56 -54/-34/-54 
f -53/-36/-53 -55/-37/-55 -54/-34/-54 -52/-33/-52 
f -51/-38/-51 -79/-57/-79 -85/-56/-85 -57/-39/-57 
f -57/-39/-57 -55/-37/-55 -50/-40/-50 -51/-38/-51 
f -49/-41/-49 -50/-40/-50 -55/-37/-55 -53/-36/-53 
f -49/-41/-49 -75/-60/-75 -76/-63/-76 -50/-40/-50 
f -74/-49/-74 -48/-32/-48 -47/-31/-47 -73/-48/-73 
f -48/-32/-48 -46/-30/-46 -45/-29/-45 -47/-31/-47 
f -46/-30/-46 -44/-28/-44 -43/-27/-43 -45/-29/-45 
f -60/-35/-60 -48/-32/-48 -74/-49/-74 -91/-52/-91 
f -58/-33/-58 -44/-28/-44 -46/-30/-46 -59/-34/-59 
f -59/-34/-59 -46/-30/-46 -48/-32/-48 -60/-35/-60 
f -86/-52/-86 -73/-49/-73 -47/-32/-47 -56/-35/-56 
f -56/-35/-56 -47/-32/-47 -45/-30/-45 -54/-34/-54 
f -54/-34/-54 -45/-30/-45 -43/-28/-43 -52/-33/-52 
f -102/-63/-102 -65/-40/-65 -63/-38/-63 
f -50/-40/-50 -76/-63/-76 -51/-38/-51 
f -102/-63/-102 -63/-38/-63 -96/-57/-96 
f -51/-38/-51 -76/-63/-76 -79/-57/-79 
f -42/-26/-42 -99/-60/-99 -100/-61/-100 -41/-25/-41 
f -40/-24/-40 -39/-23/-39 -38/-22/-38 -37/-21/-37 
f -37/-21/-37 -41/-25/-41 -36/-20/-36 -40/-24/-40 
f -93/-54/-93 -36/-20/-36 -41/-25/-41 -100/-61/-100 
f -35/-19/-35 -34/-18/-34 -39/-23/-39 -40/-24/-40 
f -33/-17/-33 -35/-19/-35 -40/-24/-40 -36/-20/-36 
f -89/-50/-89 -33/-17/-33 -36/-20/-36 -93/-54/-93 
f -32/-24/-32 -31/-23/-31 -30/-18/-30 -29/-19/-29 
f -28/-20/-28 -32/-24/-32 -29/-19/-29 -27/-17/-27 
f -82/-54/-82 -28/-20/-28 -27/-17/-27 -81/-50/-81 
f -26/-21/-26 -25/-22/-25 -31/-23/-31 -32/-24/-32 
f -32/-24/-32 -28/-20/-28 -24/-25/-24 -26/-21/-26 
f -77/-61/-77 -24/-25/-24 -28/-20/-28 -82/-54/-82 
f -77/-61/-77 -75/-60/-75 -23/-26/-23 -24/-25/-24 
f -22/-16/-22 -21/-15/-21 -20/-14/-20 -19/-13/-19 
f -21/-15/-21 -18/-12/-18 -17/-11/-17 -20/-14/-20 
f -18/-12/-18 -67/-42/-67 -68/-43/-68 -17/-11/-17 
f -35/-19/-35 -21/-15/-21 -22/-16/-22 -34/-18/-34 
f -89/-50/-89 -67/-42/-67 -18/-12/-18 -33/-17/-33 
f -33/-17/-33 -18/-12/-18 -21/-15/-21 -35/-19/-35 
f -30/-18/-30 -19/-16/-19 -20/-15/-20 -29/-19/-29 
f -29/-19/-29 -20/-15/-20 -17/-12/-17 -27/-17/-27 
f -27/-17/-27 -17/-12/-17 -68/-42/-68 -81/-50/-81 
f -42/-26/-42 -41/-25/-41 -37/-21/-37 
f -24/-25/-24 -23/-26/-23 -26/-21/-26 
f -42/-26/-42 -37/-21/-37 -38/-22/-38 
f -26/-21/-26 -23/-26/-23 -25/-22/-25 
f -42/-26/-42 -16/-10/-16 -66/-41/-66 -99/-60/-99 
f -15/-9/-15 -14/-8/-14 -38/-22/-38 -39/-23/-39 
f -14/-8/-14 -15/-9/-15 -13/-7/-13 -16/-10/-16 
f -61/-36/-61 -66/-41/-66 -16/-10/-16 -13/-7/-13 
f -12/-6/-12 -15/-9/-15 -39/-23/-39 -34/-18/-34 
f -11/-5/-11 -13/-7/-13 -15/-9/-15 -12/-6/-12 
f -58/-33/-58 -61/-36/-61 -13/-7/-13 -11/-5/-11 
f -10/-9/-10 -9/-6/-9 -30/-18/-30 -31/-23/-31 
f -8/-7/-8 -7/-5/-7 -9/-6/-9 -10/-9/-10 
f -53/-36/-53 -52/-33/-52 -7/-5/-7 -8/-7/-8 
f -6/-8/-6 -10/-9/-10 -31/-23/-31 -25/-22/-25 
f -10/-9/-10 -6/-8/-6 -5/-10/-5 -8/-7/-8 
f -49/-41/-49 -53/-36/-53 -8/-7/-8 -5/-10/-5 
f -49/-41/-49 -5/-10/-5 -23/-26/-23 -75/-60/-75 
f -22/-16/-22 -19/-13/-19 -4/-4/-4 -3/-3/-3 
f -3/-3/-3 -4/-4/-4 -2/-2/-2 -1/-1/-1 
f -1/-1/-1 -2/-2/-2 -43/-27/-43 -44/-28/-44 
f -12/-6/-12 -34/-18/-34 -22/-16/-22 -3/-3/-3 
f -58/-33/-58 -11/-5/-11 -1/-1/-1 -44/-28/-44 
f -11/-5/-11 -12/-6/-12 -3/-3/-3 -1/-1/-1 
f -30/-18/-30 -9/-6/-9 -4/-3/-4 -19/-16/-19 
f -9/-6/-9 -7/-5/-7 -2/-1/-2 -4/-3/-4 
f -7/-5/-7 -52/-33/-52 -43/-28/-43 -2/-1/-2 
f -42/-26/-42 -14/-8/-14 -16/-10/-16 
f -5/-10/-5 -6/-8/-6 -23/-26/-23 
f -42/-26/-42 -38/-22/-38 -14/-8/-14 
f -6/-8/-6 -25/-22/-25 -23/-26/-23 
# 92 polygons - 16 triangles

