# 3ds Max Wavefront OBJ Exporter v0.97b - (c)2007 guruware
# File Created: 19.11.2013 20:04:37

#
# object SweetPack_IceCreamCone_Waffle
#

v  0.0000 0.0001 -0.0000
v  -0.0013 0.0049 0.0005
v  -0.0014 0.0049 -0.0000
v  -0.0005 0.0049 0.0013
v  -0.0010 0.0049 0.0010
v  0.0005 0.0049 0.0013
v  -0.0000 0.0049 0.0014
v  0.0013 0.0049 0.0005
v  0.0010 0.0049 0.0010
v  0.0013 0.0049 -0.0005
v  0.0014 0.0049 -0.0000
v  0.0005 0.0049 -0.0013
v  0.0010 0.0049 -0.0010
v  -0.0005 0.0049 -0.0013
v  0.0000 0.0049 -0.0014
v  -0.0013 0.0049 -0.0005
v  -0.0010 0.0049 -0.0010
v  -0.0458 0.1525 -0.0000
v  -0.0423 0.1525 0.0175
v  -0.0418 0.1538 -0.0000
v  -0.0324 0.1525 0.0324
v  -0.0175 0.1525 0.0423
v  -0.0295 0.1538 0.0295
v  -0.0000 0.1525 0.0458
v  0.0175 0.1525 0.0423
v  -0.0000 0.1538 0.0418
v  0.0324 0.1525 0.0324
v  0.0423 0.1525 0.0175
v  0.0295 0.1538 0.0295
v  0.0458 0.1525 0.0000
v  0.0423 0.1525 -0.0175
v  0.0418 0.1538 0.0000
v  0.0324 0.1525 -0.0324
v  0.0175 0.1525 -0.0423
v  0.0295 0.1538 -0.0295
v  0.0000 0.1525 -0.0458
v  -0.0175 0.1525 -0.0423
v  0.0000 0.1538 -0.0418
v  -0.0324 0.1525 -0.0324
v  -0.0423 0.1525 -0.0175
v  -0.0295 0.1538 -0.0295
v  -0.0386 0.1538 0.0160
v  -0.0160 0.1538 0.0386
v  0.0160 0.1538 0.0386
v  0.0386 0.1538 0.0160
v  0.0386 0.1538 -0.0160
v  0.0160 0.1538 -0.0386
v  -0.0160 0.1538 -0.0386
v  -0.0386 0.1538 -0.0160
# 49 vertices

vn -0.0000 -1.0000 -0.0000
vn -0.8848 -0.2879 0.3665
vn -0.9577 -0.2879 -0.0000
vn -0.3665 -0.2879 0.8848
vn -0.6772 -0.2879 0.6772
vn 0.3665 -0.2879 0.8848
vn 0.0000 -0.2879 0.9577
vn 0.8848 -0.2879 0.3665
vn 0.6772 -0.2879 0.6772
vn 0.8848 -0.2879 -0.3665
vn 0.9577 -0.2879 -0.0000
vn 0.3665 -0.2879 -0.8848
vn 0.6772 -0.2879 -0.6772
vn -0.3665 -0.2879 -0.8848
vn 0.0000 -0.2879 -0.9577
vn -0.8848 -0.2879 -0.3665
vn -0.6772 -0.2879 -0.6772
vn -0.3236 0.9462 -0.0000
vn -0.2990 0.9462 0.1238
vn -0.2288 0.9462 0.2288
vn -0.1238 0.9462 0.2990
vn -0.0000 0.9462 0.3236
vn 0.1238 0.9462 0.2990
vn 0.2288 0.9462 0.2288
vn 0.2990 0.9462 0.1238
vn 0.3236 0.9462 0.0000
vn 0.2990 0.9462 -0.1238
vn 0.2288 0.9462 -0.2288
vn 0.1238 0.9462 -0.2990
vn 0.0000 0.9462 -0.3236
vn -0.1238 0.9462 -0.2990
vn -0.2288 0.9462 -0.2288
vn -0.2990 0.9462 -0.1238
vn -0.0000 -0.2879 0.9577
vn 0.9577 -0.2879 0.0000
# 35 vertex normals

vt 0.4375 0.1310 0.0000
vt 0.4386 0.1344 0.0000
vt 0.4384 0.1344 0.0000
vt 0.4391 0.1344 0.0000
vt 0.4388 0.1344 0.0000
vt 0.4360 0.1344 0.0000
vt 0.4358 0.1344 0.0000
vt 0.4364 0.1344 0.0000
vt 0.4362 0.1344 0.0000
vt 0.4369 0.1344 0.0000
vt 0.4366 0.1344 0.0000
vt 0.4373 0.1344 0.0000
vt 0.4371 0.1344 0.0000
vt 0.4377 0.1344 0.0000
vt 0.4375 0.1344 0.0000
vt 0.4382 0.1344 0.0000
vt 0.4380 0.1344 0.0000
vt 0.4658 0.2412 0.0000
vt 0.4729 0.2412 0.0000
vt 0.4658 0.2445 0.0000
vt 0.4799 0.2412 0.0000
vt 0.4870 0.2412 0.0000
vt 0.4799 0.2445 0.0000
vt 0.3810 0.2412 0.0000
vt 0.3881 0.2412 0.0000
vt 0.3810 0.2445 0.0000
vt 0.3951 0.2412 0.0000
vt 0.4022 0.2412 0.0000
vt 0.3951 0.2445 0.0000
vt 0.4093 0.2412 0.0000
vt 0.4163 0.2412 0.0000
vt 0.4093 0.2445 0.0000
vt 0.4234 0.2412 0.0000
vt 0.4305 0.2412 0.0000
vt 0.4234 0.2445 0.0000
vt 0.4375 0.2412 0.0000
vt 0.4446 0.2412 0.0000
vt 0.4375 0.2445 0.0000
vt 0.4517 0.2412 0.0000
vt 0.4587 0.2412 0.0000
vt 0.4517 0.2445 0.0000
vt 0.4729 0.2445 0.0000
vt 0.4941 0.2445 0.0000
vt 0.4870 0.2445 0.0000
vt 0.3881 0.2445 0.0000
vt 0.4022 0.2445 0.0000
vt 0.4163 0.2445 0.0000
vt 0.4305 0.2445 0.0000
vt 0.4446 0.2445 0.0000
vt 0.4587 0.2445 0.0000
vt 0.4393 0.1344 0.0000
vt 0.4941 0.2412 0.0000
# 52 texture coords

g SweetPack_IceCreamCone_Waffle
s 1
f -49/-52/-35 -48/-51/-34 -47/-50/-33 
f -49/-52/-35 -46/-49/-32 -45/-48/-31 
f -49/-52/-35 -44/-47/-30 -43/-46/-29 
f -49/-52/-35 -42/-45/-28 -41/-44/-27 
f -49/-52/-35 -40/-43/-26 -39/-42/-25 
f -49/-52/-35 -38/-41/-24 -37/-40/-23 
f -49/-52/-35 -36/-39/-22 -35/-38/-21 
f -49/-52/-35 -34/-37/-20 -33/-36/-19 
s 2
f -32/-35/-18 -31/-34/-17 -30/-33/-18 
f -29/-32/-16 -28/-31/-15 -27/-30/-16 
f -26/-29/-14 -25/-28/-13 -24/-27/-14 
f -23/-26/-12 -22/-25/-11 -21/-24/-12 
f -20/-23/-10 -19/-22/-9 -18/-21/-10 
f -17/-20/-8 -16/-19/-7 -15/-18/-8 
f -14/-17/-6 -13/-16/-5 -12/-15/-6 
f -11/-14/-4 -10/-13/-3 -9/-12/-4 
f -31/-34/-17 -27/-30/-16 -8/-11/-17 
f -28/-31/-15 -24/-10/-14 -7/-9/-15 
f -25/-28/-13 -21/-24/-12 -6/-8/-13 
f -22/-25/-11 -18/-21/-10 -5/-7/-11 
f -19/-22/-9 -15/-18/-8 -4/-6/-9 
f -16/-19/-7 -12/-15/-6 -3/-5/-7 
f -13/-16/-5 -9/-12/-4 -2/-4/-5 
f -10/-13/-3 -30/-33/-18 -1/-3/-3 
s 1
f -49/-52/-35 -45/-48/-31 -48/-51/-34 
f -49/-52/-35 -43/-2/-29 -46/-49/-32 
f -49/-52/-35 -41/-44/-27 -44/-47/-30 
f -49/-52/-35 -39/-42/-25 -42/-45/-28 
f -49/-52/-35 -37/-40/-23 -40/-43/-26 
f -49/-52/-35 -35/-38/-21 -38/-41/-24 
f -49/-52/-35 -33/-36/-19 -36/-39/-22 
f -49/-52/-35 -47/-50/-33 -34/-37/-20 
s 2
f -31/-34/-17 -8/-11/-17 -30/-33/-18 
f -28/-31/-15 -7/-9/-15 -27/-30/-16 
f -25/-28/-13 -6/-8/-13 -24/-27/-14 
f -22/-25/-11 -5/-7/-11 -21/-24/-12 
f -19/-22/-9 -4/-6/-9 -18/-21/-10 
f -16/-19/-7 -3/-5/-7 -15/-18/-8 
f -13/-16/-5 -2/-4/-5 -12/-15/-6 
f -10/-13/-3 -1/-3/-3 -9/-12/-4 
f -31/-34/-17 -29/-32/-16 -27/-30/-16 
f -28/-31/-15 -26/-1/-14 -24/-10/-14 
f -25/-28/-13 -23/-26/-12 -21/-24/-12 
f -22/-25/-11 -20/-23/-10 -18/-21/-10 
f -19/-22/-9 -17/-20/-8 -15/-18/-8 
f -16/-19/-7 -14/-17/-6 -12/-15/-6 
f -13/-16/-5 -11/-14/-4 -9/-12/-4 
f -10/-13/-3 -32/-35/-18 -30/-33/-18 
s 1
f -48/-51/-34 -31/-34/-34 -32/-35/-33 -47/-50/-33 
f -28/-31/-32 -29/-32/-31 -45/-48/-31 -46/-49/-32 
f -25/-28/-30 -26/-29/-2 -43/-46/-29 -44/-47/-30 
f -22/-25/-28 -23/-26/-27 -41/-44/-27 -42/-45/-28 
f -19/-22/-26 -20/-23/-1 -39/-42/-25 -40/-43/-26 
f -16/-19/-24 -17/-20/-23 -37/-40/-23 -38/-41/-24 
f -13/-16/-22 -14/-17/-21 -35/-38/-21 -36/-39/-22 
f -10/-13/-20 -11/-14/-19 -33/-36/-19 -34/-37/-20 
f -45/-48/-31 -29/-32/-31 -31/-34/-34 -48/-51/-34 
f -43/-2/-29 -26/-1/-2 -28/-31/-32 -46/-49/-32 
f -41/-44/-27 -23/-26/-27 -25/-28/-30 -44/-47/-30 
f -39/-42/-25 -20/-23/-1 -22/-25/-28 -42/-45/-28 
f -37/-40/-23 -17/-20/-23 -19/-22/-26 -40/-43/-26 
f -35/-38/-21 -14/-17/-21 -16/-19/-24 -38/-41/-24 
f -33/-36/-19 -11/-14/-19 -13/-16/-22 -36/-39/-22 
f -32/-35/-33 -10/-13/-20 -34/-37/-20 -47/-50/-33 
# 16 polygons - 48 triangles

