# 3ds Max Wavefront OBJ Exporter v0.97b - (c)2007 guruware
# File Created: 19.11.2013 20:04:31

#
# object SweetPack_IceCream_OnStick
#

v  -0.0311 0.1717 0.0068
v  -0.0311 0.1717 -0.0068
v  -0.0361 0.1602 -0.0068
v  -0.0361 0.1602 0.0068
v  -0.0122 0.1851 0.0068
v  -0.0122 0.1851 -0.0068
v  -0.0230 0.1803 -0.0068
v  -0.0230 0.1803 0.0068
v  -0.0347 0.1596 0.0109
v  -0.0299 0.1708 0.0109
v  0.0000 0.1853 -0.0109
v  -0.0117 0.1837 -0.0109
v  0.0000 0.1869 -0.0068
v  -0.0221 0.1790 0.0109
v  -0.0117 0.1837 0.0109
v  -0.0221 0.1790 -0.0109
v  -0.0299 0.1708 -0.0109
v  -0.0295 0.1578 0.0131
v  -0.0361 0.0835 0.0068
v  -0.0347 0.0840 0.0109
v  0.0000 0.1795 -0.0131
v  -0.0189 0.1741 0.0131
v  -0.0189 0.1741 -0.0131
v  -0.0295 0.1578 -0.0131
v  0.0189 0.1741 -0.0131
v  0.0295 0.1578 -0.0131
v  0.0000 0.1869 0.0068
v  0.0000 0.1853 0.0109
v  -0.0347 0.1596 -0.0109
v  0.0000 0.1795 0.0131
v  -0.0361 0.0835 -0.0068
v  -0.0295 0.0859 -0.0131
v  -0.0347 0.0840 -0.0109
v  -0.0311 0.0719 0.0068
v  -0.0311 0.0719 -0.0068
v  -0.0122 0.0585 0.0068
v  -0.0230 0.0634 0.0068
v  -0.0230 0.0634 -0.0068
v  -0.0122 0.0585 -0.0068
v  -0.0299 0.0729 0.0109
v  -0.0295 0.0859 0.0131
v  0.0000 0.0583 -0.0109
v  0.0000 0.0568 -0.0068
v  -0.0117 0.0600 -0.0109
v  -0.0221 0.0647 0.0109
v  -0.0117 0.0600 0.0109
v  -0.0221 0.0647 -0.0109
v  -0.0299 0.0729 -0.0109
v  0.0000 0.0642 -0.0131
v  -0.0189 0.0696 0.0131
v  -0.0189 0.0696 -0.0131
v  0.0000 0.0568 0.0068
v  0.0000 0.0583 0.0109
v  0.0000 0.0642 0.0131
v  0.0295 0.0859 0.0131
v  0.0295 0.1578 0.0131
v  0.0295 0.0859 -0.0131
v  0.0311 0.1717 0.0068
v  0.0361 0.1602 0.0068
v  0.0361 0.1602 -0.0068
v  0.0311 0.1717 -0.0068
v  0.0122 0.1851 0.0068
v  0.0230 0.1803 0.0068
v  0.0230 0.1803 -0.0068
v  0.0122 0.1851 -0.0068
v  0.0347 0.1596 0.0109
v  0.0299 0.1708 0.0109
v  0.0347 0.0840 0.0109
v  0.0117 0.1837 -0.0109
v  0.0221 0.1790 0.0109
v  0.0117 0.1837 0.0109
v  0.0221 0.1790 -0.0109
v  0.0299 0.1708 -0.0109
v  0.0361 0.0835 0.0068
v  0.0189 0.1741 0.0131
v  0.0347 0.1596 -0.0109
v  0.0311 0.0719 0.0068
v  0.0311 0.0719 -0.0068
v  0.0361 0.0835 -0.0068
v  0.0122 0.0585 0.0068
v  0.0122 0.0585 -0.0068
v  0.0230 0.0634 -0.0068
v  0.0230 0.0634 0.0068
v  0.0299 0.0729 0.0109
v  0.0117 0.0600 -0.0109
v  0.0221 0.0647 0.0109
v  0.0117 0.0600 0.0109
v  0.0221 0.0647 -0.0109
v  0.0299 0.0729 -0.0109
v  0.0189 0.0696 0.0131
v  0.0189 0.0696 -0.0131
v  0.0347 0.0840 -0.0109
v  -0.0090 0.0077 -0.0025
v  -0.0080 0.0033 -0.0025
v  -0.0080 0.0033 0.0025
v  -0.0090 0.0077 0.0025
v  -0.0047 -0.0004 -0.0025
v  -0.0047 -0.0004 0.0025
v  0.0000 -0.0017 -0.0025
v  0.0000 -0.0017 0.0025
v  0.0047 -0.0004 -0.0025
v  0.0047 -0.0004 0.0025
v  0.0080 0.0033 -0.0025
v  0.0080 0.0033 0.0025
v  0.0090 0.0077 -0.0025
v  0.0090 0.0077 0.0025
v  0.0000 0.0077 -0.0025
v  0.0000 0.0077 0.0025
v  0.0080 0.0401 -0.0025
v  0.0080 0.0401 0.0025
v  -0.0080 0.0401 0.0025
v  -0.0080 0.0401 -0.0025
v  0.0000 0.0401 -0.0025
v  0.0000 0.0401 0.0025
v  0.0074 0.0821 -0.0025
v  0.0074 0.0821 0.0025
v  -0.0074 0.0821 0.0025
v  -0.0074 0.0821 -0.0025
v  0.0000 0.0821 -0.0025
v  0.0000 0.0821 0.0025
# 120 vertices

vn -0.8208 0.5441 0.1738
vn -0.8208 0.5441 -0.1738
vn -0.9637 0.2034 -0.1728
vn -0.9637 0.2034 0.1728
vn -0.2743 0.9457 0.1743
vn -0.2743 0.9457 -0.1743
vn -0.5699 0.8036 -0.1716
vn -0.5699 0.8036 0.1716
vn -0.7237 0.1490 0.6739
vn -0.5984 0.3916 0.6990
vn 0.0000 0.7244 -0.6894
vn -0.1968 0.6828 -0.7036
vn 0.0000 0.9849 -0.1733
vn -0.4235 0.5964 0.6819
vn -0.1968 0.6828 0.7036
vn -0.4235 0.5964 -0.6819
vn -0.5984 0.3916 -0.6990
vn -0.2059 0.0429 0.9776
vn -0.9637 -0.2034 0.1728
vn -0.7237 -0.1490 0.6739
vn 0.0000 0.1904 -0.9817
vn -0.1161 0.1589 0.9804
vn -0.1161 0.1589 -0.9804
vn -0.2059 0.0429 -0.9776
vn 0.1161 0.1589 -0.9804
vn 0.2059 0.0429 -0.9776
vn -0.0000 0.9849 0.1733
vn -0.0000 0.7244 0.6894
vn -0.7237 0.1490 -0.6739
vn 0.0000 0.1904 0.9817
vn -0.9637 -0.2034 -0.1728
vn -0.2059 -0.0429 -0.9776
vn -0.7237 -0.1490 -0.6739
vn -0.8208 -0.5441 0.1738
vn -0.8208 -0.5441 -0.1738
vn -0.2743 -0.9457 0.1743
vn -0.5699 -0.8036 0.1716
vn -0.5699 -0.8036 -0.1716
vn -0.2743 -0.9457 -0.1743
vn -0.5984 -0.3916 0.6990
vn -0.2059 -0.0429 0.9776
vn -0.0000 -0.7244 -0.6894
vn 0.0000 -0.9849 -0.1733
vn -0.1968 -0.6828 -0.7036
vn -0.4235 -0.5964 0.6819
vn -0.1968 -0.6828 0.7036
vn -0.4235 -0.5964 -0.6819
vn -0.5984 -0.3916 -0.6990
vn -0.0000 -0.1904 -0.9817
vn -0.1161 -0.1589 0.9804
vn -0.1161 -0.1589 -0.9804
vn 0.0000 -0.9849 0.1733
vn 0.0000 -0.7244 0.6894
vn -0.0000 -0.1904 0.9817
vn 0.2059 -0.0429 0.9776
vn 0.2059 0.0429 0.9776
vn 0.2059 -0.0429 -0.9776
vn 0.8208 0.5441 0.1738
vn 0.9637 0.2034 0.1728
vn 0.9637 0.2034 -0.1728
vn 0.8208 0.5441 -0.1738
vn 0.2743 0.9457 0.1743
vn 0.5699 0.8036 0.1716
vn 0.5699 0.8036 -0.1716
vn 0.2743 0.9457 -0.1743
vn 0.7237 0.1490 0.6739
vn 0.5984 0.3916 0.6990
vn 0.7237 -0.1490 0.6739
vn 0.1968 0.6828 -0.7036
vn 0.4235 0.5964 0.6819
vn 0.1968 0.6828 0.7036
vn 0.4235 0.5964 -0.6819
vn 0.5984 0.3916 -0.6990
vn 0.9637 -0.2034 0.1728
vn 0.1161 0.1589 0.9804
vn 0.7237 0.1490 -0.6739
vn 0.8208 -0.5441 0.1738
vn 0.8208 -0.5441 -0.1738
vn 0.9637 -0.2034 -0.1728
vn 0.2743 -0.9457 0.1743
vn 0.2743 -0.9457 -0.1743
vn 0.5699 -0.8036 -0.1716
vn 0.5699 -0.8036 0.1716
vn 0.5984 -0.3916 0.6990
vn 0.1968 -0.6828 -0.7036
vn 0.4235 -0.5964 0.6819
vn 0.1968 -0.6828 0.7036
vn 0.4235 -0.5964 -0.6819
vn 0.5984 -0.3916 -0.6990
vn 0.1161 -0.1589 0.9804
vn 0.1161 -0.1589 -0.9804
vn 0.7237 -0.1490 -0.6739
vn -0.9945 -0.1046 -0.0000
vn -0.8878 -0.4602 -0.0000
vn -0.5352 -0.8447 -0.0000
vn -0.0000 -1.0000 -0.0000
vn 0.0000 -1.0000 -0.0000
vn 0.5352 -0.8447 -0.0000
vn 0.8878 -0.4602 -0.0000
vn 0.9945 -0.1046 -0.0000
vn 0.0000 -0.0000 -1.0000
vn -0.0000 -0.0000 -1.0000
vn 0.0000 0.0000 1.0000
vn 0.0000 -0.0000 1.0000
vn -0.0000 -0.0000 1.0000
vn 0.0000 0.0000 -1.0000
vn -0.0000 0.0000 -1.0000
vn 0.9997 0.0230 -0.0000
vn -0.9997 0.0230 -0.0000
vn 0.9999 0.0149 -0.0000
vn -0.9999 0.0149 -0.0000
vn -0.0000 0.0000 1.0000
# 112 vertex normals

vt 1.4528 0.9196 0.0000
vt 1.4641 0.9196 0.0000
vt 1.4641 0.9091 0.0000
vt 1.4528 0.9091 0.0000
vt 1.4528 0.9394 0.0000
vt 1.4641 0.9394 0.0000
vt 1.4641 0.9294 0.0000
vt 1.4528 0.9294 0.0000
vt 0.3867 0.9686 0.0000
vt 0.3909 0.9778 0.0000
vt 0.3879 0.9798 0.0000
vt 0.3832 0.9695 0.0000
vt 1.4154 0.9898 0.0000
vt 1.4058 0.9885 0.0000
vt 1.4047 0.9919 0.0000
vt 1.4154 0.9934 0.0000
vt 0.3971 0.9845 0.0000
vt 0.4058 0.9885 0.0000
vt 0.4047 0.9919 0.0000
vt 0.3950 0.9875 0.0000
vt 1.3971 0.9845 0.0000
vt 1.3909 0.9778 0.0000
vt 1.3879 0.9798 0.0000
vt 1.3950 0.9875 0.0000
vt 0.3913 0.9669 0.0000
vt 0.3832 0.9054 0.0000
vt 0.3867 0.9063 0.0000
vt 1.4154 0.9847 0.0000
vt 0.3999 0.9803 0.0000
vt 1.3999 0.9803 0.0000
vt 1.3913 0.9669 0.0000
vt 1.4310 0.9803 0.0000
vt 1.4396 0.9669 0.0000
vt 1.4528 0.9496 0.0000
vt 1.4641 0.9496 0.0000
vt 0.4154 0.9898 0.0000
vt 0.4154 0.9934 0.0000
vt 1.3867 0.9686 0.0000
vt 1.3832 0.9695 0.0000
vt 0.4154 0.9847 0.0000
vt 0.4808 0.9900 0.0000
vt 0.4695 0.9900 0.0000
vt 0.4695 0.9258 0.0000
vt 0.4808 0.9258 0.0000
vt 1.3913 0.9079 0.0000
vt 1.3867 0.9063 0.0000
vt 0.4528 0.9196 0.0000
vt 0.4528 0.9091 0.0000
vt 0.4641 0.9091 0.0000
vt 0.4641 0.9196 0.0000
vt 0.4528 0.9394 0.0000
vt 0.4528 0.9294 0.0000
vt 0.4641 0.9294 0.0000
vt 0.4641 0.9394 0.0000
vt 0.3879 0.8950 0.0000
vt 0.3909 0.8971 0.0000
vt 0.3913 0.9079 0.0000
vt 1.4154 0.8850 0.0000
vt 1.4154 0.8814 0.0000
vt 1.4047 0.8829 0.0000
vt 1.4058 0.8864 0.0000
vt 0.3971 0.8903 0.0000
vt 0.3950 0.8874 0.0000
vt 0.4047 0.8829 0.0000
vt 0.4058 0.8864 0.0000
vt 1.3971 0.8903 0.0000
vt 1.3950 0.8874 0.0000
vt 1.3879 0.8950 0.0000
vt 1.3909 0.8971 0.0000
vt 1.4154 0.8902 0.0000
vt 0.3999 0.8945 0.0000
vt 1.3999 0.8945 0.0000
vt 0.4528 0.9496 0.0000
vt 0.4641 0.9496 0.0000
vt 0.4154 0.8850 0.0000
vt 0.4154 0.8814 0.0000
vt 1.3832 0.9054 0.0000
vt 0.4154 0.8902 0.0000
vt 0.4396 0.9079 0.0000
vt 0.4396 0.9669 0.0000
vt 1.4396 0.9079 0.0000
vt 1.4528 0.9796 0.0000
vt 1.4528 0.9901 0.0000
vt 1.4641 0.9901 0.0000
vt 1.4641 0.9796 0.0000
vt 1.4528 0.9599 0.0000
vt 1.4528 0.9698 0.0000
vt 1.4641 0.9698 0.0000
vt 1.4641 0.9599 0.0000
vt 0.4442 0.9686 0.0000
vt 0.4476 0.9695 0.0000
vt 0.4430 0.9798 0.0000
vt 0.4400 0.9778 0.0000
vt 0.4442 0.9063 0.0000
vt 1.4262 0.9919 0.0000
vt 1.4251 0.9885 0.0000
vt 0.4338 0.9845 0.0000
vt 0.4359 0.9875 0.0000
vt 0.4262 0.9919 0.0000
vt 0.4251 0.9885 0.0000
vt 1.4338 0.9845 0.0000
vt 1.4359 0.9875 0.0000
vt 1.4430 0.9798 0.0000
vt 1.4400 0.9778 0.0000
vt 0.4476 0.9054 0.0000
vt 0.4310 0.9803 0.0000
vt 1.4442 0.9686 0.0000
vt 1.4476 0.9695 0.0000
vt 0.4528 0.9796 0.0000
vt 0.4641 0.9796 0.0000
vt 0.4641 0.9901 0.0000
vt 0.4528 0.9901 0.0000
vt 0.4528 0.9599 0.0000
vt 0.4641 0.9599 0.0000
vt 0.4641 0.9698 0.0000
vt 0.4528 0.9698 0.0000
vt 0.4400 0.8971 0.0000
vt 0.4430 0.8950 0.0000
vt 1.4251 0.8864 0.0000
vt 1.4262 0.8829 0.0000
vt 0.4338 0.8903 0.0000
vt 0.4251 0.8864 0.0000
vt 0.4262 0.8829 0.0000
vt 0.4359 0.8874 0.0000
vt 1.4338 0.8903 0.0000
vt 1.4400 0.8971 0.0000
vt 1.4430 0.8950 0.0000
vt 1.4359 0.8874 0.0000
vt 0.4310 0.8945 0.0000
vt 1.4310 0.8945 0.0000
vt 1.4442 0.9063 0.0000
vt 1.4476 0.9054 0.0000
vt 1.4808 0.9258 0.0000
vt 1.4695 0.9258 0.0000
vt 1.4695 0.9900 0.0000
vt 1.4808 0.9900 0.0000
vt 0.4706 0.6669 0.0000
vt 0.4706 0.6623 0.0000
vt 0.4758 0.6623 0.0000
vt 0.4758 0.6669 0.0000
vt 0.4706 0.6571 0.0000
vt 0.4758 0.6571 0.0000
vt 0.4706 0.6521 0.0000
vt 0.4758 0.6521 0.0000
vt 0.4935 0.6624 0.0000
vt 0.4852 0.6669 0.0000
vt 0.4946 0.6669 0.0000
vt 0.4852 0.6572 0.0000
vt 0.4803 0.6585 0.0000
vt 0.4901 0.6585 0.0000
vt 0.4769 0.6624 0.0000
vt 0.4706 0.7005 0.0000
vt 0.4758 0.7005 0.0000
vt 0.4852 0.7005 0.0000
vt 0.4946 0.7005 0.0000
vt 0.4706 0.7440 0.0000
vt 0.4758 0.7440 0.0000
vt 0.4852 0.7440 0.0000
vt 0.4946 0.7440 0.0000
# 159 texture coords

g SweetPack_IceCream_OnStick
s 1
f -120/-159/-112 -119/-158/-111 -118/-157/-110 -117/-156/-109 
f -116/-155/-108 -115/-154/-107 -114/-153/-106 -113/-152/-105 
f -112/-151/-104 -111/-150/-103 -120/-149/-112 -117/-148/-109 
f -110/-147/-102 -109/-146/-101 -115/-145/-107 -108/-144/-100 
f -107/-143/-99 -106/-142/-98 -116/-141/-108 -113/-140/-105 
f -105/-139/-97 -104/-138/-96 -119/-137/-111 -114/-136/-106 
f -112/-151/-104 -103/-135/-95 -111/-150/-103 
f -112/-151/-104 -117/-148/-109 -102/-134/-94 -101/-133/-93 
f -110/-147/-102 -100/-132/-92 -109/-146/-101 
f -107/-143/-99 -99/-131/-91 -106/-142/-98 
f -105/-139/-97 -98/-130/-90 -104/-138/-96 
f -97/-129/-89 -96/-128/-88 -95/-127/-87 
f -94/-126/-86 -108/-125/-100 -115/-154/-107 -116/-155/-108 
f -105/-139/-97 -114/-136/-106 -115/-145/-107 -109/-146/-101 
f -93/-124/-85 -94/-123/-86 -116/-141/-108 -106/-142/-98 
f -113/-152/-105 -114/-153/-106 -119/-158/-111 -120/-159/-112 
f -107/-143/-99 -113/-140/-105 -120/-149/-112 -111/-150/-103 
f -92/-122/-84 -118/-121/-110 -119/-137/-111 -104/-138/-96 
f -99/-131/-91 -107/-143/-99 -111/-150/-103 
f -103/-135/-95 -99/-131/-91 -111/-150/-103 
f -97/-129/-89 -92/-122/-84 -104/-138/-96 
f -98/-130/-90 -97/-129/-89 -104/-138/-96 
f -98/-130/-90 -105/-139/-97 -109/-146/-101 
f -100/-132/-92 -98/-130/-90 -109/-146/-101 
f -91/-120/-83 -93/-124/-85 -106/-142/-98 
f -99/-131/-91 -91/-120/-83 -106/-142/-98 
f -117/-119/-109 -118/-118/-110 -90/-117/-82 -102/-116/-94 
f -92/-122/-84 -97/-129/-89 -89/-115/-81 -88/-114/-80 
f -87/-113/-79 -102/-112/-94 -90/-111/-82 -86/-110/-78 
f -85/-109/-77 -84/-108/-76 -83/-107/-75 -82/-106/-74 
f -101/-133/-93 -102/-134/-94 -87/-105/-79 -81/-104/-73 
f -103/-135/-95 -112/-151/-104 -101/-133/-93 -80/-103/-72 
f -79/-102/-71 -78/-101/-70 -82/-100/-74 -77/-99/-69 
f -76/-98/-68 -84/-97/-76 -85/-96/-77 -75/-95/-67 
f -74/-94/-66 -83/-93/-75 -86/-92/-78 -73/-91/-65 
f -101/-133/-93 -81/-104/-73 -80/-103/-72 
f -79/-102/-71 -77/-99/-69 -72/-90/-64 
f -76/-98/-68 -75/-95/-67 -71/-89/-63 
f -74/-94/-66 -73/-91/-65 -70/-88/-62 
f -69/-87/-61 -85/-109/-77 -82/-106/-74 -78/-86/-70 
f -74/-94/-66 -77/-99/-69 -82/-100/-74 -83/-93/-75 
f -68/-85/-60 -75/-95/-67 -85/-96/-77 -69/-84/-61 
f -84/-108/-76 -87/-113/-79 -86/-110/-78 -83/-107/-75 
f -76/-98/-68 -81/-104/-73 -87/-105/-79 -84/-97/-76 
f -88/-114/-80 -73/-91/-65 -86/-92/-78 -90/-83/-82 
f -67/-82/-59 -66/-81/-58 -71/-89/-63 
f -71/-89/-63 -81/-104/-73 -76/-98/-68 
f -80/-103/-72 -81/-104/-73 -71/-89/-63 
f -89/-115/-81 -73/-91/-65 -88/-114/-80 
f -70/-88/-62 -73/-91/-65 -89/-115/-81 
f -70/-88/-62 -77/-99/-69 -74/-94/-66 
f -72/-90/-64 -77/-99/-69 -70/-88/-62 
f -67/-82/-59 -75/-95/-67 -68/-85/-60 
f -71/-89/-63 -75/-95/-67 -67/-82/-59 
f -103/-135/-95 -80/-103/-72 -66/-81/-58 -65/-80/-57 
f -92/-122/-84 -88/-114/-80 -90/-83/-82 -118/-121/-110 
f -97/-129/-89 -95/-127/-87 -64/-79/-56 -89/-115/-81 
f -63/-78/-55 -62/-77/-54 -61/-76/-53 -60/-75/-52 
f -59/-74/-51 -58/-73/-50 -57/-72/-49 -56/-71/-48 
f -55/-70/-47 -62/-69/-54 -63/-68/-55 -54/-67/-46 
f -65/-80/-57 -66/-81/-58 -53/-66/-45 -55/-70/-47 
f -110/-147/-102 -108/-144/-100 -56/-65/-48 -52/-64/-44 
f -51/-63/-43 -58/-62/-50 -59/-61/-51 -50/-60/-42 
f -49/-59/-41 -57/-58/-49 -60/-57/-52 -48/-56/-40 
f -55/-70/-47 -54/-67/-46 -65/-80/-57 
f -55/-70/-47 -53/-66/-45 -47/-55/-39 -62/-69/-54 
f -110/-147/-102 -52/-64/-44 -100/-132/-92 
f -51/-63/-43 -50/-60/-42 -46/-54/-38 
f -49/-59/-41 -48/-56/-40 -96/-128/-88 
f -94/-126/-86 -59/-74/-51 -56/-71/-48 -108/-125/-100 
f -49/-59/-41 -52/-64/-44 -56/-65/-48 -57/-58/-49 
f -93/-124/-85 -50/-60/-42 -59/-61/-51 -94/-123/-86 
f -58/-73/-50 -63/-78/-55 -60/-75/-52 -57/-72/-49 
f -51/-63/-43 -54/-67/-46 -63/-68/-55 -58/-62/-50 
f -45/-53/-37 -48/-56/-40 -60/-57/-52 -61/-52/-53 
f -91/-120/-83 -103/-135/-95 -46/-54/-38 
f -46/-54/-38 -54/-67/-46 -51/-63/-43 
f -65/-80/-57 -54/-67/-46 -46/-54/-38 
f -95/-127/-87 -48/-56/-40 -45/-53/-37 
f -96/-128/-88 -48/-56/-40 -95/-127/-87 
f -96/-128/-88 -52/-64/-44 -49/-59/-41 
f -100/-132/-92 -52/-64/-44 -96/-128/-88 
f -91/-120/-83 -50/-60/-42 -93/-124/-85 
f -46/-54/-38 -50/-60/-42 -91/-120/-83 
f -44/-51/-36 -43/-50/-35 -42/-49/-34 -47/-48/-39 
f -41/-47/-33 -40/-46/-32 -39/-45/-31 -38/-44/-30 
f -53/-66/-45 -37/-43/-29 -44/-42/-36 -47/-55/-39 
f -79/-102/-71 -36/-41/-28 -40/-40/-32 -78/-101/-70 
f -35/-39/-27 -34/-38/-26 -41/-37/-33 -38/-36/-30 
f -33/-35/-25 -32/-34/-24 -43/-33/-35 -39/-32/-31 
f -53/-66/-45 -66/-81/-58 -37/-43/-29 
f -79/-102/-71 -72/-90/-64 -36/-41/-28 
f -35/-39/-27 -31/-31/-23 -34/-38/-26 
f -33/-35/-25 -30/-30/-22 -32/-34/-24 
f -64/-79/-56 -70/-88/-62 -89/-115/-81 
f -69/-87/-61 -78/-86/-70 -40/-46/-32 -41/-47/-33 
f -33/-35/-25 -39/-32/-31 -40/-40/-32 -36/-41/-28 
f -68/-85/-60 -69/-84/-61 -41/-37/-33 -34/-38/-26 
f -38/-44/-30 -39/-45/-31 -43/-50/-35 -44/-51/-36 
f -35/-39/-27 -38/-36/-30 -44/-42/-36 -37/-43/-29 
f -29/-29/-21 -42/-28/-34 -43/-33/-35 -32/-34/-24 
f -31/-31/-23 -35/-39/-27 -37/-43/-29 
f -66/-81/-58 -31/-31/-23 -37/-43/-29 
f -64/-79/-56 -29/-29/-21 -32/-34/-24 
f -30/-30/-22 -64/-79/-56 -32/-34/-24 
f -30/-30/-22 -33/-35/-25 -36/-41/-28 
f -72/-90/-64 -30/-30/-22 -36/-41/-28 
f -67/-82/-59 -68/-85/-60 -34/-38/-26 
f -31/-31/-23 -67/-82/-59 -34/-38/-26 
f -47/-27/-39 -42/-26/-34 -61/-25/-53 -62/-24/-54 
f -64/-79/-56 -95/-127/-87 -45/-53/-37 -29/-29/-21 
f -29/-29/-21 -45/-53/-37 -61/-52/-53 -42/-28/-34 
f -97/-129/-89 -100/-132/-92 -96/-128/-88 
f -103/-135/-95 -65/-80/-57 -46/-54/-38 
f -91/-120/-83 -99/-131/-91 -103/-135/-95 
f -97/-129/-89 -98/-130/-90 -100/-132/-92 
f -67/-82/-59 -31/-31/-23 -66/-81/-58 
f -66/-81/-58 -80/-103/-72 -71/-89/-63 
f -64/-79/-56 -30/-30/-22 -72/-90/-64 
f -64/-79/-56 -72/-90/-64 -70/-88/-62 
s 2
f -28/-23/-20 -27/-22/-19 -26/-21/-19 -25/-20/-20 
f -27/-22/-19 -24/-19/-18 -23/-18/-18 -26/-21/-19 
f -22/-17/-17 -21/-16/-16 -23/-18/-18 -24/-19/-18 
f -22/-17/-17 -20/-19/-15 -19/-18/-15 -21/-16/-16 
f -20/-19/-15 -18/-22/-14 -17/-21/-14 -19/-18/-15 
f -18/-22/-14 -16/-23/-13 -15/-20/-13 -17/-21/-14 
s 1
f -18/-15/-12 -14/-14/-11 -16/-13/-12 
f -15/-13/-10 -13/-14/-9 -17/-15/-8 
f -22/-12/-7 -24/-11/-6 -14/-14/-11 
f -13/-14/-9 -23/-11/-9 -21/-12/-9 
f -18/-15/-12 -20/-10/-7 -14/-14/-11 
f -13/-14/-9 -19/-10/-8 -17/-15/-8 
f -24/-11/-6 -27/-9/-11 -14/-14/-11 
f -13/-14/-9 -26/-9/-9 -23/-11/-9 
f -20/-10/-7 -22/-12/-7 -14/-14/-11 
f -13/-14/-9 -21/-12/-9 -19/-10/-8 
f -27/-9/-11 -28/-20/-11 -14/-14/-11 
f -13/-14/-9 -25/-20/-10 -26/-9/-9 
s 2
f -16/-23/-13 -12/-8/-5 -11/-7/-5 -15/-20/-13 
f -25/-20/-20 -10/-7/-4 -9/-8/-4 -28/-23/-20 
s 1
f -14/-14/-11 -28/-20/-11 -9/-7/-11 -8/-6/-12 
f -13/-14/-9 -15/-13/-10 -11/-5/-9 -7/-6/-8 
f -14/-14/-11 -8/-6/-12 -12/-5/-12 -16/-13/-12 
f -13/-14/-9 -7/-6/-8 -10/-7/-9 -25/-20/-10 
s 2
f -6/-4/-3 -5/-3/-3 -11/-7/-5 -12/-8/-5 
f -4/-3/-2 -3/-4/-2 -9/-8/-4 -10/-7/-4 
s 1
f -3/-3/-7 -2/-2/-7 -8/-6/-12 -9/-7/-11 
f -5/-1/-8 -1/-2/-1 -7/-6/-8 -11/-5/-9 
f -8/-6/-12 -2/-2/-7 -6/-1/-7 -12/-5/-12 
f -7/-6/-8 -1/-2/-1 -4/-3/-9 -10/-7/-9 
# 78 polygons - 72 triangles

