# 3ds Max Wavefront OBJ Exporter v0.97b - (c)2007 guruware
# File Created: 19.11.2013 20:03:27

#
# object SweetPack_CandyCane
#

v  0.0065 0.1411 0.0065
v  0.0065 0.0013 0.0065
v  0.0091 0.0013 -0.0000
v  0.0091 0.1411 -0.0000
v  -0.0000 0.1412 0.0091
v  -0.0000 0.0013 0.0091
v  -0.0065 0.1413 0.0065
v  -0.0065 0.0013 0.0065
v  -0.0091 0.1413 -0.0000
v  -0.0091 0.0013 -0.0000
v  -0.0065 0.1413 -0.0065
v  -0.0065 0.0013 -0.0065
v  -0.0000 0.1412 -0.0091
v  -0.0000 0.0013 -0.0091
v  0.0065 0.1411 -0.0065
v  0.0065 0.0013 -0.0065
v  0.0072 0.1638 0.0065
v  0.0099 0.1634 -0.0000
v  0.0007 0.1647 0.0091
v  -0.0057 0.1656 0.0065
v  -0.0084 0.1660 -0.0000
v  -0.0057 0.1656 -0.0065
v  0.0007 0.1647 -0.0091
v  0.0072 0.1638 -0.0065
v  0.0113 0.1791 0.0065
v  0.0137 0.1777 -0.0000
v  0.0055 0.1824 0.0091
v  -0.0003 0.1856 0.0065
v  -0.0027 0.1870 -0.0000
v  -0.0003 0.1856 -0.0065
v  0.0055 0.1824 -0.0091
v  0.0113 0.1791 -0.0065
v  0.0217 0.1898 0.0065
v  0.0230 0.1874 -0.0000
v  0.0185 0.1958 0.0091
v  0.0152 0.2018 0.0065
v  0.0139 0.2042 -0.0000
v  0.0152 0.2018 -0.0065
v  0.0185 0.1958 -0.0091
v  0.0217 0.1898 -0.0065
v  0.0367 0.1927 0.0065
v  0.0364 0.1899 -0.0000
v  0.0373 0.1994 0.0091
v  0.0380 0.2061 0.0065
v  0.0382 0.2089 -0.0000
v  0.0380 0.2061 -0.0065
v  0.0373 0.1994 -0.0091
v  0.0367 0.1927 -0.0065
v  0.0510 0.1869 0.0065
v  0.0492 0.1848 -0.0000
v  0.0554 0.1921 0.0091
v  0.0598 0.1973 0.0065
v  0.0617 0.1995 -0.0000
v  0.0598 0.1973 -0.0065
v  0.0554 0.1921 -0.0091
v  0.0510 0.1869 -0.0065
v  0.0597 0.1726 0.0065
v  0.0570 0.1718 -0.0000
v  0.0661 0.1744 0.0091
v  0.0726 0.1763 0.0065
v  0.0752 0.1771 -0.0000
v  0.0726 0.1763 -0.0065
v  0.0661 0.1744 -0.0091
v  0.0597 0.1726 -0.0065
v  0.0600 0.1569 0.0065
v  0.0574 0.1572 -0.0000
v  0.0665 0.1561 0.0091
v  0.0730 0.1554 0.0065
v  0.0757 0.1551 -0.0000
v  0.0730 0.1554 -0.0065
v  0.0665 0.1561 -0.0091
v  0.0600 0.1569 -0.0065
v  0.0558 0.1401 0.0065
v  0.0532 0.1408 -0.0000
v  0.0620 0.1385 0.0091
v  0.0683 0.1369 0.0065
v  0.0709 0.1363 -0.0000
v  0.0683 0.1369 -0.0065
v  0.0620 0.1385 -0.0091
v  0.0558 0.1401 -0.0065
v  0.0055 0.0000 0.0055
v  -0.0077 0.0000 -0.0000
v  0.0077 0.0000 -0.0000
v  0.0617 0.1373 0.0077
v  0.0542 0.1392 -0.0000
v  0.0670 0.1359 0.0055
v  0.0564 0.1386 0.0055
v  0.0692 0.1354 -0.0000
v  0.0670 0.1359 -0.0055
v  0.0617 0.1373 -0.0077
v  0.0564 0.1386 -0.0055
v  -0.0000 0.0000 0.0077
v  -0.0055 0.0000 0.0055
v  -0.0055 0.0000 -0.0055
v  -0.0000 0.0000 -0.0077
v  0.0055 0.0000 -0.0055
# 96 vertices

vn 0.7050 -0.0112 0.7091
vn 0.6572 -0.3689 0.6572
vn 0.9295 -0.3689 0.0000
vn 0.9999 -0.0160 0.0000
vn -0.0038 0.0001 1.0000
vn -0.0000 -0.3689 0.9295
vn -0.7089 0.0111 0.7052
vn -0.6572 -0.3689 0.6572
vn -0.9999 0.0156 -0.0000
vn -0.9295 -0.3689 -0.0000
vn -0.7089 0.0111 -0.7052
vn -0.6572 -0.3689 -0.6572
vn -0.0039 0.0001 -1.0000
vn 0.0000 -0.3689 -0.9295
vn 0.7050 -0.0112 -0.7091
vn 0.6572 -0.3689 -0.6572
vn 0.6832 -0.1014 0.7232
vn 0.9891 -0.1470 0.0000
vn -0.0277 0.0042 0.9996
vn -0.7112 0.1054 0.6951
vn -0.9892 0.1464 -0.0000
vn -0.7112 0.1054 -0.6951
vn -0.0277 0.0042 -0.9996
vn 0.6832 -0.1014 -0.7232
vn 0.5786 -0.3277 0.7469
vn 0.8702 -0.4928 -0.0000
vn -0.0519 0.0294 0.9982
vn -0.6333 0.3586 0.6858
vn -0.8702 0.4928 -0.0000
vn -0.6333 0.3586 -0.6858
vn -0.0519 0.0294 -0.9982
vn 0.5786 -0.3277 -0.7469
vn 0.3100 -0.5739 0.7580
vn 0.4753 -0.8798 -0.0000
vn -0.0340 0.0630 0.9974
vn -0.3469 0.6421 0.6837
vn -0.4753 0.8798 -0.0000
vn -0.3469 0.6421 -0.6837
vn -0.0340 0.0630 -0.9974
vn 0.3100 -0.5739 -0.7580
vn -0.0634 -0.6548 0.7531
vn -0.0964 -0.9953 0.0000
vn 0.0064 0.0662 0.9978
vn 0.0703 0.7256 0.6845
vn 0.0964 0.9953 -0.0000
vn 0.0703 0.7256 -0.6845
vn 0.0064 0.0662 -0.9978
vn -0.0634 -0.6548 -0.7531
vn -0.4197 -0.4944 0.7612
vn -0.6472 -0.7623 0.0000
vn 0.0484 0.0571 0.9972
vn 0.4725 0.5566 0.6833
vn 0.6472 0.7623 0.0000
vn 0.4725 0.5566 -0.6833
vn 0.0484 0.0571 -0.9972
vn -0.4197 -0.4944 -0.7612
vn -0.6368 -0.1850 0.7485
vn -0.9603 -0.2790 -0.0000
vn 0.0590 0.0172 0.9981
vn 0.6992 0.2032 0.6854
vn 0.9603 0.2790 0.0000
vn 0.6992 0.2032 -0.6854
vn 0.0590 0.0172 -0.9981
vn -0.6368 -0.1850 -0.7485
vn -0.6829 0.0782 0.7263
vn -0.9935 0.1137 -0.0000
vn 0.0326 -0.0037 0.9995
vn 0.7160 -0.0820 0.6933
vn 0.9935 -0.1137 -0.0000
vn 0.7160 -0.0820 -0.6933
vn 0.0326 -0.0037 -0.9995
vn -0.6829 0.0782 -0.7263
vn -0.7280 -0.1949 0.6572
vn -0.9918 -0.1275 0.0000
vn -0.0912 -0.3574 0.9295
vn 0.5456 -0.5199 0.6572
vn 0.8094 -0.5872 -0.0000
vn 0.5456 -0.5199 -0.6572
vn -0.0912 -0.3574 -0.9295
vn -0.7280 -0.1949 -0.6572
vn 0.3095 -0.8991 0.3095
vn -0.4377 -0.8991 -0.0000
vn 0.4377 -0.8991 0.0000
vn -0.2223 -0.8712 0.4377
vn -0.6465 -0.7630 0.0000
vn 0.0775 -0.9477 0.3095
vn -0.5222 -0.7947 0.3095
vn 0.2018 -0.9794 0.0000
vn 0.0775 -0.9477 -0.3095
vn -0.2223 -0.8712 -0.4377
vn -0.5222 -0.7947 -0.3095
vn -0.0000 -0.8991 0.4377
vn -0.3095 -0.8991 0.3095
vn -0.3095 -0.8991 -0.3095
vn 0.0000 -0.8991 -0.4377
vn 0.3095 -0.8991 -0.3095
# 96 vertex normals

vt 0.0212 0.9289 0.0000
vt 0.0212 0.8793 0.0000
vt 0.0237 0.8793 0.0000
vt 0.0237 0.9289 0.0000
vt 0.0187 0.9289 0.0000
vt 0.0187 0.8793 0.0000
vt 0.0162 0.9289 0.0000
vt 0.0162 0.8793 0.0000
vt 0.0136 0.9289 0.0000
vt 0.0136 0.8793 0.0000
vt 0.0110 0.9289 0.0000
vt 0.0110 0.8793 0.0000
vt 0.0085 0.9289 0.0000
vt 0.0085 0.8793 0.0000
vt 0.0059 0.9289 0.0000
vt 0.0059 0.8793 0.0000
vt 0.0035 0.9289 0.0000
vt 0.0035 0.8793 0.0000
vt 0.0212 0.9401 0.0000
vt 0.0237 0.9401 0.0000
vt 0.0187 0.9401 0.0000
vt 0.0162 0.9401 0.0000
vt 0.0136 0.9401 0.0000
vt 0.0110 0.9401 0.0000
vt 0.0085 0.9401 0.0000
vt 0.0059 0.9401 0.0000
vt 0.0035 0.9401 0.0000
vt 0.0212 0.9493 0.0000
vt 0.0237 0.9493 0.0000
vt 0.0187 0.9493 0.0000
vt 0.0162 0.9493 0.0000
vt 0.0136 0.9493 0.0000
vt 0.0110 0.9493 0.0000
vt 0.0085 0.9493 0.0000
vt 0.0059 0.9493 0.0000
vt 0.0035 0.9493 0.0000
vt 0.0212 0.9581 0.0000
vt 0.0237 0.9581 0.0000
vt 0.0187 0.9581 0.0000
vt 0.0162 0.9581 0.0000
vt 0.0136 0.9581 0.0000
vt 0.0110 0.9581 0.0000
vt 0.0085 0.9581 0.0000
vt 0.0059 0.9581 0.0000
vt 0.0035 0.9581 0.0000
vt 0.0212 0.9667 0.0000
vt 0.0237 0.9667 0.0000
vt 0.0187 0.9667 0.0000
vt 0.0162 0.9667 0.0000
vt 0.0136 0.9667 0.0000
vt 0.0110 0.9667 0.0000
vt 0.0085 0.9667 0.0000
vt 0.0059 0.9667 0.0000
vt 0.0035 0.9667 0.0000
vt 0.0212 0.9750 0.0000
vt 0.0237 0.9750 0.0000
vt 0.0187 0.9750 0.0000
vt 0.0162 0.9750 0.0000
vt 0.0136 0.9750 0.0000
vt 0.0110 0.9750 0.0000
vt 0.0085 0.9750 0.0000
vt 0.0059 0.9750 0.0000
vt 0.0035 0.9750 0.0000
vt 0.0212 0.9832 0.0000
vt 0.0237 0.9832 0.0000
vt 0.0187 0.9832 0.0000
vt 0.0162 0.9832 0.0000
vt 0.0136 0.9832 0.0000
vt 0.0110 0.9832 0.0000
vt 0.0085 0.9832 0.0000
vt 0.0059 0.9832 0.0000
vt 0.0035 0.9832 0.0000
vt 0.0212 0.9902 0.0000
vt 0.0237 0.9902 0.0000
vt 0.0187 0.9902 0.0000
vt 0.0162 0.9902 0.0000
vt 0.0136 0.9902 0.0000
vt 0.0110 0.9902 0.0000
vt 0.0085 0.9902 0.0000
vt 0.0059 0.9902 0.0000
vt 0.0035 0.9902 0.0000
vt 0.0212 0.9968 0.0000
vt 0.0237 0.9968 0.0000
vt 0.0187 0.9968 0.0000
vt 0.0162 0.9968 0.0000
vt 0.0136 0.9968 0.0000
vt 0.0110 0.9968 0.0000
vt 0.0085 0.9968 0.0000
vt 0.0059 0.9968 0.0000
vt 0.0035 0.9968 0.0000
vt 0.0299 0.8825 0.0000
vt 0.0333 0.8907 0.0000
vt 0.0333 0.8810 0.0000
vt 0.0381 0.8859 0.0000
vt 0.0366 0.8825 0.0000
vt 0.0333 0.8919 0.0000
vt 0.0367 0.8893 0.0000
vt 0.0375 0.8901 0.0000
vt 0.0393 0.8859 0.0000
vt 0.0375 0.8817 0.0000
vt 0.0333 0.8799 0.0000
vt 0.0290 0.8817 0.0000
vt 0.0284 0.8859 0.0000
vt 0.0273 0.8859 0.0000
vt 0.0299 0.8893 0.0000
vt 0.0290 0.8901 0.0000
vt 0.0290 0.8816 0.0000
vt 0.0366 0.8893 0.0000
vt 0.0375 0.8816 0.0000
vt 0.0367 0.8825 0.0000
# 110 texture coords

g SweetPack_CandyCane
s 2
f -96/-110/-96 -95/-109/-95 -94/-108/-94 -93/-107/-93 
f -92/-106/-92 -91/-105/-91 -95/-109/-95 -96/-110/-96 
f -90/-104/-90 -89/-103/-89 -91/-105/-91 -92/-106/-92 
f -88/-102/-88 -87/-101/-87 -89/-103/-89 -90/-104/-90 
f -86/-100/-86 -85/-99/-85 -87/-101/-87 -88/-102/-88 
f -84/-98/-84 -83/-97/-83 -85/-99/-85 -86/-100/-86 
f -82/-96/-82 -81/-95/-81 -83/-97/-83 -84/-98/-84 
f -93/-94/-93 -94/-93/-94 -81/-95/-81 -82/-96/-82 
f -80/-92/-80 -96/-110/-96 -93/-107/-93 -79/-91/-79 
f -78/-90/-78 -92/-106/-92 -96/-110/-96 -80/-92/-80 
f -77/-89/-77 -90/-104/-90 -92/-106/-92 -78/-90/-78 
f -76/-88/-76 -88/-102/-88 -90/-104/-90 -77/-89/-77 
f -75/-87/-75 -86/-100/-86 -88/-102/-88 -76/-88/-76 
f -74/-86/-74 -84/-98/-84 -86/-100/-86 -75/-87/-75 
f -73/-85/-73 -82/-96/-82 -84/-98/-84 -74/-86/-74 
f -79/-84/-79 -93/-94/-93 -82/-96/-82 -73/-85/-73 
f -72/-83/-72 -80/-92/-80 -79/-91/-79 -71/-82/-71 
f -70/-81/-70 -78/-90/-78 -80/-92/-80 -72/-83/-72 
f -69/-80/-69 -77/-89/-77 -78/-90/-78 -70/-81/-70 
f -68/-79/-68 -76/-88/-76 -77/-89/-77 -69/-80/-69 
f -67/-78/-67 -75/-87/-75 -76/-88/-76 -68/-79/-68 
f -66/-77/-66 -74/-86/-74 -75/-87/-75 -67/-78/-67 
f -65/-76/-65 -73/-85/-73 -74/-86/-74 -66/-77/-66 
f -71/-75/-71 -79/-84/-79 -73/-85/-73 -65/-76/-65 
f -64/-74/-64 -72/-83/-72 -71/-82/-71 -63/-73/-63 
f -62/-72/-62 -70/-81/-70 -72/-83/-72 -64/-74/-64 
f -61/-71/-61 -69/-80/-69 -70/-81/-70 -62/-72/-62 
f -60/-70/-60 -68/-79/-68 -69/-80/-69 -61/-71/-61 
f -59/-69/-59 -67/-78/-67 -68/-79/-68 -60/-70/-60 
f -58/-68/-58 -66/-77/-66 -67/-78/-67 -59/-69/-59 
f -57/-67/-57 -65/-76/-65 -66/-77/-66 -58/-68/-58 
f -63/-66/-63 -71/-75/-71 -65/-76/-65 -57/-67/-57 
f -56/-65/-56 -64/-74/-64 -63/-73/-63 -55/-64/-55 
f -54/-63/-54 -62/-72/-62 -64/-74/-64 -56/-65/-56 
f -53/-62/-53 -61/-71/-61 -62/-72/-62 -54/-63/-54 
f -52/-61/-52 -60/-70/-60 -61/-71/-61 -53/-62/-53 
f -51/-60/-51 -59/-69/-59 -60/-70/-60 -52/-61/-52 
f -50/-59/-50 -58/-68/-58 -59/-69/-59 -51/-60/-51 
f -49/-58/-49 -57/-67/-57 -58/-68/-58 -50/-59/-50 
f -55/-57/-55 -63/-66/-63 -57/-67/-57 -49/-58/-49 
f -48/-56/-48 -56/-65/-56 -55/-64/-55 -47/-55/-47 
f -46/-54/-46 -54/-63/-54 -56/-65/-56 -48/-56/-48 
f -45/-53/-45 -53/-62/-53 -54/-63/-54 -46/-54/-46 
f -44/-52/-44 -52/-61/-52 -53/-62/-53 -45/-53/-45 
f -43/-51/-43 -51/-60/-51 -52/-61/-52 -44/-52/-44 
f -42/-50/-42 -50/-59/-50 -51/-60/-51 -43/-51/-43 
f -41/-49/-41 -49/-58/-49 -50/-59/-50 -42/-50/-42 
f -47/-48/-47 -55/-57/-55 -49/-58/-49 -41/-49/-41 
f -40/-47/-40 -48/-56/-48 -47/-55/-47 -39/-46/-39 
f -38/-45/-38 -46/-54/-46 -48/-56/-48 -40/-47/-40 
f -37/-44/-37 -45/-53/-45 -46/-54/-46 -38/-45/-38 
f -36/-43/-36 -44/-52/-44 -45/-53/-45 -37/-44/-37 
f -35/-42/-35 -43/-51/-43 -44/-52/-44 -36/-43/-36 
f -34/-41/-34 -42/-50/-42 -43/-51/-43 -35/-42/-35 
f -33/-40/-33 -41/-49/-41 -42/-50/-42 -34/-41/-34 
f -39/-39/-39 -47/-48/-47 -41/-49/-41 -33/-40/-33 
f -32/-38/-32 -40/-47/-40 -39/-46/-39 -31/-37/-31 
f -30/-36/-30 -38/-45/-38 -40/-47/-40 -32/-38/-32 
f -29/-35/-29 -37/-44/-37 -38/-45/-38 -30/-36/-30 
f -28/-34/-28 -36/-43/-36 -37/-44/-37 -29/-35/-29 
f -27/-33/-27 -35/-42/-35 -36/-43/-36 -28/-34/-28 
f -26/-32/-26 -34/-41/-34 -35/-42/-35 -27/-33/-27 
f -25/-31/-25 -33/-40/-33 -34/-41/-34 -26/-32/-26 
f -31/-30/-31 -39/-39/-39 -33/-40/-33 -25/-31/-25 
f -24/-29/-24 -32/-38/-32 -31/-37/-31 -23/-28/-23 
f -22/-27/-22 -30/-36/-30 -32/-38/-32 -24/-29/-24 
f -21/-26/-21 -29/-35/-29 -30/-36/-30 -22/-27/-22 
f -20/-25/-20 -28/-34/-28 -29/-35/-29 -21/-26/-21 
f -19/-24/-19 -27/-33/-27 -28/-34/-28 -20/-25/-20 
f -18/-23/-18 -26/-32/-26 -27/-33/-27 -19/-24/-19 
f -17/-22/-17 -25/-31/-25 -26/-32/-26 -18/-23/-18 
f -23/-21/-23 -31/-30/-31 -25/-31/-25 -17/-22/-17 
f -16/-20/-16 -15/-19/-15 -14/-18/-14 
f -13/-17/-13 -12/-19/-12 -11/-16/-11 
f -23/-15/-23 -12/-19/-12 -10/-14/-10 -24/-13/-24 
f -24/-13/-24 -10/-14/-10 -13/-17/-13 -22/-12/-22 
f -22/-12/-22 -13/-17/-13 -11/-16/-11 -21/-11/-21 
f -21/-11/-21 -11/-16/-11 -9/-18/-9 -20/-10/-20 
f -20/-10/-20 -9/-18/-9 -8/-20/-8 -19/-9/-19 
f -19/-9/-19 -8/-20/-8 -7/-8/-7 -18/-7/-18 
f -18/-7/-18 -7/-8/-7 -6/-6/-6 -17/-5/-17 
f -17/-5/-17 -6/-6/-6 -12/-19/-12 -23/-15/-23 
f -12/-19/-12 -8/-20/-8 -9/-18/-9 
f -12/-19/-12 -9/-18/-9 -11/-16/-11 
f -12/-19/-12 -7/-8/-7 -8/-20/-8 
f -95/-4/-95 -16/-20/-16 -14/-18/-14 -94/-10/-94 
f -91/-7/-91 -5/-8/-5 -16/-20/-16 -95/-4/-95 
f -89/-5/-89 -4/-6/-4 -5/-8/-5 -91/-7/-91 
f -87/-15/-87 -15/-19/-15 -4/-6/-4 -89/-5/-89 
f -85/-13/-85 -3/-3/-3 -15/-19/-15 -87/-15/-87 
f -83/-12/-83 -2/-17/-2 -3/-3/-3 -85/-13/-85 
f -81/-2/-81 -1/-1/-1 -2/-17/-2 -83/-12/-83 
f -94/-10/-94 -14/-18/-14 -1/-1/-1 -81/-2/-81 
f -15/-19/-15 -1/-1/-1 -14/-18/-14 
f -16/-20/-16 -5/-8/-5 -15/-19/-15 
f -15/-19/-15 -2/-17/-2 -1/-1/-1 
f -5/-8/-5 -4/-6/-4 -15/-19/-15 
f -15/-19/-15 -3/-3/-3 -2/-17/-2 
f -13/-17/-13 -10/-14/-10 -12/-19/-12 
f -12/-19/-12 -6/-6/-6 -7/-8/-7 
# 88 polygons - 12 triangles

