# 3ds Max Wavefront OBJ Exporter v0.97b - (c)2007 guruware
# File Created: 19.11.2013 20:05:10

#
# object SweetPack_Candy_Wrapped_Small
#

v  -0.0132 -0.0121 -0.0216
v  -0.0153 -0.0140 -0.0000
v  -0.0204 0.0000 -0.0000
v  -0.0177 0.0000 -0.0216
v  -0.0000 -0.0162 -0.0216
v  -0.0000 -0.0027 -0.0347
v  -0.0132 0.0121 -0.0216
v  -0.0026 0.0000 -0.0348
v  -0.0000 0.0162 -0.0216
v  0.0132 0.0121 -0.0216
v  -0.0000 0.0027 -0.0347
v  0.0177 0.0000 -0.0216
v  0.0132 -0.0121 -0.0216
v  0.0026 0.0000 -0.0348
v  0.0000 -0.0187 -0.0000
v  0.0000 0.0187 -0.0000
v  0.0153 0.0140 -0.0000
v  0.0204 0.0000 -0.0000
v  0.0153 -0.0140 -0.0000
v  -0.0153 0.0140 -0.0000
v  -0.0067 0.0059 -0.0505
v  -0.0131 0.0000 -0.0505
v  0.0062 0.0038 -0.0505
v  0.0009 0.0089 -0.0505
v  0.0082 -0.0072 -0.0505
v  0.0115 0.0000 -0.0505
v  -0.0047 -0.0046 -0.0505
v  -0.0000 -0.0112 -0.0505
v  -0.0132 -0.0121 0.0216
v  -0.0177 0.0000 0.0216
v  -0.0000 -0.0162 0.0216
v  -0.0000 -0.0027 0.0347
v  -0.0026 0.0000 0.0348
v  -0.0132 0.0121 0.0216
v  -0.0000 0.0162 0.0216
v  -0.0000 0.0027 0.0347
v  0.0132 0.0121 0.0216
v  0.0177 0.0000 0.0216
v  0.0026 0.0000 0.0348
v  0.0132 -0.0121 0.0216
v  -0.0125 0.0000 0.0505
v  -0.0067 0.0038 0.0505
v  -0.0016 0.0085 0.0505
v  0.0063 0.0065 0.0505
v  0.0130 -0.0003 0.0505
v  0.0047 -0.0045 0.0505
v  -0.0000 -0.0109 0.0505
v  -0.0084 -0.0070 0.0505
v  -0.0000 0.0000 0.0348
v  -0.0000 0.0000 -0.0348
# 50 vertices

vn -0.6217 -0.6508 -0.4358
vn -0.6902 -0.7236 0.0000
vn -1.0000 -0.0000 0.0000
vn -0.8976 -0.0000 -0.4409
vn -0.0000 -0.9077 -0.4196
vn -0.0529 -0.9353 -0.3498
vn -0.6217 0.6508 -0.4358
vn -0.9289 -0.0302 -0.3692
vn -0.0000 0.9077 -0.4196
vn 0.6217 0.6508 -0.4358
vn 0.0209 0.9245 -0.3806
vn 0.8976 -0.0000 -0.4409
vn 0.6217 -0.6508 -0.4358
vn 0.9403 0.0499 -0.3365
vn -0.0000 -1.0000 0.0000
vn 0.0000 1.0000 0.0000
vn 0.6902 0.7236 -0.0000
vn 1.0000 -0.0000 -0.0000
vn 0.6902 -0.7236 -0.0000
vn -0.6902 0.7236 0.0000
vn -0.5143 0.7688 0.3801
vn -0.8297 -0.0809 0.5523
vn 0.6120 0.7274 0.3104
vn 0.1791 0.9121 0.3687
vn 0.6356 -0.6116 0.4712
vn 0.8551 0.1937 0.4810
vn -0.6345 -0.7097 0.3061
vn -0.1887 -0.8653 0.4645
vn -0.6217 -0.6508 0.4358
vn -0.8976 -0.0000 0.4409
vn -0.0000 -0.9077 0.4196
vn 0.0527 -0.9341 0.3531
vn -0.9448 0.0447 0.3247
vn -0.6217 0.6508 0.4358
vn -0.0000 0.9077 0.4196
vn -0.0170 0.9275 0.3734
vn 0.6217 0.6508 0.4358
vn 0.8976 -0.0000 0.4409
vn 0.9289 -0.0317 0.3691
vn 0.6217 -0.6508 0.4358
vn -0.8357 0.1582 -0.5259
vn -0.5810 0.7455 -0.3265
vn -0.2251 0.9074 -0.3549
vn 0.4856 0.7864 -0.3818
vn 0.8287 -0.1109 -0.5486
vn 0.6179 -0.7256 -0.3028
vn 0.1907 -0.8716 -0.4517
vn -0.6028 -0.6437 -0.4715
vn 0.5521 -0.7245 0.4126
vn 0.7744 -0.1427 0.6164
vn -0.0222 -0.0293 0.9993
vn -0.4482 -0.7501 0.4864
vn 0.2033 -0.8530 0.4807
vn -0.5934 0.7096 0.3799
vn -0.7662 0.0993 0.6349
vn 0.5601 0.6036 0.5674
vn -0.1717 0.8101 0.5607
vn 0.4778 -0.7364 -0.4789
vn -0.1610 -0.8548 -0.4934
vn 0.0106 -0.0343 -0.9994
vn -0.5845 -0.7062 -0.3996
vn -0.7955 -0.1751 -0.5801
vn -0.5907 0.5703 -0.5708
vn 0.1698 0.8033 -0.5709
vn 0.6108 0.6925 -0.3840
vn 0.7665 0.0727 -0.6381
# 66 vertex normals

vt 0.2563 0.9603 0.0000
vt 0.2689 0.9603 0.0000
vt 0.2689 0.9670 0.0000
vt 0.2563 0.9670 0.0000
vt 0.2946 0.9371 0.0000
vt 0.3016 0.9392 0.0000
vt 0.2946 0.9444 0.0000
vt 0.3038 0.9457 0.0000
vt 0.3016 0.9523 0.0000
vt 0.2959 0.9457 0.0000
vt 0.2946 0.9544 0.0000
vt 0.2876 0.9523 0.0000
vt 0.2946 0.9471 0.0000
vt 0.2854 0.9457 0.0000
vt 0.2876 0.9392 0.0000
vt 0.2932 0.9457 0.0000
vt 0.2563 0.9532 0.0000
vt 0.2689 0.9532 0.0000
vt 0.2563 0.9879 0.0000
vt 0.2563 0.9808 0.0000
vt 0.2689 0.9808 0.0000
vt 0.2689 0.9879 0.0000
vt 0.2563 0.9461 0.0000
vt 0.2563 0.9395 0.0000
vt 0.2689 0.9395 0.0000
vt 0.2689 0.9461 0.0000
vt 0.2689 0.9737 0.0000
vt 0.2563 0.9737 0.0000
vt 0.2689 0.9946 0.0000
vt 0.2563 0.9946 0.0000
vt 0.2991 0.9660 0.0000
vt 0.2939 0.9732 0.0000
vt 0.2900 0.9666 0.0000
vt 0.3003 0.9674 0.0000
vt 0.3073 0.9721 0.0000
vt 0.3011 0.9750 0.0000
vt 0.3017 0.9660 0.0000
vt 0.3080 0.9595 0.0000
vt 0.3102 0.9665 0.0000
vt 0.3003 0.9647 0.0000
vt 0.2940 0.9595 0.0000
vt 0.3006 0.9565 0.0000
vt 0.2816 0.9603 0.0000
vt 0.2816 0.9670 0.0000
vt 0.2816 0.9532 0.0000
vt 0.2816 0.9879 0.0000
vt 0.2816 0.9808 0.0000
vt 0.2816 0.9461 0.0000
vt 0.2816 0.9395 0.0000
vt 0.2816 0.9737 0.0000
vt 0.2816 0.9946 0.0000
vt 0.3024 0.9870 0.0000
vt 0.3112 0.9875 0.0000
vt 0.3081 0.9932 0.0000
vt 0.3011 0.9884 0.0000
vt 0.3020 0.9960 0.0000
vt 0.2949 0.9945 0.0000
vt 0.3000 0.9870 0.0000
vt 0.2908 0.9875 0.0000
vt 0.2947 0.9806 0.0000
vt 0.3011 0.9858 0.0000
vt 0.3012 0.9776 0.0000
vt 0.3087 0.9805 0.0000
vt 0.3014 0.9872 0.0000
vt 0.3006 0.9661 0.0000
# 65 texture coords

g SweetPack_Candy_Wrapped_Small
s 1
f -50/-65/-66 -49/-64/-65 -48/-63/-64 -47/-62/-63 
f -46/-61/-62 -50/-60/-66 -45/-59/-61 
f -47/-58/-63 -44/-57/-60 -43/-56/-59 
f -42/-55/-58 -41/-54/-57 -40/-53/-56 
f -39/-52/-55 -38/-51/-54 -37/-50/-53 
f -50/-65/-66 -46/-49/-62 -36/-48/-52 -49/-64/-65 
f -41/-47/-57 -42/-46/-58 -35/-45/-51 -34/-44/-50 
f -38/-43/-54 -39/-42/-55 -33/-41/-49 -32/-40/-48 
f -48/-63/-64 -31/-39/-47 -44/-38/-60 -47/-62/-63 
f -38/-43/-54 -32/-40/-48 -36/-48/-52 -46/-49/-62 
f -44/-38/-60 -31/-39/-47 -35/-45/-51 -42/-46/-58 
f -41/-47/-57 -34/-44/-50 -33/-37/-49 -39/-36/-55 
f -45/-59/-61 -38/-51/-54 -46/-61/-62 
f -43/-56/-59 -50/-60/-66 -47/-58/-63 
f -40/-53/-56 -44/-57/-60 -42/-55/-58 
f -37/-50/-53 -41/-54/-57 -39/-52/-55 
f -41/-54/-57 -37/-50/-53 -40/-53/-56 
f -40/-53/-56 -43/-56/-59 -44/-57/-60 
f -50/-60/-66 -43/-56/-59 -45/-59/-61 
f -45/-59/-61 -37/-50/-53 -38/-51/-54 
f -43/-35/-59 -30/-34/-46 -29/-33/-45 
f -40/-32/-56 -28/-31/-44 -27/-30/-43 
f -37/-29/-53 -26/-28/-42 -25/-27/-41 
f -45/-26/-61 -24/-25/-40 -23/-24/-39 
f -40/-32/-56 -37/-29/-53 -28/-31/-44 
f -43/-35/-59 -40/-32/-56 -30/-34/-46 
f -37/-29/-53 -45/-26/-61 -26/-28/-42 
f -43/-35/-59 -24/-25/-40 -45/-26/-61 
f -40/-32/-56 -27/-30/-43 -30/-34/-46 
f -37/-29/-53 -25/-27/-41 -28/-31/-44 
f -45/-26/-61 -23/-24/-39 -26/-28/-42 
f -43/-35/-59 -29/-33/-45 -24/-25/-40 
f -22/-23/-38 -21/-22/-37 -48/-63/-64 -49/-64/-65 
f -20/-55/-36 -19/-53/-35 -22/-57/-38 
f -21/-58/-37 -18/-56/-34 -17/-60/-33 
f -16/-61/-32 -15/-59/-31 -14/-51/-30 
f -13/-52/-29 -12/-50/-28 -11/-54/-27 
f -22/-23/-38 -49/-64/-65 -36/-48/-52 -20/-21/-36 
f -14/-20/-30 -34/-44/-50 -35/-45/-51 -16/-19/-32 
f -11/-18/-27 -32/-40/-48 -33/-41/-49 -13/-17/-29 
f -48/-63/-64 -21/-22/-37 -17/-16/-33 -31/-39/-47 
f -11/-18/-27 -20/-21/-36 -36/-48/-52 -32/-40/-48 
f -17/-16/-33 -16/-19/-32 -35/-45/-51 -31/-39/-47 
f -14/-20/-30 -13/-15/-29 -33/-37/-49 -34/-44/-50 
f -19/-53/-35 -20/-55/-36 -11/-54/-27 
f -18/-56/-34 -21/-58/-37 -22/-57/-38 
f -15/-59/-31 -16/-61/-32 -17/-60/-33 
f -12/-50/-28 -13/-52/-29 -14/-51/-30 
f -14/-51/-30 -15/-59/-31 -12/-50/-28 
f -15/-59/-31 -17/-60/-33 -18/-56/-34 
f -22/-57/-38 -19/-53/-35 -18/-56/-34 
f -19/-53/-35 -11/-54/-27 -12/-50/-28 
f -18/-14/-34 -10/-13/-26 -9/-12/-25 
f -15/-11/-31 -8/-10/-24 -7/-9/-23 
f -12/-8/-28 -6/-7/-22 -5/-6/-21 
f -19/-5/-35 -4/-4/-20 -3/-3/-19 
f -15/-11/-31 -7/-9/-23 -12/-8/-28 
f -18/-14/-34 -9/-12/-25 -15/-11/-31 
f -12/-8/-28 -5/-6/-21 -19/-5/-35 
f -18/-14/-34 -19/-5/-35 -3/-3/-19 
f -15/-11/-31 -9/-12/-25 -8/-10/-24 
f -12/-8/-28 -7/-9/-23 -6/-7/-22 
f -19/-5/-35 -5/-6/-21 -4/-4/-20 
f -18/-14/-34 -3/-3/-19 -10/-13/-26 
s 2
f -9/-12/-18 -10/-13/-17 -2/-2/-16 
f -7/-9/-15 -8/-10/-14 -2/-2/-16 
f -5/-6/-13 -6/-7/-12 -2/-2/-16 
f -3/-3/-11 -4/-4/-10 -2/-2/-16 
f -8/-10/-14 -9/-12/-18 -2/-2/-16 
f -6/-7/-12 -7/-9/-15 -2/-2/-16 
f -4/-4/-10 -5/-6/-13 -2/-2/-16 
f -10/-13/-17 -3/-3/-11 -2/-2/-16 
f -30/-34/-9 -27/-30/-8 -1/-1/-7 
f -28/-31/-6 -25/-27/-5 -1/-1/-7 
f -26/-28/-4 -23/-24/-3 -1/-1/-7 
f -24/-25/-2 -29/-33/-1 -1/-1/-7 
f -29/-33/-1 -30/-34/-9 -1/-1/-7 
f -27/-30/-8 -28/-31/-6 -1/-1/-7 
f -25/-27/-5 -26/-28/-4 -1/-1/-7 
f -23/-24/-3 -24/-25/-2 -1/-1/-7 
# 16 polygons - 64 triangles

