# 3ds Max Wavefront OBJ Exporter v0.97b - (c)2007 guruware
# File Created: 19.11.2013 20:05:14

#
# object SweetPack_Candy_Peppermint1
#

v  0.0283 -0.0062 -0.0163
v  0.0283 0.0000 -0.0163
v  0.0327 0.0000 -0.0000
v  0.0327 -0.0062 -0.0000
v  0.0163 -0.0062 -0.0283
v  0.0163 0.0000 -0.0283
v  -0.0000 -0.0062 -0.0327
v  -0.0000 0.0000 -0.0327
v  -0.0163 -0.0062 -0.0283
v  -0.0163 0.0000 -0.0283
v  -0.0283 -0.0062 -0.0163
v  -0.0283 0.0000 -0.0163
v  -0.0327 -0.0062 -0.0000
v  -0.0327 0.0000 -0.0000
v  -0.0283 -0.0062 0.0163
v  -0.0283 0.0000 0.0163
v  -0.0163 -0.0062 0.0283
v  -0.0163 0.0000 0.0283
v  -0.0000 -0.0062 0.0327
v  -0.0000 0.0000 0.0327
v  0.0163 -0.0062 0.0283
v  0.0163 0.0000 0.0283
v  0.0283 -0.0062 0.0163
v  0.0283 0.0000 0.0163
v  0.0295 -0.0093 -0.0000
v  0.0255 -0.0093 -0.0147
v  0.0283 0.0062 -0.0163
v  0.0255 0.0093 -0.0147
v  0.0295 0.0093 -0.0000
v  0.0327 0.0062 -0.0000
v  0.0147 -0.0093 -0.0255
v  0.0163 0.0062 -0.0283
v  0.0147 0.0093 -0.0255
v  -0.0000 -0.0093 -0.0295
v  -0.0000 0.0062 -0.0327
v  -0.0000 0.0093 -0.0295
v  -0.0147 -0.0093 -0.0255
v  -0.0163 0.0062 -0.0283
v  -0.0147 0.0093 -0.0255
v  -0.0255 -0.0093 -0.0147
v  -0.0283 0.0062 -0.0163
v  -0.0255 0.0093 -0.0147
v  -0.0295 -0.0093 -0.0000
v  -0.0327 0.0062 -0.0000
v  -0.0295 0.0093 -0.0000
v  -0.0255 -0.0093 0.0147
v  -0.0283 0.0062 0.0163
v  -0.0255 0.0093 0.0147
v  -0.0147 -0.0093 0.0255
v  -0.0163 0.0062 0.0283
v  -0.0147 0.0093 0.0255
v  -0.0000 -0.0093 0.0295
v  -0.0000 0.0062 0.0327
v  -0.0000 0.0093 0.0295
v  0.0147 -0.0093 0.0255
v  0.0163 0.0062 0.0283
v  0.0147 0.0093 0.0255
v  0.0255 -0.0093 0.0147
v  0.0283 0.0062 0.0163
v  0.0255 0.0093 0.0147
# 60 vertices

vn 0.8048 -0.3692 -0.4647
vn 0.8660 0.0000 -0.5000
vn 1.0000 0.0000 0.0000
vn 0.9293 -0.3692 0.0000
vn 0.4647 -0.3692 -0.8048
vn 0.5000 0.0000 -0.8660
vn -0.0000 -0.3692 -0.9293
vn -0.0000 0.0000 -1.0000
vn -0.4647 -0.3692 -0.8048
vn -0.5000 0.0000 -0.8660
vn -0.8048 -0.3692 -0.4647
vn -0.8660 0.0000 -0.5000
vn -0.9293 -0.3692 -0.0000
vn -1.0000 0.0000 -0.0000
vn -0.8048 -0.3692 0.4647
vn -0.8660 0.0000 0.5000
vn -0.4647 -0.3692 0.8048
vn -0.5000 0.0000 0.8660
vn -0.0000 -0.3692 0.9293
vn -0.0000 0.0000 1.0000
vn 0.4647 -0.3692 0.8048
vn 0.5000 0.0000 0.8660
vn 0.8048 -0.3692 0.4647
vn 0.8660 0.0000 0.5000
vn 0.4257 -0.9049 0.0000
vn 0.3687 -0.9049 -0.2129
vn 0.8048 0.3692 -0.4647
vn 0.3687 0.9049 -0.2129
vn 0.4257 0.9049 -0.0000
vn 0.9293 0.3692 0.0000
vn 0.2129 -0.9049 -0.3687
vn 0.4647 0.3692 -0.8048
vn 0.2129 0.9049 -0.3687
vn 0.0000 -0.9049 -0.4257
vn -0.0000 0.3692 -0.9293
vn -0.0000 0.9049 -0.4257
vn -0.2129 -0.9049 -0.3687
vn -0.4647 0.3692 -0.8048
vn -0.2129 0.9049 -0.3687
vn -0.3687 -0.9049 -0.2129
vn -0.8048 0.3692 -0.4647
vn -0.3687 0.9049 -0.2129
vn -0.4257 -0.9049 -0.0000
vn -0.9293 0.3692 -0.0000
vn -0.4257 0.9049 -0.0000
vn -0.3687 -0.9049 0.2129
vn -0.8048 0.3692 0.4647
vn -0.3687 0.9049 0.2129
vn -0.2129 -0.9049 0.3687
vn -0.4647 0.3692 0.8048
vn -0.2129 0.9049 0.3687
vn -0.0000 -0.9049 0.4257
vn -0.0000 0.3692 0.9293
vn -0.0000 0.9049 0.4257
vn 0.2129 -0.9049 0.3687
vn 0.4647 0.3692 0.8048
vn 0.2129 0.9049 0.3687
vn 0.3687 -0.9049 0.2129
vn 0.8048 0.3692 0.4647
vn 0.3687 0.9049 0.2129
# 60 vertex normals

vt 0.0660 0.9266 0.0000
vt 0.0692 0.9285 0.0000
vt 0.0718 0.9186 0.0000
vt 0.0681 0.9186 0.0000
vt 0.0602 0.9325 0.0000
vt 0.0620 0.9356 0.0000
vt 0.0522 0.9346 0.0000
vt 0.0522 0.9383 0.0000
vt 0.0442 0.9325 0.0000
vt 0.0424 0.9356 0.0000
vt 0.0383 0.9266 0.0000
vt 0.0352 0.9285 0.0000
vt 0.0362 0.9186 0.0000
vt 0.0326 0.9186 0.0000
vt 0.0383 0.9107 0.0000
vt 0.0352 0.9088 0.0000
vt 0.0442 0.9048 0.0000
vt 0.0424 0.9017 0.0000
vt 0.0522 0.9027 0.0000
vt 0.0522 0.8990 0.0000
vt 0.0602 0.9048 0.0000
vt 0.0620 0.9017 0.0000
vt 0.0660 0.9107 0.0000
vt 0.0692 0.9088 0.0000
vt 0.0661 0.9186 0.0000
vt 0.0642 0.9256 0.0000
vt 0.0591 0.9307 0.0000
vt 0.0522 0.9325 0.0000
vt 0.0452 0.9307 0.0000
vt 0.0401 0.9256 0.0000
vt 0.0383 0.9186 0.0000
vt 0.0401 0.9117 0.0000
vt 0.0452 0.9066 0.0000
vt 0.0522 0.9047 0.0000
vt 0.0591 0.9066 0.0000
vt 0.0642 0.9117 0.0000
# 36 texture coords

g SweetPack_Candy_Peppermint1
s 1
f -60/-36/-60 -59/-35/-59 -58/-34/-58 -57/-33/-57 
f -56/-32/-56 -55/-31/-55 -59/-35/-59 -60/-36/-60 
f -54/-30/-54 -53/-29/-53 -55/-31/-55 -56/-32/-56 
f -52/-28/-52 -51/-27/-51 -53/-29/-53 -54/-30/-54 
f -50/-26/-50 -49/-25/-49 -51/-27/-51 -52/-28/-52 
f -48/-24/-48 -47/-23/-47 -49/-25/-49 -50/-26/-50 
f -46/-22/-46 -45/-21/-45 -47/-23/-47 -48/-24/-48 
f -44/-20/-44 -43/-19/-43 -45/-21/-45 -46/-22/-46 
f -42/-18/-42 -41/-17/-41 -43/-19/-43 -44/-20/-44 
f -40/-16/-40 -39/-15/-39 -41/-17/-41 -42/-18/-42 
f -38/-14/-38 -37/-13/-37 -39/-15/-39 -40/-16/-40 
f -57/-33/-57 -58/-34/-58 -37/-13/-37 -38/-14/-38 
f -57/-33/-57 -36/-12/-36 -35/-11/-35 -60/-36/-60 
f -34/-36/-34 -33/-11/-33 -32/-12/-32 -31/-33/-31 
f -60/-36/-60 -35/-11/-35 -30/-10/-30 -56/-32/-56 
f -29/-32/-29 -28/-10/-28 -33/-11/-33 -34/-36/-34 
f -56/-32/-56 -30/-10/-30 -27/-9/-27 -54/-30/-54 
f -26/-30/-26 -25/-9/-25 -28/-10/-28 -29/-32/-29 
f -54/-30/-54 -27/-9/-27 -24/-8/-24 -52/-28/-52 
f -23/-28/-23 -22/-8/-22 -25/-9/-25 -26/-30/-26 
f -52/-28/-52 -24/-8/-24 -21/-7/-21 -50/-26/-50 
f -20/-26/-20 -19/-7/-19 -22/-8/-22 -23/-28/-23 
f -50/-26/-50 -21/-7/-21 -18/-6/-18 -48/-24/-48 
f -17/-24/-17 -16/-6/-16 -19/-7/-19 -20/-26/-20 
f -48/-24/-48 -18/-6/-18 -15/-5/-15 -46/-22/-46 
f -14/-22/-14 -13/-5/-13 -16/-6/-16 -17/-24/-17 
f -46/-22/-46 -15/-5/-15 -12/-4/-12 -44/-20/-44 
f -11/-20/-11 -10/-4/-10 -13/-5/-13 -14/-22/-14 
f -44/-20/-44 -12/-4/-12 -9/-3/-9 -42/-18/-42 
f -8/-18/-8 -7/-3/-7 -10/-4/-10 -11/-20/-11 
f -42/-18/-42 -9/-3/-9 -6/-2/-6 -40/-16/-40 
f -5/-16/-5 -4/-2/-4 -7/-3/-7 -8/-18/-8 
f -40/-16/-40 -6/-2/-6 -3/-1/-3 -38/-14/-38 
f -2/-14/-2 -1/-1/-1 -4/-2/-4 -5/-16/-5 
f -38/-14/-38 -3/-1/-3 -36/-12/-36 -57/-33/-57 
f -31/-33/-31 -32/-12/-32 -1/-1/-1 -2/-14/-2 
f -35/-11/-35 -36/-12/-36 -9/-3/-9 
f -36/-12/-36 -3/-1/-3 -9/-3/-9 
f -3/-1/-3 -6/-2/-6 -9/-3/-9 
f -12/-4/-12 -15/-5/-15 -9/-3/-9 
f -15/-5/-15 -18/-6/-18 -9/-3/-9 
f -18/-6/-18 -21/-7/-21 -9/-3/-9 
f -21/-7/-21 -24/-8/-24 -9/-3/-9 
f -24/-8/-24 -27/-9/-27 -9/-3/-9 
f -27/-9/-27 -30/-10/-30 -9/-3/-9 
f -30/-10/-30 -35/-11/-35 -9/-3/-9 
f -32/-12/-32 -33/-11/-33 -7/-3/-7 
f -33/-11/-33 -28/-10/-28 -7/-3/-7 
f -28/-10/-28 -25/-9/-25 -7/-3/-7 
f -25/-9/-25 -22/-8/-22 -7/-3/-7 
f -22/-8/-22 -19/-7/-19 -7/-3/-7 
f -19/-7/-19 -16/-6/-16 -7/-3/-7 
f -16/-6/-16 -13/-5/-13 -7/-3/-7 
f -13/-5/-13 -10/-4/-10 -7/-3/-7 
f -4/-2/-4 -1/-1/-1 -7/-3/-7 
f -1/-1/-1 -32/-12/-32 -7/-3/-7 
f -34/-36/-34 -31/-33/-31 -58/-34/-58 -59/-35/-59 
f -29/-32/-29 -34/-36/-34 -59/-35/-59 -55/-31/-55 
f -26/-30/-26 -29/-32/-29 -55/-31/-55 -53/-29/-53 
f -23/-28/-23 -26/-30/-26 -53/-29/-53 -51/-27/-51 
f -20/-26/-20 -23/-28/-23 -51/-27/-51 -49/-25/-49 
f -17/-24/-17 -20/-26/-20 -49/-25/-49 -47/-23/-47 
f -14/-22/-14 -17/-24/-17 -47/-23/-47 -45/-21/-45 
f -11/-20/-11 -14/-22/-14 -45/-21/-45 -43/-19/-43 
f -8/-18/-8 -11/-20/-11 -43/-19/-43 -41/-17/-41 
f -5/-16/-5 -8/-18/-8 -41/-17/-41 -39/-15/-39 
f -2/-14/-2 -5/-16/-5 -39/-15/-39 -37/-13/-37 
f -31/-33/-31 -2/-14/-2 -37/-13/-37 -58/-34/-58 
# 48 polygons - 20 triangles

